<svg width="1539" height="520" viewBox="0 0 1539 520" fill="none" xmlns="http://www.w3.org/2000/svg">
<path opacity="0.9" fill-rule="evenodd" clip-rule="evenodd" d="M579.2 183.1H607.2V350.1H579.2V183.1ZM451 189.1C454.9 189.1 461.7 189.8 466 190.6C470.2 191.4 477.3 193.8 481.7 195.9C486.1 198 491.7 201.5 494.2 203.6C496.7 205.7 500.3 209.3 502.2 211.7C504.1 214 506.5 217.3 509.2 222.1L505.5 224.5C503.4 225.8 498.1 229.4 485.7 237.9L479.7 231.6C475.8 227.6 471.6 224.4 467.7 222.6C463.5 220.6 459.6 219.6 454.7 219.3C450.9 219.1 445.8 219.4 443.5 220C441.1 220.6 437.6 222.5 435.6 224.3C433.7 226.1 431.6 229.2 431 231.1C430.5 233 430.3 236.2 430.7 238.1C431.1 240 432.2 242.6 433.1 243.9C434 245.2 436.7 247.6 439.2 249.1C441.7 250.7 452.5 254.9 463.2 258.6C473.9 262.2 485.8 266.9 489.7 268.9C493.5 270.9 498.8 274.7 501.4 277.3C504 279.9 507.3 284.4 508.6 287.3C510 290.2 511.6 295.5 512.2 299.1C513.1 303.9 513.1 307.5 512.3 313.1C511.6 317.2 510 323.1 508.6 326.1C507.2 329.1 504.6 333.4 502.8 335.6C501 337.8 496.9 341.4 493.6 343.6C490.4 345.8 483.9 348.9 479.2 350.5C472.8 352.6 468 353.4 459.7 353.8C451.6 354.2 446.5 353.9 440.2 352.7C435.3 351.7 428.2 349.3 423.2 346.9C416.4 343.7 413.2 341.4 407.2 335.2C403.1 331 398.4 325.2 396.9 322.3C395.4 319.4 394.4 316.5 394.6 315.8C394.8 315.1 399.9 311.1 406.1 306.8C412.2 302.6 417.4 299.1 417.7 299.1C418 299.1 419.5 301.2 421.1 303.8C422.7 306.4 426 310.4 428.4 312.6C430.8 314.8 434.3 317.6 436.2 318.8C438.1 320 442.6 321.7 446.2 322.7C450.7 323.8 454.9 324.2 459.7 323.8C463.6 323.5 468.5 322.6 470.7 321.6C472.9 320.7 476 318.8 477.5 317.3C479 315.8 480.7 313 481.3 311.1C481.9 309.2 482.1 306 481.7 304.1C481.3 302.2 480.2 299.3 479.1 297.8C478 296.2 473.9 293.5 469 291.2C464.4 289 455.1 285.6 448.2 283.6C441.3 281.6 431.7 278 426.7 275.7C421.3 273.1 415.6 269.4 412.4 266.5C409.1 263.5 405.9 259.3 404.1 255.6C402.5 252.3 400.7 246.7 400.2 243.1C399.6 239 399.6 234.1 400.2 229.8C400.8 226.1 402 221.2 402.9 218.8C403.8 216.5 405.8 212.8 407.2 210.6C408.7 208.4 411.9 204.8 414.4 202.6C416.9 200.4 421.1 197.4 423.8 195.9C426.5 194.4 432.1 192.3 436.2 191.2C440.3 190.1 447 189.2 451 189.1ZM542.2 190.1C544.1 190.1 547.7 191.1 550.2 192.3C552.7 193.6 555.7 196.2 557 198.1C558.2 200 559.5 203.2 559.9 205.1C560.2 207 559.9 210.3 559.3 212.3C558.7 214.4 557 217.5 555.5 219.2C553.9 220.8 550.9 222.9 548.7 223.8C546.033 224.8 543.133 225.1 540 224.7C536.6 224.3 534.2 223.2 531.5 220.8C529.5 219 527.3 216.1 526.5 214.3C525.8 212.5 525.2 209.5 525.2 207.6C525.2 205.7 525.7 202.8 526.3 201.3C526.9 199.8 528.3 197.3 529.5 195.6C530.8 194 533.3 192.1 535.2 191.4C537.1 190.7 540.3 190.1 542.2 190.1ZM1207.2 190.1C1209.1 190.1 1212.7 191.1 1215.2 192.3C1218.2 193.8 1220.5 195.9 1221.9 198.6C1223.4 201.1 1224.2 204.3 1224.2 207.3C1224.2 209.9 1223.4 213.7 1222.5 215.8C1221.5 217.8 1218.9 220.6 1216.7 222C1214.4 223.5 1210.8 224.7 1208.2 224.9C1204.9 225.2 1202.5 224.6 1199.2 222.8C1196.4 221.3 1193.9 219 1192.5 216.5C1190.97 213.9 1190.2 210.933 1190.2 207.6C1190.2 204.266 1190.97 201.3 1192.5 198.7C1193.9 196.2 1196.3 193.9 1199.2 192.4C1201.6 191.1 1205.2 190.1 1207.2 190.1ZM1072.5 197.2L1073.7 238.6L1099.2 239.1V266.1H1073.2L1073.7 317.9L1076.2 320.6C1077.6 322 1080.5 323.6 1082.7 324.2C1084.9 324.8 1089.5 325.1 1099.2 324.6V349.6L1094.5 350.3C1091.9 350.8 1087 351.1 1083.7 351.1C1080.4 351.1 1074.8 350.4 1071.2 349.7C1067.6 348.9 1062.9 347.4 1060.7 346.3C1058.5 345.2 1055.5 343 1054 341.4C1052.5 339.9 1050.4 336.6 1049.3 334.1C1048.2 331.6 1046.9 326.7 1046.3 323.1C1045.7 319.5 1045.2 305.2 1045.2 266.1H1026.2V239.1H1045.2V216.6L1072.5 197.2ZM790.7 236.2C795.1 236.1 801.5 236.8 804.9 237.6C808.4 238.4 813.3 240.2 815.9 241.5C818.5 242.8 822.9 245.6 825.7 247.8C828.4 249.9 832.8 254.8 835.4 258.7C838 262.5 841.4 269 842.8 273.1C844.7 278.5 845.6 283.3 846 290.6C846.2 296.1 846.2 301.8 845.2 306.1H763.2L763.8 308.3C764.1 309.6 765.2 311.9 766.2 313.6C767.2 315.2 769.7 318.2 771.8 320.2C773.9 322.1 778.1 324.5 781.2 325.6C784.4 326.7 789.5 327.4 793.7 327.4C799 327.4 802 326.9 806.2 324.9C809.2 323.6 813.5 320.8 819.7 315.1L840.7 330L833.2 337.3C828.8 341.5 823.3 345.8 820.2 347.3C817.1 348.8 811.7 350.7 808.2 351.5C804.6 352.4 797.8 353.1 793.2 353.1C787.8 353.1 781.7 352.4 776.7 351.1C772.3 349.9 765.9 347.5 762.4 345.6C759 343.6 753.8 339.7 750.9 336.8C748 333.9 744 328.4 742 324.6C740 320.7 737.5 314.9 736.5 311.6C735.3 307.5 734.8 302.3 734.8 295.1C734.8 288.4 735.4 282.2 736.5 278.1C737.4 274.5 739.6 268.7 741.4 265.1C743.4 261.1 747.1 256.1 751.2 252.1C755.3 248 760.1 244.4 764.2 242.4C767.7 240.6 773.4 238.5 776.7 237.7C780 236.9 786.3 236.2 790.7 236.2ZM773.5 266.7C771.4 268.4 768.4 271.8 767 274.2C765.5 276.6 764 279.8 763.7 281.3L763.2 284.1H819.2C816.9 277.5 814.3 273.4 811.9 270.7C809.6 268 805.9 264.9 803.7 263.8C801.4 262.7 796.9 261.7 793.2 261.5C789.6 261.3 784.6 261.7 782 262.3C779.5 263 775.7 265 773.5 266.7ZM976.2 236.2C981 236.1 987.3 236.8 990.7 237.6C994 238.5 998.9 240.4 1001.7 241.9C1004.4 243.4 1008.7 246.6 1011.2 249.1C1013.7 251.6 1016.3 254.5 1017 255.6C1018 257.4 1017.2 258.2 997.2 272.1L994.8 269.3C993.6 267.8 990.1 265.3 987.1 263.8C983.7 262.1 980.1 261.1 977.4 261.1C975.1 261.1 971.6 261.8 969.7 262.6C967.7 263.4 965.7 265 965.2 266.1C964.6 267.2 964.3 269.5 964.4 271.3C964.6 273.6 965.5 275.1 967.7 276.6C969.3 277.7 976.5 280.3 983.7 282.4C990.8 284.6 999.4 287.5 1002.7 289.1C1006 290.6 1010.6 293.9 1013 296.2C1015.6 298.9 1018.1 302.7 1019.3 306.1C1020.9 310.3 1021.3 313.4 1021 319.6C1020.7 325.2 1020 328.9 1018.5 332.1C1017.3 334.6 1014.3 338.5 1012 340.9C1009.6 343.3 1005.4 346.3 1002.7 347.6C999.9 348.9 994.7 350.7 991.2 351.5C987.6 352.4 981.3 353.1 977.2 353.1C973 353.1 966.5 352.4 962.7 351.6C958.8 350.7 953.4 349 950.7 347.8C947.9 346.5 943.7 343.7 941.3 341.5C938.8 339.4 935.5 335.8 934 333.6C932.4 331.4 931.1 329 931.1 328.3C931.2 327.7 935.9 323.9 941.7 320.1C947.4 316.2 952.5 313.1 952.9 313.2C953.3 313.2 955 315.1 956.7 317.4C958.6 320.1 961.7 322.6 965.2 324.4C969.4 326.5 972.1 327.1 976.9 327.1C980.4 327.1 984.7 326.4 986.7 325.6C988.6 324.8 990.6 323.2 991.2 322.1C991.7 321 992.2 318.9 992.2 317.3C992.2 315.8 991.4 313.9 990.4 313C989.5 312.1 987.5 310.8 986.2 310.1C984.8 309.4 977.9 307 970.9 304.9C963.9 302.8 955.9 300 953.2 298.6C950.4 297.2 946.3 294.4 944 292.3C941.7 290.3 938.8 286.3 937.5 283.6C935.8 279.8 935.2 276.8 935.2 271.3C935.2 266.3 935.8 262.3 937.3 258.3C938.7 254.7 941.2 251 944.1 248C946.6 245.5 950.9 242.4 953.7 241.1C956.4 239.8 960.7 238.2 963.2 237.5C965.6 236.8 971.5 236.2 976.2 236.2ZM1305.4 236.1C1309.7 236.1 1315.5 236.6 1318.4 237.2C1321.3 237.8 1326.6 239.7 1330.2 241.4C1334.7 243.5 1338.8 246.6 1343.7 251.5C1347.6 255.4 1352.2 261.3 1353.9 264.6C1355.6 267.9 1358 274.2 1359.1 278.6C1360.4 283.4 1361.2 289.8 1361.2 294.6C1361.2 299.4 1360.4 305.8 1359.1 310.6C1358 315 1355.6 321.3 1353.9 324.6C1352.1 327.9 1347.8 333.5 1344.2 337.1C1340.6 340.7 1335 345.1 1331.7 346.8C1328.4 348.5 1323 350.7 1319.7 351.5C1316.4 352.4 1310.5 353.1 1306.7 353.1C1302.8 353.1 1297.1 352.4 1293.9 351.6C1290.8 350.8 1286.4 349.2 1284.2 348.1C1282 347 1278.3 344.3 1275.9 342.1C1273.6 339.9 1271.3 338.1 1270.9 338.1C1270.5 338.1 1270.2 350.2 1270.2 392.1H1242.2V239.1H1270.2V244.6C1270.2 247.6 1270.5 250.3 1270.9 250.6C1271.3 250.8 1273 249.7 1274.7 248C1276.3 246.3 1279.7 243.7 1282.2 242.3C1284.6 240.8 1289.1 238.9 1292.2 237.9C1295.3 236.9 1301 236.2 1305.4 236.1ZM1283.2 268.5C1281.2 269.9 1278.7 272.2 1277.6 273.8C1276.4 275.3 1274.8 277.9 1273.9 279.6C1273.1 281.2 1271.9 285.1 1271.3 288.1C1270.6 291.9 1270.6 295.6 1271.3 300.1C1271.8 303.7 1273.3 308.4 1274.6 310.6C1275.9 312.8 1279.1 316.5 1281.8 318.9C1284.8 321.5 1288.6 323.8 1291.7 324.7C1294.4 325.5 1299.3 326.1 1302.4 326.1C1305.7 326.1 1310.5 325.2 1313.4 324.1C1316.3 323 1320.5 320.6 1322.7 318.8C1324.9 316.9 1328 312.7 1329.6 309.5C1332.3 304.3 1332.6 302.6 1332.6 294.6C1332.6 287.7 1332.1 284.6 1330.6 281.1C1329.4 278.6 1327 274.9 1325.1 272.8C1323.2 270.6 1319 267.6 1315.7 266C1310.6 263.5 1308.5 263.1 1302.2 263.1C1298 263.1 1292.9 263.8 1290.7 264.6C1288.5 265.4 1285.1 267.2 1283.2 268.5ZM1429.2 236.2C1433.8 236.1 1440.4 236.8 1443.7 237.6C1447 238.5 1451.9 240.2 1454.7 241.5C1457.4 242.8 1462.3 246.3 1465.6 249.2C1468.8 252.2 1473.3 257.3 1475.4 260.6C1477.5 263.9 1480.3 270 1481.6 274.1C1482.9 278.2 1484.3 284.5 1484.7 288.1C1485.1 291.7 1485.1 297.2 1484.2 306.1H1402.2L1402.8 308.8C1403.1 310.4 1404.7 313.5 1406.3 315.8C1407.9 318.2 1411.1 321.2 1413.4 322.6C1415.8 323.9 1419.2 325.5 1421.2 326.1C1423.1 326.7 1427.8 327.3 1431.7 327.3C1437.1 327.4 1439.9 326.9 1444.2 325C1447.2 323.6 1451.6 320.8 1458.2 315.1L1468.2 322.3C1473.7 326.3 1478.2 329.9 1478.2 330.3C1478.2 330.8 1476.2 333.2 1473.8 335.8C1471.4 338.5 1467.1 342.2 1464.1 344.2C1461.1 346.2 1455.7 348.8 1452.2 350.1C1447.7 351.6 1442.5 352.5 1435.7 352.8C1428.8 353.1 1423.3 352.8 1418.2 351.7C1414 350.8 1407.3 348.5 1403.2 346.4C1398.3 344 1393.5 340.6 1389.5 336.7C1385.2 332.4 1382.3 328.3 1379.8 323.1C1377.8 319 1375.5 312.9 1374.7 309.6C1373.8 306.3 1373.2 299.9 1373.2 295.3C1373.2 290.8 1373.9 283.8 1374.8 279.8C1375.7 275.9 1377.8 269.7 1379.5 266.1C1381.57 261.766 1384.93 257.233 1389.6 252.5C1394.4 247.8 1398.8 244.4 1403.2 242.3C1406.7 240.5 1412.1 238.5 1415.2 237.7C1418.2 236.9 1424.5 236.2 1429.2 236.2ZM1418.2 263.3C1416.2 263.9 1412.7 266.3 1410.3 268.5C1407.9 270.8 1405.2 273.9 1404.4 275.6C1403.6 277.2 1402.5 279.8 1402 281.3L1401.2 284.1C1450.9 284.1 1457.2 283.8 1457.2 282.8C1457.1 282.2 1456.1 279.3 1454.8 276.6C1453.5 273.8 1450.6 269.9 1448.1 267.8C1445.7 265.7 1441.4 263.3 1438.7 262.5C1435.9 261.7 1431.9 261.1 1429.7 261.2C1427.5 261.3 1424.8 261.5 1423.7 261.8C1422.6 262 1420.1 262.7 1418.2 263.3ZM923.2 237.1V267.6L915.9 268.3C911.7 268.8 906.8 270 904.3 271.3C901.9 272.6 898.3 275.4 896.3 277.7C894.3 279.9 892 283.5 891.2 285.7C890.1 288.7 889.7 296.8 889.2 350.1H861.2V239.1H889.2L889.7 257.2L893.2 251.9C895.2 248.9 898.8 245.2 901.7 243.3C904.4 241.5 908.7 239.3 911.2 238.6C913.6 237.8 917.4 237.2 923.2 237.1ZM1177.2 237.1V267.6L1170.4 268.1C1165.8 268.5 1161.7 269.6 1157.7 271.6C1153.8 273.5 1150.5 276.1 1148.4 278.8C1146.6 281.2 1144.7 284.8 1144.2 286.8C1143.6 288.9 1143.2 303.8 1143.2 350.1H1114.2V239.1H1143.2V248.3C1143.2 255.6 1143.5 257.2 1144.3 255.6C1144.9 254.5 1146.4 252 1147.7 250.1C1149 248.2 1151.9 245.2 1154.3 243.6C1156.6 241.9 1160.8 239.8 1163.6 238.9C1166.4 237.9 1170.6 237.1 1177.2 237.1ZM528.2 239.1H556.2V350.1H528.2V239.1ZM652.2 239.1L664.7 277.6C671.5 298.8 677.5 315.9 677.9 315.7C678.3 315.5 684.3 298.2 703.7 239.1H734.2L733.7 241.3C733.4 242.6 724.5 267.4 694.4 349.6L661.7 350.1L641.7 295.5C630.7 265.5 621.5 240.5 621.3 240C621.1 239.5 627.6 239.1 652.2 239.1ZM1193.2 239.1H1221.2V350.1H1193.2V239.1Z" fill="#051B28"/>
<path d="M128.099 175.7C100.299 194.7 75.3995 212.1 72.6995 214.4C69.9995 216.7 65.7995 221.3 63.4995 224.6C61.1995 227.9 57.6995 234 55.7995 238.1C53.7995 242.2 51.4995 249.4 50.4995 254.1C49.2995 260.3 48.9994 265 49.3994 271.6C49.7994 276.6 50.7995 283.3 51.5995 286.6C52.4995 289.9 54.7995 295.7 56.6995 299.6C58.5995 303.4 62.3995 309.4 65.0995 312.8C67.8995 316.3 72.6995 321.1 75.7995 323.6C78.9995 326.1 84.4995 329.7 88.0995 331.6C91.6995 333.5 98.1995 336 102.599 337.2C108.299 338.7 113.599 339.3 121.099 339.3C128.799 339.3 133.699 338.8 139.599 337.1C143.999 335.9 150.699 333.3 154.599 331.3C158.399 329.3 164.399 324.9 167.899 321.6C172.099 317.7 175.399 313.4 177.499 309.1C179.399 305.4 181.299 299.3 182.099 295.1C183.099 289.2 183.099 286.1 182.199 280.6C181.499 276.7 179.699 270.8 178.099 267.3C175.999 262.9 174.699 261.2 173.599 261.6C172.799 261.9 163.199 268.1 152.299 275.4C141.499 282.8 130.799 289.4 128.599 290.1C126.099 290.9 122.499 291.1 119.099 290.8C115.699 290.4 111.899 289.1 109.199 287.4C106.599 285.8 103.399 282.5 101.699 279.7C98.9995 275.3 98.5995 273.9 98.5995 267.2C98.5995 260.8 98.9995 258.9 101.199 255.1C103.499 251.2 107.899 247.8 132.199 231.2C147.799 220.5 163.899 209.3 167.799 206.4C173.099 202.6 176.299 199.2 179.399 194.3C181.799 190.6 184.499 185.3 185.499 182.6C186.399 179.8 187.399 174.9 187.699 171.6C188.099 168.2 187.799 162.8 187.199 159.1C186.499 155.5 184.699 150.2 183.299 147.2C181.799 144.2 180.099 141.6 179.599 141.4C178.999 141.2 155.799 156.6 128.099 175.7ZM237.599 222.7C234.299 223.5 227.899 226 223.299 228.1C217.799 230.8 212.999 234.1 208.499 238.3C203.799 242.8 200.899 246.6 198.499 251.6C196.599 255.4 194.599 261.3 193.999 264.6C193.399 267.9 193.099 273.3 193.399 276.6C193.799 279.9 194.699 284.8 195.499 287.6C196.399 290.3 198.099 294.3 199.299 296.3L201.599 300C233.399 278.2 244.199 271.3 246.099 270.5C247.999 269.7 251.599 269.1 254.099 269.1C256.599 269.1 260.399 269.7 262.499 270.4C264.599 271 267.999 273 269.999 274.7C271.999 276.4 274.599 279.7 275.799 282.2C277.399 285.3 278.099 288.4 278.099 292.6C278.099 296.4 277.399 300 276.099 302.6C275.099 304.8 273.399 307.6 272.399 308.7C271.399 309.9 268.299 312.4 265.599 314.3C262.799 316.2 248.199 326.2 233.099 336.5C217.999 346.8 203.599 357.4 201.099 360C198.599 362.6 195.399 366.9 193.899 369.7C192.399 372.4 190.499 377.3 189.699 380.6C188.799 383.9 188.099 389.3 188.099 392.6C188.099 395.9 188.799 401.2 189.599 404.3C190.399 407.5 192.199 412.3 193.599 415.1L196.099 420.1C205.799 413.4 229.299 397.3 254.599 380C286.399 358.3 302.399 346.7 306.599 342.5C309.899 339.1 314.099 334 315.799 331C317.599 328 320.299 322.7 321.699 319.1C323.199 315.5 324.999 309 325.799 304.6C326.699 299.5 326.999 293.7 326.699 288.6C326.399 284.2 325.399 277.9 324.599 274.6C323.799 271.3 321.299 265 319.199 260.6C316.499 255.1 312.999 250.2 307.999 244.7C303.899 240.4 297.499 234.8 293.599 232.3C289.699 229.7 282.799 226.3 278.099 224.7C270.699 222.1 267.999 221.7 256.599 221.4C247.499 221.2 241.799 221.6 237.599 222.7Z" fill="#0059E3"/>
</svg>
