<svg width="1100" height="1100" viewBox="0 0 1100 1100" fill="none" xmlns="http://www.w3.org/2000/svg">
<path d="M615.018 293.5C615.018 333.9 615.318 367 615.818 367C616.218 367 621.218 369.6 627.018 372.8C632.818 376 639.518 379.8 642.018 381.2C644.518 382.6 658.918 390.7 674.018 399.2C689.118 407.7 703.818 415.9 706.518 417.4C709.318 419 725.918 428.3 743.518 438.2C761.118 448.2 789.918 464.4 807.518 474.3C825.118 484.2 846.518 496.3 855.018 501.1C863.518 506 870.818 510 871.318 510C871.718 510 872.018 477.3 872.018 437.2V364.5C860.018 357.6 853.618 354 850.018 352C846.418 349.9 838.818 345.6 833.018 342.3C827.218 339 820.718 335.3 818.518 334.1C816.318 332.8 806.218 327 796.018 321.3C785.818 315.5 767.418 305 755.018 298C742.618 291 730.518 284.2 728.018 282.8C725.518 281.5 721.718 279.3 719.518 278C717.318 276.8 702.718 268.4 687.018 259.5C671.318 250.6 649.218 238.1 637.718 231.6C626.318 225.2 616.518 220 616.018 220C615.318 220 615.018 243.7 615.018 293.5ZM97.0182 435.8C96.9182 493.3 97.2182 507.7 98.2182 508.6C98.9182 509.3 111.918 517.1 127.018 526C142.118 534.9 162.118 546.8 171.518 552.3C180.918 557.8 197.218 567.4 207.718 573.7C218.318 579.9 227.118 585 227.218 585C227.418 585 227.518 552 227.518 511.7L227.418 438.4C201.918 423.9 192.018 418.3 189.018 416.5C186.018 414.8 177.618 409.9 170.518 405.8C163.418 401.7 144.118 390.6 127.718 381.1C111.418 371.7 97.8182 364 97.5182 364C97.2182 364 97.0182 396.3 97.0182 435.7V435.8ZM474.418 447.5C468.918 450.3 461.618 454.3 458.018 456.2C454.418 458.2 449.718 460.8 447.518 462.1C445.318 463.4 439.918 466.3 435.518 468.6C431.118 470.9 424.618 474.5 421.018 476.6C417.418 478.7 412.918 481.3 411.018 482.4C409.118 483.5 406.118 485.1 404.518 485.9C402.918 486.7 397.918 489.5 393.518 492.1C389.118 494.7 381.918 498.7 377.518 501.1C373.118 503.4 366.618 507.2 363.118 509.5C359.518 511.7 356.418 513.5 356.118 513.4C355.818 513.3 355.718 612.3 356.018 733.4L356.518 953.5C386.718 971.5 415.618 988.8 440.318 1003.4C464.918 1018.1 485.318 1030.1 485.818 1030.1C486.218 1030.1 486.418 963.7 486.318 882.6C486.118 801.5 486.318 735.1 486.818 735.1C487.218 735.1 489.518 736.2 492.018 737.6C494.518 739 498.318 741.3 500.518 742.7C502.718 744 507.218 746.5 510.518 748.2C513.818 749.9 517.218 751.9 518.018 752.6C518.818 753.3 522.018 755.2 525.018 756.8C528.018 758.4 533.018 761.2 536.018 763C539.018 764.8 542.218 766.7 543.018 767.2C543.818 767.7 546.418 769.1 548.818 770.4C551.118 771.6 553.018 772.9 553.018 773.3C553.018 773.8 553.518 774.1 554.018 774.1C554.518 774.1 560.518 777.3 567.318 781.1C574.018 785 579.818 788.1 580.318 788.1C580.718 788.1 581.018 788.4 581.018 788.8C581.018 789.3 582.718 790.4 584.718 791.3C586.818 792.2 590.118 794 592.018 795.3C593.918 796.6 598.218 798.9 601.518 800.5C604.818 802.2 609.218 804.5 611.318 805.8L615.018 808.1C615.118 792.2 615.118 759.4 615.118 724.8C615.018 690.3 614.818 661.6 614.518 661.1C614.218 660.6 611.618 658.8 608.818 657.3C605.918 655.7 593.218 648.4 580.518 641.1C567.818 633.8 556.218 627 554.518 626.1C552.818 625.1 548.718 622.7 545.318 620.7C541.818 618.7 536.418 615.6 533.318 613.8C530.118 611.9 518.318 605.1 507.018 598.6C495.718 592.1 486.418 586.8 486.218 586.7C486.118 586.7 485.918 558.7 485.918 524.6C485.918 490.5 485.518 458 485.018 452.5L484.218 442.4L474.418 447.5Z" fill="#E55C29"/>
<path d="M610.418 221.3C608.218 222.5 604.118 224.7 601.418 226.1C598.718 227.6 580.718 237.7 561.518 248.5C542.218 259.4 522.918 270.3 518.518 272.8C514.118 275.3 499.718 283.4 486.518 290.8C473.318 298.3 456.218 307.9 448.518 312.3C440.818 316.7 432.918 321.1 431.018 322.2C429.118 323.3 418.318 329.4 407.018 335.7C395.718 342 381.518 350 375.518 353.5C369.418 356.9 359.518 362.5 353.518 366C347.418 369.5 340.518 373.4 338.018 374.8C335.518 376.2 327.018 381 319.018 385.5C311.018 390 290.518 401.6 273.518 411.2C256.418 420.9 239.018 430.7 234.818 433.1L227.018 437.5C227.018 551 227.318 584 227.718 584C228.218 584 230.518 582.9 233.018 581.7C235.518 580.4 240.618 577.7 244.518 575.6C248.318 573.5 253.518 570.5 256.018 569C258.518 567.5 264.718 564 269.718 561.1C274.818 558.3 279.118 556 279.218 556C279.418 556 284.018 553.5 289.518 550.4C295.018 547.3 307.418 540.4 317.018 535C326.618 529.7 336.318 524.3 338.518 523.1C340.718 521.8 344.718 519.6 347.518 518.2C350.218 516.8 352.718 515.2 353.018 514.8C353.318 514.3 354.218 513.9 355.118 513.7C355.918 513.6 359.518 511.6 363.118 509.4C366.618 507.1 373.118 503.3 377.518 501C381.918 498.6 389.118 494.6 393.518 492C397.918 489.4 402.818 486.6 404.518 485.8C406.118 485 409.118 483.4 411.018 482.3C412.918 481.2 417.418 478.6 421.018 476.5C424.618 474.4 431.118 470.8 435.518 468.5C439.918 466.2 445.218 463.3 447.218 462.1C449.318 461 452.718 459 454.718 457.9C456.818 456.7 464.318 452.7 471.518 449L484.518 442.3C485.718 463.4 486.018 495.4 486.018 527C486.018 558.6 486.018 585.1 486.018 585.7C486.018 586.4 486.718 587.2 487.518 587.5C488.418 587.8 488.818 587.5 488.518 586.7C488.218 586 490.418 584.2 494.218 582.1C497.718 580.2 500.718 578.4 501.018 578.1C501.318 577.8 502.418 577 503.518 576.3C504.618 575.7 516.118 569 529.018 561.4C541.918 553.9 555.418 546 559.018 544C562.618 541.9 570.418 537.4 576.518 534C582.518 530.5 589.518 526.6 592.018 525.2C594.518 523.8 600.318 520.3 605.018 517.3C609.718 514.4 613.918 511.9 614.318 511.7C614.718 511.6 615.118 446 615.118 366C615.118 253.8 615.418 220.3 616.318 219.8C617.118 219.2 617.118 219 616.018 219C615.218 219.1 612.718 220.1 610.418 221.3ZM992.518 294.4C987.518 297.3 977.018 303.5 969.018 308.2C961.018 312.9 943.918 322.8 931.018 330.2C918.118 337.6 901.018 347.5 893.018 352.2C885.018 356.9 877.018 361.4 875.218 362.4L872.018 364V511C876.318 507.8 877.718 507 878.018 507C878.318 507 890.918 500 906.018 491.4C921.118 482.8 937.118 473.7 941.518 471.2C945.918 468.8 958.918 461.3 970.518 454.8C982.018 448.2 993.918 441.3 996.818 439.6L1002.02 436.5C1002.02 322.2 1001.92 289 1001.72 289.1C1001.62 289.1 997.418 291.5 992.518 294.4ZM741.518 587.6C739.818 588.4 735.718 590.7 732.318 592.8C728.818 594.8 710.618 605.5 691.818 616.4C672.918 627.3 656.118 637.1 654.518 638C652.818 639 645.918 643 639.018 647.1C632.118 651.1 623.718 655.9 620.218 657.7C616.818 659.5 614.218 661.1 614.518 661.2C614.818 661.4 615.018 689.9 615.118 724.5C615.118 759.1 615.118 792.1 615.118 797.7L615.018 808C609.218 804.4 604.818 802.1 601.518 800.4C598.218 798.8 593.918 796.5 592.018 795.2C590.118 793.9 586.818 792.1 584.718 791.2C582.718 790.3 581.018 789.2 581.018 788.7C581.018 788.3 580.718 788 580.218 788C579.818 788 574.018 784.9 567.218 781C560.518 777.2 554.518 774 554.018 774C553.418 774 553.018 773.7 553.018 773.2C553.018 772.8 551.118 771.5 548.818 770.3C546.418 769 543.818 767.6 543.018 767.1C542.218 766.6 539.018 764.7 536.018 762.9C533.018 761.1 528.018 758.3 525.018 756.7C522.018 755.1 518.818 753.2 518.018 752.5C517.218 751.8 513.818 749.8 510.518 748.1C507.218 746.4 502.718 743.9 500.518 742.6C498.318 741.2 494.518 738.9 492.018 737.5C489.518 736.1 487.218 735 486.718 735C486.318 735 486.018 801.1 486.018 882C486.018 962.8 486.218 1029 486.518 1029C486.818 1029 488.718 1028.2 490.718 1027.2C492.818 1026.2 496.518 1024.2 499.018 1022.8C501.518 1021.4 510.218 1016.3 518.518 1011.5C526.718 1006.7 541.418 998.3 551.018 992.7C560.618 987.2 571.618 980.8 575.518 978.5C579.318 976.2 584.718 973 587.518 971.5C590.218 970 597.618 965.8 603.818 962.1L615.118 955.5C615.018 850.9 615.318 817.6 615.718 814.2L616.518 807.8C630.418 799.6 641.718 793.1 650.518 788C659.318 782.9 668.318 777.7 670.518 776.5C672.718 775.2 681.218 770.3 689.518 765.5C697.718 760.7 706.118 755.9 708.018 754.8C709.918 753.6 713.318 751.7 715.518 750.5C717.718 749.2 723.518 745.8 728.518 743C733.418 740.1 739.218 736.8 741.318 735.6L745.018 733.5C745.018 619.2 744.918 586 744.718 586C744.618 586.1 743.118 586.7 741.518 587.6Z" fill="#EB8D25"/>
<path d="M613.518 70.9C612.918 71.4 610.218 73 607.518 74.5C604.718 76.1 600.918 78.2 599.018 79.2C597.118 80.2 593.218 82.4 590.518 84.1C587.718 85.7 584.218 87.8 582.518 88.6C580.818 89.4 578.218 90.9 576.518 91.9C574.818 92.9 571.218 94.9 568.518 96.4C565.718 98 563.018 99.6 562.518 100C562.018 100.4 558.618 102.3 555.018 104.2C551.418 106.2 546.718 108.8 544.518 110C542.318 111.3 538.718 113.3 536.518 114.5C534.318 115.7 530.718 117.7 528.518 119C526.318 120.3 522.518 122.4 520.018 123.8C517.518 125.1 513.918 127.1 512.018 128.2C510.118 129.2 506.718 131.2 504.518 132.5C502.318 133.8 498.718 135.8 496.518 137C494.318 138.1 491.218 139.8 489.518 140.8C487.918 141.7 483.718 144.2 480.318 146.2C476.818 148.3 473.818 150 473.518 150C473.218 150 471.818 150.8 470.218 151.9C468.718 152.9 464.318 155.4 460.518 157.4C456.718 159.4 451.918 162 450.018 163.2C448.118 164.3 444.518 166.4 442.018 167.7C439.518 169 434.518 171.8 430.918 173.8C427.218 175.8 423.618 178 422.918 178.6C422.118 179.2 420.118 180.4 418.518 181.2C416.918 182 409.118 186.4 401.218 190.9C393.418 195.3 386.718 199 386.218 199C385.818 198.9 384.418 199.8 383.018 200.8C381.618 201.9 376.018 205.1 370.518 208C365.018 210.9 359.418 214 358.018 214.9C356.618 215.8 353.018 217.9 350.018 219.4C347.018 221 344.018 222.7 343.518 223.1C343.018 223.5 340.718 224.9 338.518 226.1C336.318 227.3 333.118 228.9 331.518 229.8C329.918 230.7 326.918 232.5 325.018 233.8C323.118 235.1 319.218 237.2 316.518 238.6C313.718 239.9 310.818 241.5 310.018 242C309.218 242.6 305.618 244.6 302.018 246.6C298.418 248.6 293.918 251.1 292.018 252.3C290.118 253.4 287.618 254.8 286.518 255.5C285.418 256.2 281.818 258.2 278.518 260C275.218 261.8 270.718 264.3 268.518 265.6C266.318 266.8 262.918 268.7 261.018 269.8C259.118 270.8 255.718 272.7 253.518 274C251.318 275.3 247.718 277.4 245.518 278.6C243.318 279.9 239.918 281.8 238.018 282.8C236.118 283.9 232.218 286 229.518 287.5C226.718 289 224.018 290.5 223.518 291C223.018 291.4 219.418 293.4 215.518 295.5C211.618 297.6 206.918 300.2 205.018 301.3C203.118 302.3 201.018 303.6 200.518 304C200.018 304.4 196.618 306.3 193.018 308.3C189.418 310.2 176.418 317.5 164.018 324.4C151.618 331.3 140.818 337.4 140.018 338C139.218 338.5 136.218 340.1 133.518 341.4C130.718 342.8 126.718 345.1 124.518 346.6C122.318 348 119.618 349.7 118.518 350.1C117.418 350.6 114.218 352.4 111.518 354C108.718 355.6 104.418 358.1 101.718 359.5C99.1176 360.9 97.0176 362.3 97.0176 362.7C97.0176 363.2 99.2176 364.7 101.818 366.1C104.418 367.5 114.118 373 123.518 378.4C132.918 383.9 142.118 389.2 144.018 390.3C145.918 391.4 153.118 395.5 160.018 399.5C166.918 403.4 174.018 407.5 175.918 408.6C177.718 409.6 182.018 412.1 185.418 414.1C188.718 416 196.618 420.6 202.818 424.3C208.918 428 214.218 431 214.518 431C214.818 431 217.618 432.5 220.818 434.4L226.518 437.8C238.918 430.8 256.518 420.9 273.518 411.2C290.518 401.6 311.018 390 319.018 385.5C327.018 381 335.518 376.2 338.018 374.8C340.518 373.4 347.518 369.5 353.518 366C359.518 362.5 369.518 356.9 375.518 353.5C381.518 350 395.718 342 407.018 335.7C418.318 329.4 429.118 323.3 431.018 322.2C432.918 321.1 440.818 316.7 448.518 312.3C456.218 307.9 473.318 298.3 486.518 290.8C499.718 283.4 514.118 275.3 518.518 272.8C522.918 270.3 543.218 258.9 563.518 247.5C583.818 236.1 602.518 225.6 605.018 224.1C607.518 222.6 610.818 220.8 612.518 220.1C615.318 218.9 616.118 219.2 627.018 225.3C633.318 228.8 645.018 235.5 653.018 240C661.018 244.6 670.418 249.9 674.018 252C677.618 254 695.118 263.9 713.018 274C730.918 284.1 748.418 294 752.018 296C755.618 298 760.318 300.7 762.518 301.9C764.718 303.2 769.418 305.9 773.018 308C776.618 310.1 781.218 312.7 783.318 313.9C785.318 315 788.718 317 790.818 318.1C792.818 319.3 797.918 322.2 802.018 324.5C806.118 326.8 818.518 333.7 829.518 340C840.518 346.2 854.618 354.1 860.818 357.6L872.018 364C877.018 361.4 885.018 356.9 893.018 352.2C901.018 347.5 918.118 337.6 931.018 330.2C943.918 322.8 961.018 312.9 969.018 308.2C977.018 303.5 987.418 297.4 992.318 294.6C997.118 291.8 1001.02 289.3 1001.02 289C1001.02 288.7 999.118 287.5 996.818 286.3C994.418 285 990.318 282.7 987.518 281C984.818 279.4 981.218 277.3 979.518 276.5C977.818 275.7 974.718 273.9 972.518 272.6C970.318 271.2 967.218 269.4 965.518 268.5C963.818 267.7 960.318 265.7 957.518 264.1C954.818 262.5 948.918 259.3 944.518 257C940.118 254.7 936.318 252.5 936.018 252.1C935.718 251.8 934.418 250.9 933.018 250.2C931.618 249.5 928.318 247.7 925.518 246.1C922.818 244.5 917.318 241.5 913.518 239.5C909.718 237.4 905.818 235.2 905.018 234.5C904.218 233.9 902.218 232.6 900.518 231.8C898.818 230.9 893.918 228.2 889.518 225.8C885.118 223.4 878.318 219.6 874.518 217.5C870.718 215.4 866.418 213 865.018 212.1C863.618 211.2 861.418 209.9 860.018 209.2C858.618 208.6 855.718 206.9 853.518 205.5C851.318 204.1 848.218 202.3 846.518 201.5C844.818 200.6 841.318 198.6 838.518 197C835.818 195.3 832.218 193.3 830.518 192.5C828.818 191.6 825.318 189.6 822.518 188C819.818 186.4 816.618 184.6 815.518 184.1C814.418 183.6 809.018 180.6 803.518 177.5C798.018 174.3 791.918 170.8 790.018 169.8C788.118 168.7 785.218 167.1 783.518 166.1C781.818 165.2 777.318 162.7 773.518 160.5C769.718 158.3 765.818 156.1 764.918 155.5C764.018 155 761.318 153.4 758.918 152.1C756.518 150.8 751.318 147.8 747.518 145.4C743.718 143 740.218 141 739.818 141C739.318 141 736.618 139.5 733.818 137.7C730.918 135.9 726.018 133 723.018 131.3C720.018 129.7 715.918 127.4 714.018 126.3C712.118 125.2 707.618 122.7 704.018 120.6C700.418 118.6 696.818 116.5 696.018 116C695.218 115.5 691.618 113.4 688.018 111.2C684.418 109.1 680.818 107.1 680.018 106.7C679.218 106.3 676.818 105 674.818 103.7C672.718 102.5 668.218 100 664.818 98.1C661.318 96.2 657.918 94.1 657.318 93.3C656.618 92.6 655.518 92 655.018 92C654.518 92 650.518 89.9 646.318 87.4C642.018 84.8 636.918 81.8 635.018 80.7C633.118 79.6 630.218 77.9 628.518 76.9C626.818 75.9 623.418 73.9 620.818 72.5C618.118 71.1 615.618 70 615.218 70C614.818 70 614.018 70.4 613.518 70.9ZM609.818 514.4C606.918 516.1 602.718 518.7 600.518 520.1C598.318 521.5 594.518 523.8 592.018 525.2C589.518 526.6 582.518 530.5 576.518 534C570.518 537.4 562.618 541.9 559.018 544C555.418 546 541.918 553.9 529.018 561.4C516.118 569 504.618 575.7 503.518 576.3C502.418 577 501.318 577.8 501.018 578.1C500.718 578.4 497.718 580.2 494.218 582.1C490.818 584 488.118 586 488.318 586.5C488.518 587 497.418 592.6 508.118 598.7C518.818 604.9 529.818 611.3 532.518 612.9C535.318 614.5 545.618 620.5 555.518 626.3C565.418 632 582.618 642 593.818 648.4C604.918 654.8 614.618 660 615.318 660C615.918 660 618.818 658.7 621.518 657.1C624.318 655.6 632.118 651 639.018 647C645.918 643 652.818 639 654.518 638C656.218 637.1 672.918 627.3 691.818 616.4C710.618 605.5 728.818 594.8 732.318 592.8C735.718 590.7 739.818 588.4 741.518 587.7L744.518 586.3C733.918 580.2 729.618 577.7 728.218 576.8C726.718 575.8 723.018 573.7 720.018 572C717.018 570.3 711.618 567.3 708.018 565.3C704.418 563.4 701.418 561.3 701.318 560.9C701.118 560.4 700.418 560 699.818 560C699.118 560 695.718 558.2 692.318 556C688.818 553.8 685.818 552 685.518 552C685.218 552 682.618 550.5 679.818 548.7C676.918 546.8 673.818 545 673.018 544.7C672.218 544.3 669.918 543 668.018 541.8C666.118 540.7 662.018 538.4 659.018 536.7C656.018 535.1 652.918 533.2 652.118 532.6C651.318 532 649.318 530.7 647.618 529.8C645.918 528.8 642.518 526.9 640.018 525.5C637.518 524.1 634.818 522.6 634.018 522.1C633.218 521.6 630.018 519.7 627.018 517.9C624.018 516.2 620.018 513.9 618.318 512.9C615.018 511.1 615.018 511.1 609.818 514.4Z" fill="#F4BE3B"/>
</svg>
