<svg width="642" height="602" viewBox="0 0 642 602" fill="none" xmlns="http://www.w3.org/2000/svg">
<path d="M65.2678 297.499C42.9388 280.568 23.6458 252.709 24.5878 215.036C25.6068 174.274 49.2568 167.73 76.6398 160.153C105.764 152.094 142.009 142.065 165.115 85.2805C183.122 41.0275 203.521 16.8565 225.745 13.4385C246.803 10.2015 260.953 26.9615 261.544 27.6755L255.915 32.3485C255.795 32.2045 243.72 18.0335 226.786 20.6805C207.582 23.6825 188.6 46.9745 171.891 88.0375C147.428 148.155 109.259 158.717 78.5898 167.203C51.9968 174.561 32.7838 179.877 31.8998 215.218C30.7408 261.552 62.7038 291.916 90.4268 303.839C117.613 315.531 144.543 312.79 160.71 296.686L165.873 301.869C147.544 320.128 117.528 323.458 87.5378 310.56C80.1918 307.401 72.5668 303.033 65.2678 297.499Z" fill="#B3B4B5"/>
<path d="M181.723 534.683C180.96 534.077 180.211 533.484 179.472 532.901C190.78 524.259 205.628 511.719 221.779 497.542C275.658 450.247 344.055 384.71 344.055 384.71L233.97 305.44L222.22 290.603C197.939 331.827 171.259 400.898 153.368 450.903C145.003 474.281 138.557 493.498 135.179 503.744C135.122 503.832 135.124 503.909 135.124 503.909L109.535 544.669L196 601.539C196 601.539 228.54 571.87 181.723 534.683Z" fill="#DEDEDF"/>
<path d="M167.871 423.074C167.871 423.074 201.876 444.721 245.016 477.771L256.783 466.628C256.783 466.628 222.266 439.526 173.851 407.017L167.871 423.074Z" fill="#79262E"/>
<path d="M311.875 322.941L185.511 227.122L164.115 267.379C148.627 313.808 120.665 338.167 94.1602 350.893L103.7 432.015C236.618 441.756 311.875 322.941 311.875 322.941Z" fill="white"/>
<path d="M47.888 363.85C47.679 363.844 47.555 363.885 47.555 363.885L4.386 362.97L0 466.367C0 466.367 41.374 478.798 49.794 421.421C68.687 427.414 86.666 430.767 103.701 432.016L94.161 350.894C76.809 359.223 60.081 362.571 47.888 363.85Z" fill="#6D6E6E"/>
<path d="M221.689 310.671L138.244 247.396C122.691 235.602 119.643 213.433 131.437 197.879L264.882 21.8965C276.92 6.02145 299.547 2.91042 315.422 14.9484L387.387 92.1544L221.689 310.671Z" fill="#DEDEDF"/>
<path d="M303.239 126.504L228.512 69.8396L222.617 77.6132L297.344 134.277L303.239 126.504Z" fill="#B3B4B5"/>
<path d="M236.106 215.037L161.379 158.373L155.484 166.147L230.211 222.811L236.106 215.037Z" fill="#B3B4B5"/>
<path d="M124.758 330.371C124.758 330.371 157.614 381.652 159.237 428.631L176.698 424.332C176.698 424.332 170.055 360.893 134.738 320.309L124.758 330.371Z" fill="#912B31"/>
<path d="M485.501 24.4975C418.125 -26.5925 362.021 18.0845 362.021 18.0845L356.646 14.0085C354.182 12.1405 350.67 12.6225 348.801 15.0865L310.745 65.2745L302.309 76.3995C299.222 80.4705 297.893 85.6085 298.62 90.6665L299.571 124.378C300.307 129.497 302.903 134.165 306.862 137.491L338.634 164.177C413.026 228.62 441.309 221.51 441.309 221.51C507.475 208.411 564.127 84.1185 485.501 24.4975Z" fill="white"/>
<path d="M506.1 114.418C501.051 126.888 492.358 140.488 480.514 156.108C461.958 180.579 382.534 177.72 335.749 86.2205L333.171 89.6195C326.921 97.8615 325.776 108.932 330.295 118.236C376.761 213.89 458.338 217.213 477.177 192.368C501.351 160.491 512.414 137.021 506.1 114.418Z" fill="#2F2E2E"/>
<path d="M480.515 156.108C492.36 140.487 501.052 126.888 506.101 114.418C501.612 98.3475 488.342 82.7155 464.733 64.8135C407.918 21.7315 355.233 60.5275 355.233 60.5275L335.75 86.2215C382.535 177.721 461.959 180.579 480.515 156.108Z" fill="#464648"/>
<path opacity="0.7" d="M404.256 59.5375C408.011 59.6615 411.765 59.7855 415.52 59.9095C423.89 60.1855 433.079 60.7905 439.129 66.5815C441.787 69.1255 443.612 73.2135 441.914 76.4765C440.93 78.3675 438.982 79.5525 437.032 80.4155C430.865 83.1445 423.699 83.5425 417.267 81.5125C415.114 80.8325 413.038 79.8915 410.83 79.4155C408.044 78.8145 405.161 78.9765 402.312 78.9045C396.01 78.7455 379.638 77.7285 380.779 68.2105C381.924 58.6655 397.526 59.3155 404.256 59.5375Z" fill="white"/>
<path d="M376.402 49.9794C376.402 49.9794 441.899 17.8964 501.186 97.6304C512.548 113.863 506.763 137.624 506.763 137.624C506.763 137.624 522.201 90.6174 472.078 52.7634C418.201 17.0744 383.601 44.6784 376.402 49.9794Z" fill="#8A8C8E"/>
<path d="M375.293 50.5265C375.293 50.5265 438.583 22.2685 497.87 102.002C509.231 118.234 507.088 136.058 507.088 136.058C507.088 136.058 518.885 94.9895 468.762 57.1365C414.886 21.4465 382.493 45.2265 375.293 50.5265Z" fill="#59595B"/>
<path d="M376.402 49.9795C376.402 49.9795 440.241 20.0825 499.529 99.8165C510.89 116.048 507.254 134.837 507.254 134.837C507.254 134.837 520.544 92.8025 470.422 54.9495C416.543 19.2605 383.601 44.6785 376.402 49.9795Z" fill="#DEDEDF"/>
<path d="M362.974 71.1244C371.959 69.8893 378.24 61.6049 377.005 52.6207C375.77 43.6365 367.486 37.3546 358.502 38.5898C349.517 39.8249 343.236 48.1093 344.471 57.0935C345.706 66.0777 353.99 72.3595 362.974 71.1244Z" fill="#6D6E6E"/>
<path d="M373.734 50.8805C372.928 48.2355 371.325 45.8075 368.953 44.0085C362.962 39.4655 354.424 40.6395 349.881 46.6305C348.083 49.0025 347.194 51.7735 347.132 54.5375C347.037 58.7555 348.884 62.9585 352.503 65.7025C358.494 70.2455 367.033 69.0715 371.575 63.0805C374.319 59.4615 374.964 54.9165 373.734 50.8805Z" fill="white"/>
<path opacity="0.2" d="M373.734 50.8805C373.671 53.6445 372.783 56.4155 370.985 58.7875C366.442 64.7785 357.904 65.9515 351.913 61.4095C349.541 59.6115 347.938 57.1835 347.132 54.5375C347.037 58.7555 348.884 62.9585 352.503 65.7025C358.494 70.2455 367.033 69.0715 371.575 63.0805C374.319 59.4615 374.964 54.9165 373.734 50.8805Z" fill="#2F2E2E"/>
<path d="M441.311 221.509C441.311 221.509 479.248 304.028 571.349 234.025L601.847 261.91C601.847 261.91 522.548 390.954 401.271 292.474L338.891 380.793L344.055 384.709L326.651 407.66L165.344 285.344L307.607 127.049L390.125 197.588L441.311 221.509Z" fill="white"/>
<path d="M304.729 110.455C304.729 110.455 182.936 107.612 132.668 276.057L176.77 309.499C176.77 309.499 218.502 211.378 275.962 188.397C281.679 186.11 286.754 182.466 290.884 177.899L324.112 141.158L304.729 110.455Z" fill="#C8C9CB"/>
<path d="M304.728 110.456C304.728 110.456 176.377 102.64 126.109 271.085L170.211 304.527C170.211 304.527 213.167 203.529 271.921 182.47C275.639 181.137 279.107 179.194 282.123 176.645L324.11 141.158L304.728 110.456Z" fill="white"/>
<path d="M441.309 221.509C441.309 221.509 378.35 215.441 332.695 148.497L327.742 155.028C327.742 155.028 364.444 223.006 446.239 229.393L441.309 221.509Z" fill="#C8C9CB"/>
<path d="M272.352 165.691C265.93 174.161 253.857 175.82 245.388 169.398C236.918 162.976 235.259 150.903 241.681 142.434C248.103 133.964 260.176 132.305 268.645 138.727C277.114 145.149 278.774 157.222 272.352 165.691Z" fill="#DEDEDF"/>
<path d="M273.126 157.001C274.76 148.09 268.86 139.542 259.949 137.908C251.038 136.275 242.49 142.174 240.856 151.085C239.223 159.996 245.122 168.545 254.033 170.178C262.945 171.811 271.493 165.912 273.126 157.001Z" fill="#76A39A"/>
<path d="M494.175 261.595L488.345 329.473C488.345 329.473 471.903 330.191 455.418 323.5C455.418 323.5 459.306 310.556 469.278 294.429C477.372 281.338 487.088 266.512 491.708 261.209C492.608 261.595 494.175 261.595 494.175 261.595Z" fill="#C8C9CB"/>
<path d="M588.181 279.829L558.586 242.995L566.574 237.552L596.857 269.111L588.181 279.829Z" fill="#C8C9CB"/>
<path opacity="0.2" d="M401.27 292.474L408.701 282.674C408.701 282.674 501.326 374.499 596.674 257.182L601.846 261.91C601.846 261.91 522.581 392.024 401.27 292.474Z" fill="#2F2E2E"/>
<path d="M218.976 224.035L168.715 183.166C168.715 183.166 178.54 168.521 187.816 160.612L223.214 219.026L218.976 224.035Z" fill="#C8C9CB"/>
<path d="M130.641 256.734L176.354 291.397L182.882 278.951L135.596 243.094L130.641 256.734Z" fill="#C8C9CB"/>
<path d="M344.284 373.657L196.215 261.378L190.819 268.494L338.889 380.772L344.284 373.657Z" fill="#C8C9CB"/>
<path d="M640.958 237.79L639.494 234.232C638.658 232.201 636.488 231.058 634.341 231.518L623.729 233.676L636.116 220.499C638.137 218.731 638.192 215.605 636.234 213.767L634.015 211.685C633.434 211.14 632.74 210.775 632.007 210.592C630.803 210.292 629.493 210.487 628.401 211.208L611.452 222.413L627.153 201.707C628.669 199.708 628.277 196.858 626.278 195.342L623.322 193.101C621.52 191.735 618.988 191.902 617.382 193.492L601.694 211.57L605.531 192.341C606.321 190.433 605.725 188.231 604.079 186.983C601.901 185.331 598.768 185.964 597.4 188.331L585.871 214.874L584.532 205.272C584.222 203.051 582.338 201.388 580.095 201.357L576.542 201.308C574.046 201.274 571.99 203.26 571.938 205.755L571.348 234.024L596.676 257.183L601.847 261.91L638.633 243.653C640.862 242.643 641.888 240.051 640.958 237.79Z" fill="#6D6E6E"/>
<path d="M126.111 271.084C126.111 271.084 99.8782 291.756 106.252 303.53C112.626 315.304 124.706 336.471 144.822 339.602C153.25 340.913 162.478 318.443 162.478 318.443C162.478 318.443 165.337 327.254 171.459 331.635C177.58 336.015 190.227 329.757 176.773 309.499L126.111 271.084Z" fill="#6D6E6E"/>
<path d="M296.444 201.639L291.281 197.725L223.953 286.515L229.115 290.43L296.444 201.639Z" fill="#C8C9CB"/>
<path d="M374.334 330.648L260.191 244.095L256.876 248.468L371.019 335.02L374.334 330.648Z" fill="#C8C9CB"/>
<path d="M308.105 280.431L303.996 277.315L269.621 322.648L273.73 325.764L308.105 280.431Z" fill="#C8C9CB"/>
<path d="M368.434 256.222L354.348 245.541L343.666 259.627L357.753 270.309L368.434 256.222Z" fill="#C8C9CB"/>
<path d="M393.622 275.319L379.535 264.637L354.293 297.925L368.38 308.607L393.622 275.319Z" fill="#C8C9CB"/>
<path d="M353.876 275.423L339.789 264.742L329.107 278.828L343.194 289.51L353.876 275.423Z" fill="#C8C9CB"/>
<path d="M321.935 258.18L299.46 241.137C297.576 239.709 297.207 237.024 298.636 235.14L311.356 218.365C312.784 216.481 315.469 216.112 317.353 217.541L339.828 234.584C341.712 236.012 342.081 238.697 340.652 240.581L327.932 257.356C326.504 259.24 323.819 259.609 321.935 258.18Z" fill="#C8C9CB"/>
<path d="M135.124 503.909L109.535 544.669L196 601.539C196 601.539 228.54 571.87 181.723 534.682C180.96 534.076 180.211 533.483 179.472 532.9C190.78 524.258 198.343 518.077 214.494 503.9L150.555 458.811C142.19 482.189 138.558 493.496 135.18 503.742C135.122 503.831 135.124 503.909 135.124 503.909Z" fill="#6D6E6E"/>
</svg>
