<svg width="349" height="132" viewBox="0 0 349 132" fill="none" xmlns="http://www.w3.org/2000/svg">
<g clip-path="url(#clip0_636_4)">
<path d="M-5 125V84H354V132C354 132 348.715 130.433 345.5 129C333.989 123.872 332.257 113.664 321 108C308.548 101.735 299.938 101.167 286 101C268.804 100.794 260.139 109.082 243 110.5C225.459 111.951 215.536 109.407 198 108C179.51 106.516 169.466 101.737 151 103.5C131.177 105.393 120.87 112.186 101 113.5C77.3276 115.065 51 103.5 40.5 108C30 112.5 28.3202 118.12 19 121.5C10.0958 124.729 2.33333 124.5 -5 125Z" fill="#9C624C" fill-opacity="0.56"/>
<mask id="mask0_636_4" style="mask-type:alpha" maskUnits="userSpaceOnUse" x="-6" y="0" width="361" height="103">
<path d="M11.7852 92.5C4.88683 92.7689 -5.71484 95 -5.71484 95V0H354.785L352.285 95C352.285 95 341.044 96.6711 333.785 97C321.277 97.5667 314.306 94.8942 301.785 95C285.893 95.1343 277.165 99.6514 261.285 99C250.056 98.5394 244.017 95.3884 232.785 95C217.872 94.4844 209.46 96.2969 194.785 99C189.286 100.013 186.345 102.597 180.785 102C175.737 101.458 173.627 98.5278 168.785 97C150.335 91.178 138.627 99.4304 119.285 99C100.48 98.5815 90.0937 94.7544 71.2852 95C60.1288 95.1457 53.9367 97.3581 42.7852 97C30.5583 96.6074 24.009 92.0236 11.7852 92.5Z" fill="#D9D9D9"/>
</mask>
<g mask="url(#mask0_636_4)">
<mask id="mask1_636_4" style="mask-type:luminance" maskUnits="userSpaceOnUse" x="-3" y="10" width="352" height="249">
<path d="M348.893 10.5H-2.17969V258.751H348.893V10.5Z" fill="white"/>
</mask>
<g mask="url(#mask1_636_4)">
<path opacity="0.5" d="M344.236 59.4511C341.382 59.6301 338.516 60.0801 335.828 61.0931C333.181 62.0901 330.665 63.2931 327.904 63.9781C323.362 65.1021 318.706 65.3891 314.041 65.0881C308.857 64.7521 303.725 63.9241 298.556 63.4341C293.167 62.9221 287.803 62.0921 282.574 60.6591C277.639 59.3081 272.716 57.6161 268.39 54.8331C264.446 52.2951 260.394 49.1251 255.476 49.0721C249.789 49.0111 244.763 51.6551 239.545 53.5401C234.524 55.3531 229.232 56.5441 223.932 57.1701C211.796 58.6071 199.545 58.8181 187.399 60.2771C181.032 61.0431 174.682 61.9641 168.366 63.0841C162.12 64.1921 155.932 65.6361 149.646 66.5071C137.368 68.2101 124.926 68.1381 112.558 68.2361C106.452 68.2851 100.284 68.7411 94.1844 68.4401C88.6614 68.1671 83.1944 67.3641 77.7404 66.4741C71.8904 65.5201 66.0294 64.4821 60.1074 64.0771C54.5374 63.6951 49.1074 64.0421 43.5714 64.6701C33.3854 65.8241 23.1574 66.9711 12.8924 67.0171C7.89141 67.0401 2.81041 66.8501 -2.18359 66.1621V185.817H348.889V59.3991C347.343 59.3551 345.791 59.3551 344.236 59.4511Z" fill="#E49D6E"/>
<path opacity="0.5" d="M346.764 67.7102C338.69 67.6472 330.597 66.7822 322.665 65.2792C318.801 64.5472 315.011 63.3861 311.137 62.7401C305.411 61.7811 299.65 61.8632 293.89 62.4432C288.324 63.0052 282.779 63.8542 277.184 64.1222C271.628 64.3882 266.144 64.0421 260.67 63.0451C249.9 61.0821 239.208 57.2072 228.14 57.4792C222.05 57.6292 216.228 59.3821 210.257 60.4061C204.339 61.4231 198.375 62.1732 192.392 62.6732C186.18 63.1932 179.953 63.4982 173.719 63.6252C167.528 63.7522 161.397 63.7992 155.242 63.0082C149.32 62.2462 143.481 60.9152 137.587 62.5192C132.696 63.8492 128.002 65.8852 122.865 66.0442C112.548 66.3632 102.517 62.9261 92.5894 60.6151C86.7584 59.2561 80.9684 58.8922 74.9924 58.8062C69.3124 58.7252 63.4244 58.9222 57.8864 57.4652C52.8334 56.1352 48.1814 53.8152 43.5544 51.4392C39.1164 49.1612 34.7764 46.7532 29.6744 46.5242C20.9654 46.1342 13.0884 50.5371 5.73541 54.6701C3.12241 56.1371 0.495406 57.6272 -2.18359 59.0102V185.817H348.889V67.7102C348.17 67.7152 347.457 67.7152 346.764 67.7102Z" fill="#B66651"/>
<path d="M326.564 72.2561C319.935 71.6611 313.226 69.2321 306.541 70.0491C302.47 70.5481 298.502 71.6291 294.448 72.2371C291.094 72.7411 287.627 72.7001 284.245 72.5531C272.842 72.0581 261.54 69.3111 250.091 69.8121C244.126 70.0741 238.329 71.3521 232.326 71.1541C226.751 70.9711 221.241 70.1701 215.726 69.3781C209.819 68.5311 203.85 67.7051 197.864 67.8691C191.443 68.0461 185.032 68.4381 178.627 68.9131C165.768 69.8671 152.962 70.8561 140.064 71.0231C127.863 71.1821 115.919 73.8971 103.775 74.7291C97.9304 75.1281 92.0154 75.1431 86.2214 74.1681C79.8634 73.1001 73.5854 71.9211 67.1434 71.4261C61.1234 70.9641 55.0844 70.8291 49.0504 70.9701C42.8394 71.1161 36.6274 71.7711 30.4154 71.7531C21.8284 71.7251 13.3344 70.5751 4.82741 69.5611C2.49041 69.6611 0.153406 69.7301 -2.18359 69.7551V185.817H348.888V73.5081C341.417 73.5341 333.898 72.9151 326.564 72.2561Z" fill="#E49D6E"/>
<g opacity="0.3">
<path d="M265.621 91.9243C262.085 91.9983 258.53 91.7883 255.05 91.1183C251.079 90.3553 247.164 89.1123 243.136 88.6803C239.579 88.2993 235.866 88.2753 232.349 89.0003C228.835 89.7253 225.506 91.0853 222.023 91.9343C222.731 91.8313 223.439 91.7293 224.15 91.6393C231.301 90.7313 238.199 90.7953 245.272 92.2313C249.152 93.0203 253.036 93.9893 256.985 94.3613C260.581 94.6993 264.133 94.4483 267.722 94.1313C274.187 93.5593 280.623 92.7263 287.061 91.9113C280 90.5013 272.772 91.7753 265.621 91.9243Z" fill="#B07054"/>
<path d="M155.221 93.4613C160.912 93.4613 166.658 92.9723 172.324 93.6813C174.521 93.9563 176.551 94.5143 178.666 95.1573C180.974 95.8573 183.409 96.5703 185.757 95.8763C177.478 91.4813 167.715 92.1413 158.618 92.1563C156.07 92.1603 153.526 91.8983 150.982 91.9253C148.207 91.9563 145.529 92.4693 142.874 93.2523C141.364 93.6973 139.868 94.1903 138.375 94.6823C138.819 94.5933 139.263 94.5053 139.706 94.4193C144.892 93.4223 149.956 93.4613 155.221 93.4613Z" fill="#B07054"/>
</g>
<path d="M3.27831 72.0813C6.68931 71.5953 10.0043 72.0263 13.4173 72.2493C20.6613 72.7233 28.1163 73.3543 35.3733 72.8623C39.2623 72.5993 43.0123 71.5603 46.8723 71.0723C46.9943 71.0563 47.1153 71.0463 47.2373 71.0303C41.6323 71.2433 36.0253 71.7703 30.4193 71.7543C21.8323 71.7263 13.3383 70.5763 4.83131 69.5623C2.49431 69.6623 0.157312 69.7313 -2.17969 69.7563V72.9403C-0.345688 72.7183 1.48431 72.3373 3.27831 72.0813Z" fill="#B07054"/>
<path d="M231.21 73.2272C234.405 73.7522 237.711 74.2622 240.961 74.0152C244.114 73.7752 247.254 73.1202 250.378 72.6352C256.043 71.7532 261.57 70.9442 267.291 71.8062C273.408 72.7262 279.377 73.8682 285.598 73.7022C291.254 73.5502 296.883 72.8122 302.499 72.1752C306.907 71.6742 311.312 70.8452 315.745 70.4872C312.679 69.9852 309.609 69.6762 306.544 70.0512C302.473 70.5502 298.505 71.6312 294.451 72.2392C291.097 72.7432 287.63 72.7022 284.248 72.5552C272.845 72.0602 261.543 69.3132 250.094 69.8142C244.129 70.0762 238.332 71.3542 232.329 71.1562C227.657 71.0032 223.03 70.4132 218.41 69.7622C222.629 71.0962 226.787 72.5032 231.21 73.2272Z" fill="#B07054"/>
<path d="M93.965 75.286C99.989 76.412 105.841 76.3541 111.929 75.8631C118.209 75.3551 124.459 74.575 130.728 73.961C137.058 73.339 143.362 73.113 149.718 72.913C156.035 72.713 162.362 72.4201 168.644 71.6991C175.067 70.9611 181.44 69.822 187.819 68.773C189.218 68.544 190.622 68.315 192.025 68.092C187.556 68.299 183.09 68.5851 178.629 68.9151C165.77 69.8691 152.964 70.858 140.066 71.025C127.865 71.184 115.921 73.899 103.777 74.731C99.713 75.01 95.613 75.0901 91.543 74.7921C92.348 74.9671 93.155 75.135 93.965 75.286Z" fill="#B07054"/>
<g opacity="0.5">
<path opacity="0.5" d="M37.5581 88.1242C34.8811 87.8042 32.1291 87.7922 29.5371 87.0432C27.0991 86.3382 24.1811 86.9382 21.6701 87.0102C21.2781 87.0202 20.7851 87.8332 21.3471 87.8502C24.1251 87.9322 26.9971 87.8492 29.6551 88.6692C32.0471 89.4082 34.8891 88.8792 37.3131 88.6172C37.4851 88.5972 37.8411 88.1582 37.5581 88.1242Z" fill="#996148"/>
<path opacity="0.5" d="M51.8699 93.317C50.0219 93.029 48.0989 93.181 46.2299 93.017C44.3529 92.854 42.7509 93.034 40.9259 93.477C40.5929 93.558 40.3019 94.261 40.8269 94.15C44.4379 93.39 47.9359 94.431 51.5609 93.941C51.7679 93.912 52.2389 93.373 51.8699 93.317Z" fill="#996148"/>
<path opacity="0.5" d="M103.861 88.232C97.788 86.879 91.446 87.8751 85.311 87.1881C79.72 86.5621 74.352 87.5571 68.755 87.5871C68.425 87.5901 67.933 88.3621 68.354 88.3931C73.731 88.7781 79.028 87.6961 84.351 88.7501C87.423 89.3601 90.698 88.9551 93.812 89.1751C96.999 89.4021 100.392 89.4 103.535 88.885C103.747 88.851 104.255 88.319 103.861 88.232Z" fill="#996148"/>
<path opacity="0.5" d="M114.448 95.2C112.506 94.937 110.551 95.231 108.592 94.921C106.741 94.628 104.648 95.146 102.843 94.8C102.523 94.737 102.07 95.378 102.439 95.457C103.199 95.624 103.722 95.562 104.511 95.461C105.314 95.354 106.555 95.673 107.433 95.707C109.693 95.794 111.873 96.13 114.141 95.814C114.347 95.784 114.809 95.248 114.448 95.2Z" fill="#996148"/>
<path opacity="0.5" d="M158.249 92.2032C155.956 92.5132 153.541 92.8242 151.226 92.4762C148.927 92.1312 146.486 92.6682 144.156 92.6022C143.725 92.5922 143.099 93.5902 143.64 93.6392C146.184 93.8742 148.712 94.1572 151.263 94.1642C153.726 94.1722 155.934 94.0672 158.136 92.9762C158.349 92.8712 158.764 92.1352 158.249 92.2032Z" fill="#996148"/>
<path opacity="0.5" d="M300.954 98.684C297.175 98.566 293.39 98.554 289.609 98.553C286.009 98.55 282.786 99.412 279.29 100.057C277.895 100.314 276.311 99.714 274.848 99.906C273.502 100.083 272.026 100.153 270.723 100.525C266.575 101.71 261.283 102.169 256.992 101.494C256.606 101.432 256.07 102.206 256.508 102.283C263.543 103.529 270.371 101.55 277.346 101.755C280.889 101.859 284.21 100.03 287.759 99.802C292.027 99.527 296.334 99.714 300.608 99.586C301.029 99.574 301.556 98.703 300.954 98.684Z" fill="#996148"/>
<path opacity="0.5" d="M341.797 99.2471C334.753 100.089 327.517 99.4471 320.563 100.841C320.094 100.934 319.435 102.038 320.143 101.936C327.037 100.935 334.792 102.454 341.463 100.492C341.904 100.363 342.615 99.1491 341.797 99.2471Z" fill="#996148"/>
<path opacity="0.5" d="M224.984 85.872C222.486 85.158 219.994 84.675 217.382 84.55C216.155 84.49 214.796 84.921 213.578 85.05C211.66 85.25 209.624 84.898 207.737 84.65C205.142 84.312 202.544 83.783 199.926 83.706C199.239 83.685 197.644 84.457 197.036 84.693C195.104 85.446 192.92 85.398 190.87 85.434C190.464 85.44 189.969 86.288 190.54 86.295C193.321 86.327 195.607 86.2 198.229 85.326C200.94 84.423 205.39 86.008 208.163 86.398C210.616 86.741 213.032 86.794 215.468 86.312C218.363 85.738 221.533 86.882 224.488 86.867C224.876 86.865 225.531 86.028 224.984 85.872Z" fill="#996148"/>
<path opacity="0.5" d="M295.467 83.051C287.546 83.017 279.263 83.22 271.366 82.16C268.044 81.715 264.319 83.177 261.088 83.689C257.023 84.335 253.189 85.019 249.042 85.168C248.625 85.183 248.11 86.0621 248.7 86.0611C252.275 86.0471 255.653 85.8561 259.16 85.2341C262.923 84.5671 267.487 83.284 271.312 83.812C279.205 84.905 287.367 84.266 295.23 83.67C295.51 83.649 295.883 83.054 295.467 83.051Z" fill="#996148"/>
<path opacity="0.5" d="M327.597 84.1561C325.963 84.0951 324.314 84.188 322.68 84.218C322.31 84.226 321.853 84.999 322.377 85.01C323.996 85.04 325.629 85.1311 327.245 85.0701C327.668 85.0541 328.207 84.1811 327.597 84.1561Z" fill="#996148"/>
</g>
<path opacity="0.5" d="M332.181 95.1802C326.292 96.7912 320.453 98.7952 314.408 99.7512C308.487 100.688 302.471 100.44 296.501 100.41C290.205 100.378 284.056 100.964 277.823 101.796C269.61 102.893 261.443 104.328 253.229 105.391C264.689 104.748 276.208 103.908 287.477 106.218C291.332 107.008 295.12 108.035 299.008 108.687C303.113 109.375 307.241 109.896 311.374 110.373C318.985 111.252 326.613 112.058 334.107 113.694C334.446 113.769 334.48 114.244 334.2 114.409C328.274 117.905 321.46 119.932 314.793 121.461C311.681 122.175 308.534 122.798 305.365 123.278C317.001 122.91 328.636 122.192 340.264 123.072C340.585 123.096 340.807 123.49 340.541 123.739C338.728 125.436 336.499 126.349 334.284 127.398C331.75 128.597 329.611 130.156 327.452 131.933C323.577 135.122 319.771 136.953 314.722 137.513C311.687 137.849 308.637 137.888 305.592 138.087C302.189 138.311 299.041 138.94 295.78 139.924C292.264 140.984 288.777 142.141 285.257 143.185C293.801 142.018 302.524 141.358 311.016 142.654C311.469 142.724 311.333 143.406 310.912 143.424C301.659 143.792 292.207 145.555 283.729 149.38C279.996 151.065 276.603 153.53 272.708 154.842C269.428 155.944 266.027 156.334 262.586 156.519C257.703 156.78 252.962 156.513 248.092 156.117C246.831 156.013 245.556 155.915 244.278 155.838C244.217 155.913 244.121 155.959 243.988 155.946C239.273 155.506 234.688 156.594 230.074 157.413C227.753 157.826 225.466 158.101 223.168 158.191C217.688 158.78 212.166 158.58 206.873 156.769C205.853 156.72 204.831 156.708 203.807 156.76C199.171 156.993 194.685 158.061 190.152 158.976C187.399 159.532 184.61 160.056 181.8 160.207C178.893 160.363 175.979 160.235 173.068 160.356C166.849 160.616 160.655 161.226 154.468 161.865C141.989 163.157 129.674 164.18 117.137 163.155C93.6084 161.232 69.8184 159.318 47.0264 152.803C46.6604 152.699 46.6454 152.144 47.0264 152.048C73.8184 145.295 101.346 142.499 128.751 139.484C121.945 138.792 115.087 139.174 108.276 139.763C104.304 140.106 100.337 140.509 96.3584 140.77C92.6984 141.01 89.0014 140.877 85.3504 141.195C81.6304 141.521 77.9704 142.308 74.2524 142.629C70.8544 142.924 67.6594 142.632 64.3054 142.115C57.0604 141.001 49.8394 139.694 42.7214 137.931C42.3624 137.842 42.3324 137.246 42.7214 137.175C49.7354 135.923 56.1064 132.398 63.1814 131.385C69.7004 130.453 76.1994 130.775 82.7384 130.595C76.1474 128.82 69.0344 128.958 62.3064 129.587C58.3854 129.956 54.4804 130.506 50.6094 131.231C46.5674 131.987 42.6414 133.144 38.6324 134.039C34.3464 134.998 29.9534 135.741 25.5454 135.644C21.1994 135.549 16.9024 134.904 12.6274 134.156C7.85241 133.321 3.08741 132.423 -1.74959 132.013C-1.89459 132 -2.03859 131.987 -2.18359 131.973V185.817H348.888V91.5032C343.282 92.4162 337.655 93.6822 332.181 95.1802Z" fill="#B07054"/>
<path opacity="0.4" d="M40.2914 92.5293C50.8884 92.7233 60.9074 87.9233 71.4734 87.4703C81.2644 87.0513 91.1314 88.6413 100.85 87.2073C91.5784 86.3943 82.2484 85.2143 72.9604 86.2843C68.0114 86.8553 63.1204 87.8163 58.1794 88.4483C53.4594 89.0503 49.0984 89.0543 44.4244 88.1253C41.9224 87.6263 39.4324 87.0263 36.9054 86.6573C34.3844 86.2913 31.9554 86.3373 29.4224 86.3003C25.2344 86.2373 21.0994 85.5763 16.9924 84.7933C10.7054 83.5963 4.21041 82.1233 -2.18359 82.4663V90.8673C1.56941 90.4223 5.32541 89.9773 9.09141 89.8313C19.5834 89.4293 29.8244 92.3383 40.2914 92.5293Z" fill="#B07054"/>
<path d="M293.774 90.4002C296.984 89.9032 300.22 89.5942 303.446 89.1972C305.318 88.9662 307.18 88.6572 309.053 88.4312C309.196 86.1962 309.388 83.9632 309.4 81.7262C309.29 81.6152 309.177 81.5072 309.067 81.4032C305.871 79.8352 302.558 78.5182 299.233 77.2282C299.167 77.2072 299.101 77.1892 299.034 77.1692C298.878 77.1922 298.721 77.2152 298.565 77.2352C296.528 77.4992 294.483 77.6912 292.471 78.0892C291.905 78.6442 291.345 79.2012 290.782 79.7192C288.486 81.8402 286.11 83.8922 284.064 86.2602C283.898 87.0272 283.764 87.8022 283.645 88.5752C286.007 89.1732 288.412 89.5662 290.834 89.9112C291.827 90.0562 292.802 90.2112 293.774 90.4002Z" fill="#E49D6E"/>
<path d="M289.955 81.8242C291.27 80.5812 292.509 79.0102 294.28 78.4122C296.001 77.8322 297.798 77.5342 299.62 77.3792C299.49 77.3292 299.363 77.2782 299.233 77.2282C299.167 77.2072 299.101 77.1892 299.034 77.1692C298.878 77.1922 298.721 77.2152 298.565 77.2352C296.528 77.4992 294.483 77.6912 292.471 78.0892C291.905 78.6442 291.345 79.2012 290.782 79.7192C288.604 81.7292 286.362 83.6802 284.391 85.8932C286.298 84.6162 288.293 83.3972 289.955 81.8242Z" fill="#E49D6E"/>
<path opacity="0.5" d="M309.065 81.4032C306.103 79.9512 303.04 78.7142 299.961 77.5142C299.767 78.4812 299.624 79.4632 299.422 80.4152C299.09 81.9812 298.657 83.9062 297.375 85.0042C296.714 85.5692 296.035 85.8261 295.195 86.0191C293.59 86.3861 292.001 86.8122 290.402 87.2012C288.388 87.6902 286.093 87.9502 284.078 88.6792C286.3 89.2152 288.557 89.5901 290.833 89.9131C291.826 90.0571 292.801 90.2122 293.773 90.4012C296.983 89.9042 300.219 89.5952 303.445 89.1982C305.317 88.9672 307.179 88.6582 309.052 88.4322C309.195 86.1972 309.387 83.9642 309.399 81.7272C309.288 81.6152 309.175 81.5072 309.065 81.4032Z" fill="#E49D6E"/>
<path opacity="0.5" d="M309.051 88.4312C309.18 86.5552 309.388 83.6032 309.398 81.7262C309.288 81.6152 309.175 81.5072 309.065 81.4032C306.103 79.9512 303.04 78.7142 299.961 77.5142C299.767 78.4812 299.624 79.4632 299.422 80.4152C299.121 81.8282 298.733 83.5282 297.719 84.6532C300.09 85.1792 307.619 88.0782 309.051 88.4312Z" fill="#E49D6E"/>
<path d="M302.82 104.571C303.687 104.437 304.564 104.353 305.436 104.245C305.944 104.184 306.448 104.099 306.954 104.037C306.993 103.433 307.045 102.83 307.049 102.224C307.018 102.193 306.988 102.163 306.958 102.137C306.093 101.712 305.195 101.356 304.295 101.006C304.278 101.002 304.259 100.997 304.241 100.99C304.199 100.996 304.157 101.002 304.115 101.009C303.563 101.081 303.01 101.133 302.465 101.239C302.311 101.389 302.16 101.541 302.009 101.681C301.386 102.254 300.744 102.811 300.191 103.45C300.145 103.658 300.11 103.869 300.078 104.078C300.717 104.239 301.368 104.346 302.023 104.439C302.292 104.48 302.556 104.521 302.82 104.571Z" fill="#FAAE71"/>
<path d="M301.511 102.497C301.928 102.092 302.322 101.681 302.855 101.431C303.191 101.273 303.539 101.146 303.891 101.038C303.414 101.096 302.936 101.148 302.465 101.241C302.311 101.391 302.16 101.543 302.009 101.683C301.386 102.256 300.744 102.813 300.191 103.452C300.187 103.466 300.186 103.478 300.184 103.491C300.613 103.141 301.11 102.887 301.511 102.497Z" fill="#E49D6E"/>
<path opacity="0.5" d="M306.957 102.138C306.155 101.743 305.327 101.409 304.493 101.084C304.441 101.346 304.403 101.612 304.347 101.87C304.257 102.293 304.14 102.815 303.794 103.111C303.615 103.264 303.431 103.334 303.204 103.385C302.77 103.486 302.339 103.601 301.906 103.706C301.362 103.839 300.74 103.91 300.195 104.105C300.796 104.252 301.407 104.353 302.023 104.44C302.292 104.48 302.556 104.521 302.82 104.571C303.687 104.437 304.564 104.353 305.436 104.245C305.944 104.184 306.448 104.099 306.954 104.037C306.993 103.433 307.045 102.83 307.049 102.224C307.017 102.195 306.987 102.165 306.957 102.138Z" fill="#C0855E"/>
<path opacity="0.5" d="M306.954 104.038C306.989 103.532 307.046 102.733 307.049 102.225C307.018 102.194 306.988 102.164 306.958 102.138C306.156 101.743 305.328 101.409 304.494 101.084C304.442 101.346 304.404 101.612 304.348 101.87C304.267 102.252 304.161 102.712 303.887 103.017C304.529 103.159 306.566 103.943 306.954 104.038Z" fill="#C0855E"/>
<path d="M313.103 89.6921C313.712 89.5991 314.326 89.5391 314.939 89.4651C315.292 89.4221 315.646 89.3621 316.002 89.3201C316.029 88.8961 316.065 88.4731 316.067 88.0471C316.046 88.0271 316.025 88.0071 316.004 87.9871C315.397 87.6891 314.768 87.4401 314.139 87.1951C314.126 87.1911 314.114 87.1871 314.101 87.1831C314.072 87.1871 314.041 87.1921 314.012 87.1971C313.625 87.2461 313.238 87.2831 312.857 87.3581C312.75 87.4621 312.644 87.5701 312.538 87.6681C312.1 88.0701 311.65 88.4581 311.263 88.9081C311.232 89.0531 311.205 89.2001 311.184 89.3461C311.632 89.4591 312.087 89.5351 312.547 89.6001C312.734 89.6281 312.919 89.6571 313.103 89.6921Z" fill="#FAAE71"/>
<path d="M312.187 88.2381C312.48 87.9551 312.755 87.6681 313.128 87.4921C313.364 87.3811 313.607 87.292 313.854 87.217C313.521 87.257 313.186 87.2941 312.856 87.3591C312.749 87.4631 312.643 87.5711 312.537 87.6691C312.099 88.0711 311.649 88.459 311.262 88.909C311.26 88.918 311.259 88.928 311.258 88.935C311.557 88.689 311.907 88.5121 312.187 88.2381Z" fill="#E49D6E"/>
<path opacity="0.5" d="M316.003 87.987C315.441 87.711 314.86 87.477 314.277 87.249C314.24 87.432 314.213 87.619 314.175 87.799C314.11 88.095 314.028 88.461 313.785 88.669C313.66 88.776 313.532 88.825 313.372 88.862C313.067 88.932 312.767 89.011 312.462 89.086C312.081 89.178 311.646 89.227 311.262 89.365C311.685 89.469 312.112 89.538 312.544 89.599C312.733 89.626 312.917 89.656 313.101 89.691C313.71 89.598 314.324 89.538 314.937 89.464C315.29 89.421 315.644 89.361 316 89.319C316.027 88.895 316.063 88.472 316.065 88.046C316.046 88.027 316.024 88.007 316.003 87.987Z" fill="#C0855E"/>
<path opacity="0.5" d="M316.003 89.32C316.028 88.965 316.066 88.405 316.068 88.047C316.047 88.027 316.026 88.007 316.005 87.987C315.443 87.711 314.862 87.477 314.279 87.249C314.242 87.432 314.215 87.619 314.177 87.799C314.118 88.066 314.045 88.389 313.852 88.603C314.303 88.703 315.731 89.252 316.003 89.32Z" fill="#C0855E"/>
<path d="M306.526 89.3293C307.134 89.2353 307.748 89.1763 308.36 89.1013C308.716 89.0573 309.069 88.9973 309.423 88.9563C309.45 88.5313 309.488 88.1093 309.489 87.6843C309.468 87.6643 309.446 87.6433 309.426 87.6233C308.819 87.3273 308.191 87.0763 307.56 86.8313C307.548 86.8283 307.535 86.8233 307.522 86.8203C307.494 86.8253 307.464 86.8283 307.434 86.8323C307.048 86.8823 306.66 86.9193 306.278 86.9953C306.171 87.1003 306.066 87.2053 305.959 87.3043C305.523 87.7073 305.072 88.0953 304.684 88.5453C304.654 88.6903 304.627 88.8373 304.605 88.9843C305.053 89.0973 305.51 89.1723 305.969 89.2383C306.157 89.2643 306.341 89.2953 306.526 89.3293Z" fill="#FAAE71"/>
<path d="M305.611 87.8763C305.902 87.5923 306.177 87.3053 306.552 87.1283C306.788 87.0183 307.031 86.9283 307.279 86.8533C306.943 86.8943 306.609 86.9313 306.278 86.9963C306.171 87.1013 306.066 87.2063 305.959 87.3053C305.523 87.7083 305.072 88.0963 304.684 88.5463C304.684 88.5533 304.682 88.5633 304.68 88.5713C304.98 88.3263 305.329 88.1483 305.611 87.8763Z" fill="#E49D6E"/>
<path opacity="0.5" d="M309.426 87.6242C308.864 87.3492 308.283 87.1132 307.699 86.8872C307.663 87.0712 307.637 87.2572 307.598 87.4382C307.535 87.7352 307.452 88.1002 307.208 88.3062C307.083 88.4132 306.954 88.4632 306.794 88.4992C306.49 88.5692 306.19 88.6502 305.887 88.7232C305.503 88.8172 305.069 88.8662 304.688 89.0032C305.109 89.1062 305.536 89.1752 305.968 89.2382C306.157 89.2642 306.341 89.2952 306.526 89.3292C307.134 89.2352 307.748 89.1762 308.36 89.1012C308.716 89.0572 309.069 88.9972 309.423 88.9562C309.45 88.5312 309.489 88.1092 309.49 87.6842C309.468 87.6652 309.446 87.6442 309.426 87.6242Z" fill="#C0855E"/>
<path opacity="0.5" d="M309.422 88.9572C309.447 88.6012 309.487 88.0412 309.488 87.6852C309.467 87.6652 309.445 87.6442 309.425 87.6242C308.863 87.3492 308.282 87.1132 307.698 86.8872C307.662 87.0712 307.635 87.2572 307.596 87.4382C307.539 87.7062 307.465 88.0282 307.273 88.2412C307.723 88.3392 309.152 88.8882 309.422 88.9572Z" fill="#C0855E"/>
<path d="M271.832 92.7271C273.298 92.4991 274.775 92.3581 276.25 92.1771C277.105 92.0731 277.955 91.9291 278.81 91.8281C278.877 90.8071 278.964 89.7871 278.97 88.7651C278.919 88.7161 278.868 88.6651 278.818 88.6181C277.358 87.9041 275.843 87.3011 274.326 86.7111C274.296 86.7031 274.264 86.6931 274.234 86.6841C274.164 86.6951 274.093 86.7051 274.02 86.7141C273.091 86.8351 272.157 86.9221 271.238 87.1041C270.979 87.3581 270.722 87.6131 270.466 87.8491C269.418 88.8191 268.332 89.7551 267.397 90.8361C267.323 91.1881 267.261 91.5411 267.207 91.8941C268.285 92.1661 269.384 92.3491 270.49 92.5041C270.944 92.5691 271.389 92.6391 271.832 92.7271Z" fill="#FAAE71"/>
<path d="M269.629 89.224C270.331 88.542 270.996 87.848 271.896 87.425C272.463 87.157 273.05 86.943 273.645 86.761C272.84 86.858 272.033 86.948 271.239 87.103C270.98 87.357 270.723 87.612 270.467 87.848C269.419 88.818 268.333 89.754 267.398 90.835C267.394 90.856 267.391 90.877 267.387 90.899C268.109 90.31 268.951 89.882 269.629 89.224Z" fill="#E49D6E"/>
<path opacity="0.5" d="M278.819 88.6171C277.466 87.9541 276.066 87.3891 274.66 86.8411C274.571 87.2831 274.507 87.7331 274.414 88.1671C274.263 88.8821 274.064 89.7611 273.479 90.2611C273.177 90.5201 272.868 90.6391 272.483 90.7241C271.75 90.8941 271.025 91.0891 270.294 91.2661C269.374 91.4901 268.326 91.6081 267.406 91.9401C268.421 92.1861 269.451 92.3581 270.491 92.5041C270.945 92.5701 271.39 92.6401 271.833 92.7271C273.299 92.4991 274.776 92.3581 276.251 92.1771C277.106 92.0731 277.956 91.9291 278.811 91.8281C278.878 90.8071 278.965 89.7871 278.971 88.7651C278.92 88.7151 278.869 88.6651 278.819 88.6171Z" fill="#C0855E"/>
<path opacity="0.5" d="M278.811 91.8271C278.87 90.9711 278.965 89.6221 278.971 88.7641C278.92 88.7151 278.869 88.6641 278.819 88.6171C277.466 87.9541 276.066 87.3891 274.66 86.8411C274.571 87.2831 274.507 87.7331 274.414 88.1671C274.277 88.8121 274.099 89.5891 273.637 90.1031C274.719 90.3431 278.158 91.6641 278.811 91.8271Z" fill="#C0855E"/>
<path d="M175.493 85.5901C178.702 85.0931 181.94 84.7841 185.165 84.3871C187.036 84.1561 188.898 83.8471 190.772 83.6211C190.916 81.3861 191.106 79.1531 191.119 76.9161C191.008 76.8051 190.896 76.6971 190.785 76.5931C187.59 75.0251 184.276 73.7081 180.952 72.4181C180.885 72.3981 180.819 72.3791 180.753 72.3591C180.595 72.3831 180.439 72.4051 180.284 72.4261C178.246 72.6901 176.201 72.8831 174.189 73.2801C173.623 73.8351 173.064 74.3911 172.501 74.9101C170.204 77.0311 167.828 79.0841 165.782 81.4501C165.616 82.2171 165.484 82.9921 165.363 83.7661C167.725 84.3631 170.13 84.7571 172.552 85.1021C173.547 85.2461 174.522 85.4001 175.493 85.5901Z" fill="#E49D6E"/>
<path d="M171.676 77.0141C172.99 75.7701 174.23 74.1991 176.002 73.6011C177.721 73.0211 179.518 72.7231 181.341 72.5691C181.212 72.5191 181.083 72.4681 180.955 72.4181C180.888 72.3981 180.822 72.3791 180.756 72.3591C180.598 72.3831 180.442 72.4051 180.287 72.4261C178.249 72.6901 176.204 72.8831 174.192 73.2801C173.626 73.8351 173.067 74.3911 172.504 74.9101C170.325 76.9211 168.083 78.8721 166.113 81.0841C168.02 79.8061 170.012 78.5871 171.676 77.0141Z" fill="#E49D6E"/>
<path opacity="0.5" d="M190.785 76.5931C187.824 75.1411 184.76 73.9041 181.681 72.7041C181.487 73.6721 181.345 74.6531 181.143 75.6051C180.811 77.1721 180.377 79.0961 179.097 80.1931C178.435 80.7581 177.757 81.0171 176.916 81.2091C175.311 81.5761 173.721 82.0031 172.122 82.3911C170.108 82.8801 167.812 83.1401 165.797 83.8671C168.021 84.4051 170.278 84.7791 172.553 85.1031C173.546 85.2471 174.522 85.4011 175.493 85.5901C178.702 85.0931 181.94 84.7841 185.165 84.3871C187.036 84.1561 188.898 83.8471 190.772 83.6211C190.916 81.3861 191.106 79.1531 191.119 76.9161C191.008 76.8051 190.896 76.6971 190.785 76.5931Z" fill="#E49D6E"/>
<path opacity="0.5" d="M190.773 83.6211C190.901 81.7461 191.11 78.7931 191.12 76.9161C191.009 76.8051 190.897 76.6971 190.786 76.5931C187.825 75.1411 184.761 73.9041 181.682 72.7041C181.488 73.6721 181.346 74.6531 181.144 75.6051C180.843 77.0191 180.455 78.7191 179.441 79.8441C181.812 80.3691 189.34 83.2681 190.773 83.6211Z" fill="#E49D6E"/>
<path d="M184.536 99.7622C185.404 99.6272 186.28 99.5432 187.154 99.4362C187.66 99.3732 188.164 99.2902 188.672 99.2282C188.71 98.6242 188.763 98.0192 188.766 97.4132C188.736 97.3852 188.705 97.3532 188.676 97.3262C187.81 96.9022 186.914 96.5452 186.013 96.1962C185.996 96.1902 185.978 96.1852 185.959 96.1792C185.917 96.1862 185.877 96.1932 185.834 96.1972C185.282 96.2692 184.729 96.3212 184.184 96.4282C184.03 96.5802 183.88 96.7292 183.728 96.8702C183.105 97.4442 182.463 97.9992 181.909 98.6402C181.864 98.8482 181.829 99.0572 181.797 99.2672C182.435 99.4292 183.087 99.5352 183.741 99.6292C184.008 99.6692 184.273 99.7122 184.536 99.7622Z" fill="#FAAE71"/>
<path d="M183.229 97.6863C183.647 97.2833 184.041 96.8723 184.573 96.6203C184.91 96.4613 185.257 96.3343 185.609 96.2273C185.132 96.2853 184.655 96.3373 184.183 96.4293C184.029 96.5813 183.879 96.7303 183.727 96.8713C183.104 97.4453 182.462 98.0003 181.908 98.6413C181.905 98.6543 181.905 98.6673 181.902 98.6793C182.331 98.3293 182.828 98.0763 183.229 97.6863Z" fill="#E49D6E"/>
<path opacity="0.5" d="M188.676 97.3271C187.875 96.9331 187.045 96.5991 186.213 96.2751C186.159 96.5371 186.121 96.8022 186.066 97.0592C185.977 97.4832 185.86 98.0042 185.513 98.3002C185.333 98.4532 185.15 98.5231 184.922 98.5751C184.488 98.6751 184.058 98.7911 183.625 98.8961C183.081 99.0281 182.459 99.0982 181.914 99.2962C182.516 99.4412 183.125 99.5421 183.741 99.6311C184.011 99.6691 184.275 99.7122 184.538 99.7632C185.406 99.6282 186.282 99.5441 187.156 99.4371C187.662 99.3741 188.166 99.2912 188.674 99.2292C188.712 98.6252 188.765 98.0202 188.768 97.4142C188.736 97.3852 188.705 97.3541 188.676 97.3271Z" fill="#C0855E"/>
<path opacity="0.5" d="M188.671 99.2292C188.705 98.7212 188.762 97.9232 188.765 97.4142C188.735 97.3862 188.704 97.3541 188.675 97.3271C187.874 96.9331 187.044 96.5991 186.212 96.2751C186.158 96.5371 186.12 96.8022 186.065 97.0592C185.984 97.4432 185.878 97.9012 185.605 98.2072C186.245 98.3492 188.282 99.1322 188.671 99.2292Z" fill="#C0855E"/>
<path d="M194.822 84.882C195.43 84.788 196.044 84.729 196.657 84.655C197.012 84.611 197.364 84.551 197.719 84.509C197.746 84.085 197.782 83.662 197.786 83.237C197.765 83.217 197.743 83.197 197.723 83.177C197.116 82.879 196.487 82.629 195.857 82.385C195.846 82.381 195.832 82.377 195.819 82.373C195.79 82.377 195.761 82.382 195.73 82.386C195.345 82.435 194.957 82.473 194.575 82.547C194.468 82.652 194.362 82.758 194.255 82.857C193.819 83.259 193.368 83.648 192.981 84.097C192.95 84.243 192.924 84.389 192.902 84.535C193.349 84.648 193.804 84.724 194.265 84.789C194.452 84.817 194.638 84.847 194.822 84.882Z" fill="#FAAE71"/>
<path d="M193.908 83.428C194.2 83.146 194.477 82.858 194.85 82.682C195.085 82.571 195.329 82.482 195.574 82.407C195.241 82.447 194.906 82.484 194.576 82.549C194.469 82.654 194.363 82.76 194.256 82.859C193.82 83.261 193.369 83.65 192.982 84.099C192.979 84.107 192.979 84.117 192.977 84.125C193.278 83.88 193.627 83.701 193.908 83.428Z" fill="#E49D6E"/>
<path opacity="0.5" d="M197.72 83.177C197.158 82.901 196.577 82.666 195.993 82.439C195.955 82.622 195.929 82.809 195.891 82.989C195.828 83.286 195.745 83.651 195.502 83.858C195.377 83.965 195.249 84.014 195.089 84.05C194.784 84.12 194.483 84.201 194.18 84.275C193.798 84.367 193.363 84.416 192.98 84.555C193.403 84.657 193.83 84.728 194.262 84.789C194.45 84.815 194.636 84.846 194.82 84.881C195.428 84.787 196.042 84.728 196.655 84.654C197.01 84.61 197.362 84.55 197.717 84.508C197.744 84.084 197.78 83.661 197.784 83.236C197.762 83.217 197.741 83.197 197.72 83.177Z" fill="#C0855E"/>
<path opacity="0.5" d="M197.719 84.509C197.744 84.154 197.782 83.594 197.786 83.237C197.765 83.217 197.743 83.197 197.723 83.177C197.161 82.901 196.58 82.666 195.996 82.439C195.958 82.622 195.932 82.809 195.894 82.989C195.835 83.257 195.763 83.579 195.57 83.792C196.02 83.893 197.448 84.442 197.719 84.509Z" fill="#C0855E"/>
<path d="M188.244 84.5202C188.852 84.4262 189.465 84.3672 190.079 84.2922C190.434 84.2492 190.787 84.1882 191.142 84.1472C191.169 83.7232 191.206 83.3002 191.208 82.8752C191.187 82.8542 191.165 82.8342 191.145 82.8132C190.539 82.5172 189.911 82.2672 189.28 82.0222C189.267 82.0182 189.254 82.0142 189.243 82.0112C189.214 82.0152 189.183 82.0192 189.154 82.0232C188.769 82.0732 188.38 82.1102 187.999 82.1852C187.891 82.2912 187.786 82.3972 187.678 82.4952C187.243 82.8972 186.792 83.2862 186.404 83.7362C186.373 83.8812 186.347 84.0282 186.324 84.1742C186.772 84.2872 187.228 84.3622 187.688 84.4282C187.876 84.4552 188.06 84.4842 188.244 84.5202Z" fill="#FAAE71"/>
<path d="M187.329 83.0662C187.619 82.7822 187.895 82.4952 188.269 82.3192C188.505 82.2082 188.749 82.1192 188.996 82.0442C188.66 82.0842 188.326 82.1202 187.997 82.1852C187.889 82.2912 187.784 82.3972 187.676 82.4952C187.241 82.8972 186.79 83.2862 186.402 83.7362C186.4 83.7432 186.4 83.7532 186.398 83.7622C186.697 83.5162 187.046 83.3382 187.329 83.0662Z" fill="#E49D6E"/>
<path opacity="0.5" d="M191.147 82.8132C190.585 82.5382 190.004 82.3032 189.42 82.0752C189.384 82.2592 189.356 82.4462 189.318 82.6262C189.255 82.9232 189.174 83.2882 188.93 83.4952C188.805 83.6022 188.675 83.6512 188.517 83.6882C188.213 83.7582 187.912 83.8382 187.609 83.9122C187.225 84.0042 186.792 84.0532 186.41 84.1912C186.83 84.2932 187.259 84.3642 187.69 84.4262C187.879 84.4532 188.064 84.4832 188.248 84.5182C188.856 84.4242 189.469 84.3652 190.083 84.2902C190.438 84.2472 190.791 84.1862 191.146 84.1452C191.173 83.7212 191.21 83.2982 191.212 82.8732C191.188 82.8542 191.167 82.8342 191.147 82.8132Z" fill="#C0855E"/>
<path opacity="0.5" d="M191.14 84.1472C191.166 83.7922 191.204 83.2322 191.206 82.8752C191.185 82.8542 191.163 82.8342 191.143 82.8132C190.581 82.5382 190 82.3032 189.416 82.0752C189.38 82.2592 189.352 82.4462 189.314 82.6262C189.257 82.8942 189.185 83.2162 188.992 83.4302C189.441 83.5292 190.87 84.0782 191.14 84.1472Z" fill="#C0855E"/>
<path d="M153.553 87.916C155.018 87.689 156.496 87.547 157.97 87.367C158.826 87.262 159.677 87.12 160.53 87.018C160.596 85.998 160.684 84.978 160.689 83.955C160.638 83.907 160.588 83.856 160.538 83.808C159.078 83.094 157.563 82.492 156.045 81.901C156.016 81.892 155.985 81.884 155.955 81.875C155.883 81.886 155.812 81.897 155.74 81.905C154.81 82.025 153.877 82.113 152.957 82.295C152.699 82.549 152.443 82.804 152.186 83.039C151.137 84.009 150.051 84.946 149.117 86.027C149.042 86.378 148.98 86.732 148.926 87.085C150.005 87.357 151.104 87.538 152.21 87.695C152.663 87.759 153.109 87.83 153.553 87.916Z" fill="#FAAE71"/>
<path d="M151.346 84.4149C152.049 83.7319 152.714 83.0379 153.614 82.6159C154.182 82.3489 154.767 82.1329 155.362 81.9519C154.557 82.0489 153.751 82.1389 152.956 82.2939C152.698 82.5479 152.442 82.8029 152.185 83.0379C151.136 84.0079 150.05 84.9449 149.116 86.0259C149.111 86.0469 149.109 86.0689 149.105 86.0899C149.828 85.4999 150.669 85.0709 151.346 84.4149Z" fill="#E49D6E"/>
<path opacity="0.5" d="M160.538 83.807C159.184 83.144 157.785 82.579 156.38 82.032C156.29 82.473 156.226 82.922 156.133 83.357C155.982 84.072 155.784 84.951 155.198 85.451C154.898 85.709 154.587 85.829 154.203 85.915C153.469 86.084 152.744 86.277 152.014 86.456C151.093 86.68 150.045 86.798 149.125 87.128C150.139 87.375 151.17 87.545 152.21 87.694C152.664 87.759 153.11 87.83 153.554 87.916C155.019 87.689 156.497 87.547 157.971 87.367C158.827 87.262 159.678 87.12 160.531 87.018C160.597 85.998 160.685 84.978 160.69 83.955C160.638 83.906 160.589 83.855 160.538 83.807Z" fill="#C0855E"/>
<path opacity="0.5" d="M160.53 87.017C160.589 86.161 160.684 84.813 160.689 83.954C160.638 83.906 160.588 83.855 160.538 83.807C159.184 83.144 157.785 82.579 156.38 82.032C156.29 82.473 156.226 82.922 156.133 83.357C155.996 84.002 155.819 84.779 155.355 85.293C156.439 85.533 159.878 86.855 160.53 87.017Z" fill="#C0855E"/>
<path d="M299.731 91.013C304.464 92.068 309.516 92.565 314.538 92.801C319.925 92.803 325.329 92.414 330.683 92.187C333.047 92.088 335.411 92.029 337.78 92.018C340.105 91.771 342.428 91.527 344.761 91.356C347.844 91.131 350.977 91.097 353.85 90.303C356.715 89.51 359.485 88.579 362.278 87.698C365.036 86.825 367.804 85.959 370.619 85.154C370.116 83.675 369.639 82.192 369.091 80.718C368.855 80.08 368.862 79.43 368.915 78.778C368.673 78.337 368.432 77.894 368.237 77.442C367.854 76.55 367.514 75.651 367.109 74.76C366.912 74.33 366.698 73.906 366.451 73.492C365.655 72.995 364.767 72.543 363.94 72.105C361.835 70.992 359.913 69.743 357.994 68.517C357.306 68.077 356.621 67.636 355.938 67.194C353.836 66.223 351.812 65.194 349.873 64.109C348.552 63.372 347.28 62.608 345.997 61.849C342.655 61.061 339.299 60.293 335.959 59.5C333.722 59.674 331.557 60.04 329.527 60.732C326.691 61.695 323.653 62.468 320.667 63.251C318.183 63.904 315.545 64.012 312.996 64.518C310.347 65.045 308.725 66.067 307.201 67.425C305.791 68.68 304.23 69.838 302.601 70.993C301.021 72.115 299.419 73.248 298.064 74.476C297.858 74.763 297.65 75.048 297.433 75.331C296.45 76.605 295.434 77.868 294.388 79.125C294.16 79.534 293.951 79.947 293.759 80.361C292.585 82.891 291.979 85.496 291.789 88.112C293.973 89.429 296.826 90.365 299.731 91.013Z" fill="#B66651"/>
<path opacity="0.6" d="M295.03 79.5019C295.08 79.4059 295.324 79.3719 295.406 79.4729C295.996 80.1889 296.506 80.9299 297.002 81.6739C296.795 81.2069 296.606 80.7409 296.439 80.2809C296.057 79.2189 296.144 78.3159 297.091 77.3659C298.102 76.3549 299.437 75.4819 300.391 74.4499C301.038 73.7479 301.647 72.9749 302.578 72.3859C303.415 71.8579 304.457 71.4519 305.487 71.0749C306.708 70.6279 308.231 70.1969 309.175 69.5379C310.105 68.8859 310.281 68.0759 310.707 67.2879C311.332 66.1369 312.431 65.3029 314.391 64.8959C315.385 64.6899 316.417 64.5719 317.462 64.4989C318.586 64.4199 319.8 64.4349 320.896 64.2659C323.596 63.8499 325.762 62.6249 328.223 61.8839C329.598 61.4699 330.788 61.0189 331.903 60.3769C332.172 60.2209 332.443 60.0649 332.718 59.9109C331.625 60.1119 330.559 60.3779 329.527 60.7299C326.691 61.6929 323.653 62.4659 320.667 63.2489C318.183 63.9019 315.545 64.0099 312.996 64.5159C310.347 65.0429 308.725 66.0649 307.201 67.4229C305.791 68.6779 304.23 69.8359 302.601 70.9909C301.021 72.1129 299.419 73.2459 298.064 74.4739C297.858 74.7609 297.65 75.0459 297.433 75.3289C296.45 76.6029 295.434 77.8659 294.388 79.1229C294.16 79.5319 293.951 79.9449 293.759 80.3589C292.585 82.8889 291.979 85.4939 291.789 88.1099C292.217 88.3679 292.676 88.6059 293.15 88.8349C292.648 85.7079 293.519 82.4559 295.03 79.5019Z" fill="#E49D6E"/>
<path opacity="0.6" d="M319.709 87.87C319.725 86.83 319.657 85.774 319.253 84.758C318.934 83.952 318.151 83.131 318.238 82.283C318.42 80.515 320.867 79.756 323.15 78.965C324.208 78.598 325.196 78.167 326.156 77.709C324.992 78.104 323.877 78.54 322.76 78.99C321.304 79.578 319.894 80.18 318.29 80.612C317.294 80.879 316.574 81.257 316.664 81.967C316.722 82.424 316.92 82.86 317.129 83.3C318.104 85.352 317.848 87.501 317.559 89.602C317.425 90.579 317.245 91.554 317.366 92.534C317.374 92.611 317.383 92.688 317.39 92.767C317.999 92.754 318.607 92.736 319.216 92.716C319.353 91.099 319.684 89.488 319.709 87.87Z" fill="#E49D6E"/>
<path opacity="0.6" d="M339.137 73.9329C341.067 73.2539 342.954 72.5009 344.1 71.3099C344.978 70.3979 345.347 69.3659 345.869 68.3699C345.017 69.0109 344.222 69.6769 343.431 70.3449C342.013 71.5479 340.511 72.7129 339.137 73.9329Z" fill="#E49D6E"/>
<path opacity="0.4" d="M315.583 87.993C315.487 87.037 315.311 86.125 315 85.185C314.688 84.246 314.099 83.357 313.953 82.397C313.884 81.945 313.976 81.398 314.188 80.964C314.362 80.61 314.585 80.298 314.478 79.925C314.291 79.27 313.355 78.717 312.613 78.266C311.608 77.656 310.577 77.06 309.583 76.443C308.518 75.781 307.298 75.212 306.098 74.641C304.83 74.039 303.632 73.44 302.228 72.947C302.053 72.885 301.758 73.109 301.923 73.172C304.421 74.125 306.817 75.343 308.926 76.585C309.893 77.153 310.78 77.77 311.759 78.331C312.899 78.985 314.349 79.756 313.817 80.791C312.96 82.46 314.113 83.914 314.703 85.534C315.015 86.387 315.181 87.226 315.299 88.097C315.423 89.005 315.136 89.985 315.563 90.868C315.591 90.924 315.709 90.854 315.705 90.817C315.542 89.872 315.679 88.937 315.583 87.993Z" fill="#B57E58"/>
<path opacity="0.4" d="M350.987 86.705C349.704 85.906 348.466 85.081 347.286 84.225C346.663 83.774 346.068 83.31 345.483 82.841C344.937 82.403 344.52 81.923 343.983 81.487C343.121 80.785 341.941 80.24 340.661 79.838C339.272 79.401 337.81 79.067 336.724 78.363C336.695 78.343 336.657 78.342 336.617 78.349C336.357 76.816 335.435 75.385 334.806 73.891C335.796 73.373 336.563 72.731 337.334 72.093C338.493 71.133 339.685 70.188 340.823 69.22C343.106 67.28 345.423 65.255 346.619 62.971C346.714 62.786 346.331 62.869 346.265 62.988C344.989 65.28 342.623 67.304 340.305 69.257C339.231 70.161 338.109 71.043 337.011 71.936C336.063 72.708 335.141 73.502 333.755 74.016C332.081 74.636 329.955 74.432 328.099 74.651C326.274 74.865 324.6 75.462 322.867 75.847C321.272 76.202 319.682 76.548 318.226 77.087C316.854 77.595 316.103 78.54 314.659 78.978C314.541 79.013 314.51 79.161 314.685 79.108C316.083 78.692 316.986 77.883 318.289 77.38C319.98 76.726 321.968 76.403 323.818 75.952C325.886 75.449 327.754 74.91 330.035 74.885C331.522 74.869 333.083 74.671 334.301 74.134C334.309 74.175 334.342 74.192 334.389 74.194C335.04 75.739 335.992 77.228 336.16 78.832C336.337 80.529 337.071 82.165 337.39 83.85C337.412 83.967 337.694 83.824 337.685 83.743C337.516 82.057 336.873 80.407 336.675 78.723C337.629 79.3 338.846 79.644 340.047 80.015C341.482 80.458 342.755 81.095 343.713 81.878C344.184 82.263 344.551 82.694 345.028 83.083C345.552 83.51 346.102 83.927 346.662 84.339C347.906 85.256 349.241 86.128 350.656 86.951C350.813 87.038 351.141 86.801 350.987 86.705Z" fill="#B57E58"/>
<path opacity="0.4" d="M324.344 67.5619C323.071 67.2249 321.995 66.8229 320.883 66.3319C320.021 65.9519 318.964 65.8059 317.963 65.6179C315.934 65.2399 314.157 64.6579 311.962 64.9919C311.809 65.0159 311.638 65.2659 311.86 65.2369C314.088 64.9389 315.907 65.5769 317.944 65.9649C319.077 66.1799 320.109 66.4029 321.062 66.8489C321.968 67.2719 323.092 67.5309 324.175 67.7419C324.303 67.7659 324.494 67.6009 324.344 67.5619Z" fill="#B57E58"/>
<path opacity="0.4" d="M336.373 64.4301C335.569 64.5081 334.762 64.5621 333.968 64.6681C333.101 64.7831 332.312 65.1161 331.488 65.3131C330.605 65.5251 329.655 65.6631 328.747 65.8301C327.945 65.9761 327.264 66.2661 326.471 66.4091C326.328 66.4341 326.202 66.6351 326.428 66.6001C327.104 66.4921 327.664 66.2381 328.339 66.1321C329.257 65.9851 330.163 65.8121 331.075 65.6531C331.827 65.5231 332.541 65.2951 333.242 65.0891C334.184 64.8131 335.297 64.8411 336.285 64.6391C336.397 64.6161 336.58 64.4101 336.373 64.4301Z" fill="#B57E58"/>
<path opacity="0.4" d="M304.977 88.5451C304.067 87.8341 303.069 87.176 302.177 86.453C301.26 85.706 300.218 84.9261 299.432 84.1301C298.677 83.3651 298.162 82.5221 297.724 81.6761C297.195 80.6541 296.669 79.6391 296.078 78.6281C296.014 78.5181 295.699 78.7031 295.752 78.8021C296.751 80.6611 297.411 82.6431 298.981 84.3691C299.368 84.7941 299.879 85.1221 300.348 85.5141C300.818 85.9041 301.237 86.3131 301.704 86.7051C302.583 87.4421 303.46 88.1781 304.677 88.7341C304.811 88.7921 305.071 88.6191 304.977 88.5451Z" fill="#B57E58"/>
<path opacity="0.4" d="M328.35 83.478C327.15 83.142 325.874 82.809 324.623 82.552C324.485 82.524 324.28 82.705 324.443 82.743C324.901 82.85 325.34 83.085 325.793 83.172C326.335 83.276 326.879 83.542 327.413 83.607C327.673 83.638 328.911 83.948 328.892 84.076C328.879 84.161 329.031 84.161 329.112 84.112C329.619 83.798 328.754 83.591 328.35 83.478Z" fill="#B57E58"/>
<path opacity="0.4" d="M356.422 71.5361C356.128 72.3361 355.104 73.0901 354.487 73.8191C353.888 74.5271 353.348 75.2581 352.603 75.9171C351.828 76.6041 351.137 77.4211 350.131 77.9941C349.243 78.5001 348.314 78.9791 347.568 79.5651C347.445 79.6641 347.554 79.8031 347.738 79.6921C348.657 79.1331 349.716 78.6451 350.603 78.0701C351.551 77.4551 352.248 76.6761 353.014 75.9791C353.874 75.1961 354.477 74.3141 355.17 73.4771C355.713 72.8161 356.493 72.2031 356.728 71.4701C356.774 71.3311 356.453 71.4511 356.422 71.5361Z" fill="#B57E58"/>
<path opacity="0.4" d="M369.089 80.718C368.853 80.08 368.86 79.43 368.913 78.778C368.671 78.337 368.43 77.894 368.235 77.442C367.852 76.55 367.512 75.651 367.107 74.76C366.91 74.33 366.696 73.906 366.449 73.492C365.653 72.995 364.765 72.543 363.938 72.105C361.833 70.992 359.911 69.743 357.992 68.517C357.304 68.077 356.619 67.636 355.936 67.194C353.834 66.223 351.81 65.194 349.871 64.109C348.55 63.372 347.278 62.608 345.995 61.849C342.653 61.061 339.297 60.293 335.957 59.5C335.703 59.52 335.451 59.542 335.199 59.568C335.362 59.872 335.532 60.173 335.681 60.474C336.001 61.116 336.483 61.945 336.136 62.619C335.462 63.935 332.054 64.166 330.208 64.515C327.102 65.1 324.649 66.589 321.204 66.461C318.981 66.379 316.662 66.08 314.549 65.563C316.67 66.449 318.994 67.236 321.435 67.652C325.107 68.279 328.193 66.973 331.599 66.386C331.725 66.366 331.866 66.426 331.86 66.505C331.712 68.363 330.487 70.019 328.135 71.253C325.722 72.52 322.799 73.346 320.051 74.309C318.531 74.84 317.128 75.499 315.574 75.991C314.588 76.303 312.965 76.776 311.83 76.445C311.146 76.245 310.572 75.941 310.004 75.642C309.237 75.235 308.432 74.912 307.566 74.583C306.18 74.058 304.814 73.519 303.495 72.937C304.859 74.077 306.092 75.272 307.534 76.382C308.671 77.258 310.153 78.328 309.933 79.516C309.459 82.068 305.627 83.977 303.347 85.989C303.283 86.045 303.168 86.069 303.065 86.034C302.256 85.754 301.738 85.312 301.322 84.818C300.801 84.202 300.211 83.661 299.506 83.112C298.705 82.489 297.888 81.866 297.242 81.189C298.121 83.631 298.574 86.146 300.471 88.405C300.553 88.503 300.367 88.655 300.189 88.573C297.794 87.468 294.193 87.168 292.06 85.871C291.933 86.616 291.841 87.365 291.785 88.113C293.97 89.43 296.823 90.366 299.728 91.014C304.461 92.069 309.513 92.566 314.535 92.802C314.86 92.803 315.182 92.797 315.508 92.795C315.816 90.636 315.426 88.462 315.098 86.304C314.814 84.455 314.025 82.304 316.119 80.725C317.93 79.361 320.603 78.646 323.058 77.789C326.342 76.642 329.627 75.494 333.376 74.991C333.511 74.972 333.629 75.028 333.636 75.109C333.801 76.841 334.675 78.617 334.272 80.354C333.834 82.244 331.591 83.784 331.382 85.685C331.277 86.629 331.236 87.572 330.984 88.508C330.715 89.507 330.306 90.488 329.883 91.467C329.773 91.723 329.654 91.981 329.539 92.239C329.918 92.221 330.299 92.203 330.679 92.187C333.043 92.088 335.407 92.029 337.776 92.018C340.101 91.771 342.424 91.527 344.757 91.356C347.84 91.131 350.973 91.097 353.846 90.303C356.711 89.51 359.481 88.579 362.274 87.698C365.032 86.825 367.8 85.959 370.615 85.154C370.114 83.674 369.637 82.191 369.089 80.718Z" fill="#B17B56"/>
<path opacity="0.4" d="M314.577 85.4221C314.292 84.2121 314.338 82.9941 314.091 81.7861C313.846 80.5861 313.263 79.4411 312.495 78.3301C312.349 79.7011 312.249 81.0751 311.945 82.4391C311.617 83.9131 310.836 85.3201 310.368 86.7751C309.766 88.6531 309.479 90.5501 309.406 92.4521C311.112 92.6051 312.826 92.7201 314.537 92.8001C314.862 92.8011 315.184 92.7951 315.51 92.7931C315.725 91.2971 315.6 89.7941 315.396 88.2931C315.107 87.3401 314.804 86.3841 314.577 85.4221Z" fill="#B17B56"/>
<path opacity="0.4" d="M341.904 62.0691C342.27 63.8771 341.349 65.7341 340.183 67.3851C338.975 69.0911 337.425 70.9481 335.167 72.2491C332.013 74.0691 327.433 74.1201 323.75 75.3961C325.071 75.4011 326.394 75.4061 327.714 75.3591C329.317 75.3021 331.333 75.2651 332.758 74.7581C334.286 74.2151 335.456 73.4071 336.716 72.6721C338.023 71.9091 339.496 71.2641 340.879 70.5551C343.727 69.1001 345.89 67.4061 347.829 65.4981C348.376 64.9591 348.922 64.4191 349.484 63.8871C348.303 63.2181 347.15 62.5321 345.995 61.8471C344.412 61.4741 342.827 61.1051 341.241 60.7371C341.576 61.1371 341.804 61.5791 341.904 62.0691Z" fill="#B17B56"/>
<path opacity="0.4" d="M343.102 75.231C341.844 75.81 340.483 76.3031 339.223 76.8801C342.506 76.8931 345.721 76.123 347.786 74.541C349.092 73.539 350.015 72.369 350.789 71.193C351.23 70.523 351.396 69.814 351.664 69.123C349.833 70.469 348.253 71.932 346.385 73.261C345.389 73.971 344.332 74.665 343.102 75.231Z" fill="#B17B56"/>
<path opacity="0.4" d="M347.609 78.725C349.299 78.51 350.588 77.375 351.455 76.584C352.494 75.638 353.376 74.639 354.251 73.637C355.366 72.356 356.484 71.106 357.363 69.757C357.615 69.37 357.862 68.981 358.108 68.591C358.067 68.567 358.028 68.541 357.989 68.515C357.354 68.109 356.722 67.701 356.091 67.292C355.495 71.514 350.591 74.947 347.609 78.725Z" fill="#B17B56"/>
<path opacity="0.4" d="M350.208 90.9242C349.764 88.8862 347.27 87.2232 344.864 85.8702C342.619 84.6082 340.155 83.5012 337.876 82.2632C337.855 83.4292 338.479 84.5942 338.617 85.7572C338.772 87.0812 338.796 88.4132 339.044 89.7332C339.175 90.4262 339.299 91.1332 339.45 91.8412C341.218 91.6582 342.986 91.4862 344.759 91.3562C346.587 91.2232 348.43 91.1562 350.227 90.9602C350.22 90.9482 350.212 90.9382 350.208 90.9242Z" fill="#B17B56"/>
<path opacity="0.4" d="M323.868 87.9789C323.61 87.7839 323.233 87.6339 322.864 87.6549C322.536 87.6129 322.147 87.6669 321.982 87.8169C321.783 88.0009 322.033 88.1309 322.288 88.2159C322.661 88.3369 323.039 88.3709 323.462 88.3329C323.646 88.3169 324.034 88.1089 323.868 87.9789Z" fill="#B17B56"/>
<path opacity="0.4" d="M326.215 87.133C326.031 87.03 325.792 87.1219 325.632 87.2009C325.526 87.2529 325.338 87.3289 325.193 87.4189C325.012 87.3959 324.824 87.4029 324.671 87.4659C324.554 87.5149 324.425 87.606 324.448 87.698C324.5 87.901 324.874 88.113 325.235 88.094C325.46 88.082 325.598 87.9829 325.68 87.8639C325.793 87.8589 325.903 87.847 326.002 87.806C326.177 87.734 326.31 87.5869 326.316 87.4579C326.321 87.3569 326.356 87.212 326.215 87.133Z" fill="#B17B56"/>
<path opacity="0.4" d="M329.365 87.8789C329.387 87.8409 329.393 87.7989 329.337 87.7809C329.228 87.7449 329.116 87.7199 328.989 87.7339C328.801 87.7559 328.623 87.8579 328.6 87.9729C328.576 88.1009 328.786 88.1889 328.982 88.1999C329.184 88.2119 329.33 88.0979 329.373 87.9899C329.386 87.9559 329.393 87.9139 329.365 87.8789Z" fill="#B17B56"/>
<path opacity="0.4" d="M325.819 88.8011C325.663 88.6151 325.329 88.5241 325.01 88.6411C324.678 88.7621 324.525 89.0121 324.523 89.2331C324.522 89.2961 324.638 89.3091 324.714 89.2921C324.749 89.2851 324.784 89.2721 324.818 89.2571C324.989 89.3591 325.243 89.3971 325.489 89.3381C325.86 89.2491 325.991 89.0061 325.819 88.8011Z" fill="#B17B56"/>
<path opacity="0.4" d="M321.62 89.2449C321.543 89.1869 321.511 89.1149 321.428 89.0589C321.32 88.9869 321.187 89.0029 321.056 89.0439C320.902 89.0919 320.807 89.2119 320.725 89.2999C320.669 89.3589 320.626 89.4229 320.582 89.4849C320.578 89.4899 320.575 89.4949 320.572 89.4989C320.566 89.5069 320.561 89.5159 320.556 89.5229C320.522 89.5699 320.485 89.6379 320.525 89.6869C320.535 89.6989 320.55 89.7079 320.565 89.7129C320.648 89.7869 320.831 89.8229 320.977 89.8369C321.23 89.8629 321.518 89.8549 321.688 89.7219C321.9 89.5579 321.817 89.3959 321.62 89.2449Z" fill="#B17B56"/>
<path opacity="0.4" d="M318.916 88.962C318.809 88.958 318.721 88.9421 318.626 88.9121C318.572 88.8951 318.512 88.87 318.446 88.873C318.326 88.879 318.224 88.937 318.164 88.996C318.091 89.069 318.094 89.1501 318.196 89.2101C318.316 89.2791 318.483 89.2361 318.591 89.1851C318.603 89.1811 318.612 89.1741 318.621 89.1671C318.68 89.1691 318.739 89.167 318.795 89.164C318.937 89.159 319.127 88.971 318.916 88.962Z" fill="#B17B56"/>
<path opacity="0.4" d="M320.547 70.651C320.29 70.455 319.912 70.305 319.544 70.326C319.215 70.284 318.826 70.338 318.663 70.488C318.462 70.672 318.714 70.802 318.969 70.886C319.342 71.009 319.719 71.043 320.141 71.006C320.326 70.988 320.715 70.78 320.547 70.651Z" fill="#B17B56"/>
<path opacity="0.4" d="M322.895 69.8041C322.709 69.7001 322.472 69.793 322.312 69.872C322.205 69.924 322.018 70.001 321.874 70.09C321.693 70.067 321.505 70.0741 321.351 70.1381C321.235 70.1871 321.105 70.277 321.128 70.37C321.181 70.573 321.553 70.785 321.915 70.765C322.14 70.753 322.277 70.655 322.36 70.536C322.473 70.529 322.582 70.5181 322.682 70.4771C322.857 70.4051 322.989 70.2581 322.995 70.1301C323 70.0271 323.036 69.8821 322.895 69.8041Z" fill="#B17B56"/>
<path opacity="0.4" d="M326.043 70.5509C326.065 70.5109 326.07 70.4699 326.016 70.4519C325.906 70.4169 325.792 70.3909 325.667 70.4059C325.479 70.4269 325.301 70.5279 325.279 70.6449C325.254 70.7719 325.463 70.8609 325.659 70.8719C325.863 70.8849 326.008 70.7699 326.05 70.6619C326.064 70.6269 326.072 70.5839 326.043 70.5509Z" fill="#B17B56"/>
<path opacity="0.4" d="M322.497 71.473C322.34 71.285 322.006 71.195 321.689 71.311C321.355 71.433 321.205 71.682 321.199 71.904C321.199 71.967 321.316 71.979 321.393 71.963C321.428 71.956 321.463 71.942 321.497 71.928C321.668 72.03 321.922 72.065 322.166 72.009C322.536 71.92 322.667 71.677 322.497 71.473Z" fill="#B17B56"/>
<path opacity="0.4" d="M318.299 71.9161C318.223 71.8571 318.19 71.7841 318.106 71.7281C317.999 71.6581 317.865 71.6721 317.735 71.7131C317.579 71.7621 317.487 71.8821 317.404 71.9691C317.349 72.0291 317.305 72.0931 317.262 72.1561C317.257 72.1611 317.253 72.1641 317.252 72.1691C317.246 72.1771 317.24 72.1861 317.234 72.1941C317.201 72.2391 317.165 72.3081 317.205 72.3571C317.215 72.3691 317.23 72.3771 317.245 72.3841C317.328 72.4581 317.51 72.4931 317.658 72.5081C317.911 72.5331 318.199 72.5251 318.369 72.3931C318.579 72.2281 318.495 72.0661 318.299 71.9161Z" fill="#B17B56"/>
<path opacity="0.4" d="M315.595 71.6331C315.488 71.6291 315.4 71.6121 315.307 71.5841C315.25 71.5661 315.192 71.5421 315.125 71.5441C315.006 71.5511 314.903 71.6091 314.845 71.6661C314.77 71.7391 314.773 71.8221 314.875 71.8821C314.995 71.9501 315.162 71.9071 315.271 71.8561C315.281 71.8511 315.292 71.8451 315.301 71.8391C315.361 71.8411 315.419 71.8381 315.475 71.8351C315.616 71.8301 315.806 71.6421 315.595 71.6331Z" fill="#B17B56"/>
<path opacity="0.4" d="M346.144 83.9839C345.888 83.7879 345.511 83.6379 345.143 83.6589C344.814 83.6169 344.424 83.6719 344.26 83.8209C344.06 84.0039 344.311 84.1349 344.566 84.2189C344.94 84.3419 345.316 84.3749 345.738 84.3369C345.925 84.3209 346.314 84.1129 346.144 83.9839Z" fill="#B17B56"/>
<path opacity="0.4" d="M348.494 83.1369C348.308 83.0339 348.071 83.1269 347.911 83.2049C347.803 83.2569 347.617 83.3339 347.472 83.4229C347.293 83.3999 347.102 83.4079 346.95 83.4709C346.832 83.5199 346.702 83.6099 346.726 83.7029C346.778 83.9059 347.152 84.1169 347.513 84.0989C347.74 84.0869 347.876 83.9869 347.958 83.8689C348.071 83.8629 348.182 83.8519 348.28 83.8099C348.456 83.7389 348.588 83.5909 348.595 83.4629C348.601 83.3619 348.637 83.2169 348.494 83.1369Z" fill="#B17B56"/>
<path opacity="0.4" d="M348.102 84.8049C347.943 84.6169 347.61 84.5279 347.294 84.6449C346.959 84.7649 346.808 85.0139 346.805 85.2369C346.803 85.2999 346.921 85.3119 346.998 85.2959C347.033 85.2889 347.066 85.2749 347.101 85.2599C347.272 85.3619 347.525 85.3989 347.769 85.3409C348.141 85.2529 348.271 85.0099 348.102 84.8049Z" fill="#B17B56"/>
<path opacity="0.4" d="M343.901 85.2488C343.825 85.1898 343.791 85.1188 343.707 85.0628C343.6 84.9908 343.467 85.0068 343.337 85.0478C343.18 85.0958 343.088 85.2158 343.005 85.3038C342.949 85.3628 342.906 85.4258 342.862 85.4898C342.859 85.4938 342.855 85.4988 342.853 85.5038C342.846 85.5108 342.84 85.5198 342.835 85.5278C342.802 85.5738 342.766 85.6418 342.807 85.6908C342.818 85.7028 342.832 85.7108 342.846 85.7168C342.928 85.7918 343.111 85.8268 343.258 85.8418C343.512 85.8668 343.799 85.8588 343.969 85.7268C344.181 85.5618 344.097 85.3988 343.901 85.2488Z" fill="#B17B56"/>
<path opacity="0.4" d="M341.195 84.9659C341.089 84.9609 341 84.9459 340.906 84.9169C340.852 84.8999 340.792 84.8759 340.727 84.8789C340.607 84.8849 340.505 84.9429 340.445 85.0009C340.372 85.0739 340.374 85.1559 340.477 85.2159C340.597 85.2849 340.765 85.2409 340.874 85.1909C340.883 85.1859 340.894 85.1789 340.902 85.1719C340.961 85.1739 341.021 85.1709 341.076 85.1699C341.219 85.1639 341.407 84.9749 341.195 84.9659Z" fill="#B17B56"/>
<path opacity="0.4" d="M340.718 66.804C340.433 66.586 340.012 66.419 339.603 66.444C339.235 66.397 338.802 66.4569 338.62 66.6239C338.397 66.8279 338.677 66.974 338.961 67.067C339.375 67.203 339.795 67.2399 340.266 67.1979C340.473 67.1789 340.905 66.948 340.718 66.804Z" fill="#B17B56"/>
<path opacity="0.4" d="M343.33 65.861C343.124 65.747 342.86 65.85 342.682 65.937C342.563 65.995 342.355 66.08 342.192 66.18C341.992 66.154 341.781 66.164 341.611 66.234C341.481 66.287 341.335 66.388 341.363 66.492C341.42 66.717 341.835 66.954 342.239 66.932C342.488 66.919 342.643 66.808 342.733 66.676C342.859 66.669 342.983 66.657 343.093 66.612C343.287 66.531 343.434 66.366 343.442 66.225C343.449 66.11 343.488 65.949 343.33 65.861Z" fill="#B17B56"/>
<path opacity="0.4" d="M346.838 66.693C346.865 66.649 346.871 66.604 346.809 66.583C346.684 66.544 346.56 66.516 346.419 66.531C346.211 66.555 346.011 66.669 345.987 66.799C345.96 66.941 346.194 67.04 346.411 67.053C346.638 67.066 346.8 66.938 346.846 66.819C346.863 66.778 346.871 66.73 346.838 66.693Z" fill="#B17B56"/>
<path opacity="0.4" d="M342.892 67.718C342.718 67.511 342.346 67.41 341.992 67.54C341.621 67.675 341.451 67.953 341.449 68.2C341.448 68.269 341.579 68.284 341.664 68.266C341.701 68.257 341.739 68.243 341.778 68.226C341.969 68.34 342.252 68.381 342.524 68.315C342.936 68.217 343.083 67.947 342.892 67.718Z" fill="#B17B56"/>
<path opacity="0.4" d="M338.22 68.2131C338.134 68.1481 338.098 68.0671 338.004 68.0061C337.885 67.9261 337.737 67.9431 337.592 67.9881C337.418 68.0431 337.314 68.1771 337.222 68.2741C337.161 68.3401 337.112 68.4101 337.062 68.4801C337.06 68.4851 337.057 68.4901 337.052 68.4951C337.045 68.5041 337.039 68.5131 337.034 68.5211C336.996 68.5731 336.955 68.6491 337 68.7041C337.012 68.7171 337.028 68.7271 337.044 68.7331C337.135 68.8161 337.34 68.8571 337.504 68.8721C337.784 68.9001 338.105 68.8901 338.295 68.7441C338.532 68.5611 338.438 68.3811 338.22 68.2131Z" fill="#B17B56"/>
<path opacity="0.4" d="M335.205 67.8979C335.086 67.8929 334.988 67.8769 334.883 67.8429C334.823 67.8239 334.755 67.7959 334.683 67.7999C334.551 67.8069 334.435 67.8719 334.37 67.9369C334.287 68.0169 334.291 68.1079 334.405 68.1749C334.537 68.2519 334.724 68.2029 334.845 68.1479C334.855 68.1429 334.866 68.1349 334.877 68.1289C334.943 68.1309 335.01 68.1269 335.071 68.1249C335.229 68.1179 335.439 67.9079 335.205 67.8979Z" fill="#B17B56"/>
</g>
</g>
</g>
<defs>
<clipPath id="clip0_636_4">
<rect width="348" height="132" fill="white" transform="translate(0.535156)"/>
</clipPath>
</defs>
</svg>
