<svg width="1581" height="699" viewBox="0 0 1581 699" fill="none" xmlns="http://www.w3.org/2000/svg">
<path d="M318 141C318 141 306.436 143.113 305.691 143.823C304.991 144.49 303 156 303 156C303 156 301.009 144.49 300.309 143.823C299.564 143.113 288 141 288 141C288 141 299.414 139.247 299.94 138.582C300.654 137.679 303 126 303 126C303 126 305.346 137.679 306.06 138.582C306.586 139.247 318 141 318 141Z" fill="#FBF778"/>
<path d="M404 684C404 684 392.436 686.113 391.691 686.823C390.991 687.49 389 699 389 699C389 699 387.009 687.49 386.309 686.823C385.564 686.113 374 684 374 684C374 684 385.414 682.247 385.94 681.582C386.654 680.679 389 669 389 669C389 669 391.346 680.679 392.06 681.582C392.586 682.247 404 684 404 684Z" fill="#FBF641" fill-opacity="0.5"/>
<path d="M30 258C30 258 18.4359 260.113 17.691 260.823C16.9911 261.49 15 273 15 273C15 273 13.0089 261.49 12.309 260.823C11.5641 260.113 0 258 0 258C0 258 11.414 256.247 11.9399 255.582C12.6542 254.679 15 243 15 243C15 243 17.3458 254.679 18.0601 255.582C18.586 256.247 30 258 30 258Z" fill="#FBF778"/>
<path d="M1063 104C1063 104 1051.44 106.113 1050.69 106.823C1049.99 107.49 1048 119 1048 119C1048 119 1046.01 107.49 1045.31 106.823C1044.56 106.113 1033 104 1033 104C1033 104 1044.41 102.247 1044.94 101.582C1045.65 100.679 1048 89 1048 89C1048 89 1050.35 100.679 1051.06 101.582C1051.59 102.247 1063 104 1063 104Z" fill="#FBF778"/>
<path d="M518 318C518 318 506.436 320.113 505.691 320.823C504.991 321.49 503 333 503 333C503 333 501.009 321.49 500.309 320.823C499.564 320.113 488 318 488 318C488 318 499.414 316.247 499.94 315.582C500.654 314.679 503 303 503 303C503 303 505.346 314.679 506.06 315.582C506.586 316.247 518 318 518 318Z" fill="#FBCD78"/>
<path d="M1581 15C1581 15 1569.44 17.1126 1568.69 17.8229C1567.99 18.4902 1566 30 1566 30C1566 30 1564.01 18.4902 1563.31 17.8229C1562.56 17.1126 1551 15 1551 15C1551 15 1562.41 13.2466 1562.94 12.582C1563.65 11.6792 1566 0 1566 0C1566 0 1568.35 11.6792 1569.06 12.582C1569.59 13.2466 1581 15 1581 15Z" fill="#FBF778"/>
</svg>
