<svg width="737" height="504" viewBox="0 0 737 504" fill="none" xmlns="http://www.w3.org/2000/svg">
<circle cx="374.821" cy="287.749" r="128" transform="rotate(-10.0686 374.821 287.749)" fill="url(#paint0_linear_616_16)"/>
<path fill-rule="evenodd" clip-rule="evenodd" d="M261.266 228.668C272.898 230.031 288.941 230.556 299.768 225.411C307.786 221.6 311.672 215.383 315.57 209.144C319.408 203.004 323.258 196.844 331.073 192.937C339.925 188.513 348.536 190.313 356.962 192.074C366.107 193.985 375.033 195.851 383.813 189.667C392.012 183.892 397.789 171.823 401.25 162.472C410.821 164.495 420.06 167.601 428.806 171.678C425.938 183.989 419.507 204.796 407.416 213.914C398.266 220.814 389.082 220.481 379.486 220.132C371.587 219.845 363.409 219.548 354.74 223.267C344.242 227.77 338.039 235.159 331.965 242.393C325.171 250.486 318.539 258.386 306.237 261.841C288.744 266.752 263.017 259.912 250.787 256.01C253.234 246.472 256.766 237.302 261.266 228.668Z" fill="url(#paint1_linear_616_16)"/>
<path fill-rule="evenodd" clip-rule="evenodd" d="M490.703 233.312C486.238 240.27 480.876 246.512 474.503 250.842C461.031 259.994 446.378 260.047 431.257 260.101C418.909 260.145 406.248 260.19 393.667 265.195C378.768 271.122 368.7 279.158 358.881 286.994C347.337 296.208 336.138 305.145 317.842 310.054C288.379 317.958 256.813 310.096 248.382 307.684C247.374 301.31 246.857 294.967 246.803 288.695L247.14 278.28C247.536 272.886 248.273 267.562 249.334 262.335C256.821 267.99 288.468 290.12 312.438 279.618C324.163 274.481 332.282 265.458 340.411 256.424C348.373 247.575 356.345 238.716 367.724 233.487C380.434 227.646 391.984 227.918 403.236 228.183C415.836 228.48 428.063 228.768 441.126 220.453C450.161 214.702 457.324 204.43 462.566 194.546C474.146 205.432 483.766 218.522 490.703 233.312Z" fill="url(#paint2_linear_616_16)"/>
<path fill-rule="evenodd" clip-rule="evenodd" d="M501.646 305.294C503.433 292.357 503.254 278.924 500.848 265.371C500.702 264.55 500.549 263.733 500.388 262.919C495.31 267.877 489.46 272.409 482.918 275.616C467.514 283.165 452.773 282.191 437.671 281.193C423.755 280.273 409.534 279.333 394.209 285.024C380.678 290.048 373.536 297.017 366.417 303.963C359.184 311.02 351.976 318.054 338.117 322.999C311.554 332.477 268.674 331.021 254.037 330.184C258.231 342.166 264.109 353.23 271.347 363.148C293.101 365.2 322.478 366.3 344.85 360.919C365.845 355.869 377.844 346.741 390.135 337.391C401.123 329.032 412.344 320.495 430.436 314.535C445.376 309.614 459.041 309.009 472.239 308.423C482.192 307.982 491.879 307.553 501.646 305.294Z" fill="url(#paint3_linear_616_16)"/>
<path fill-rule="evenodd" clip-rule="evenodd" d="M332.571 408.599C324.672 405.829 317.087 402.298 309.922 398.079C322.943 386.503 346.142 367.399 366.745 358.334C382.697 351.316 394.531 350.739 406.653 350.149C417.489 349.621 428.556 349.082 443.002 343.919C454.931 339.655 464.148 333.612 473.049 327.775C481.699 322.103 490.052 316.626 500.307 313.167C498.292 323.101 495.111 332.687 490.888 341.744C479.321 345.184 470.881 351.961 462.254 358.889C453.538 365.889 444.63 373.042 432.113 377.062C421.062 380.612 413.35 380.11 405.663 379.61C397.853 379.102 390.07 378.595 378.838 382.342C363.516 387.452 345.189 399.468 332.571 408.599Z" fill="url(#paint4_linear_616_16)"/>
<path fill-rule="evenodd" clip-rule="evenodd" d="M410.035 328.759C574.576 238.228 692.257 146.842 672.884 124.643C653.51 102.443 504.419 157.837 339.878 248.367C175.337 338.898 57.656 430.284 77.0293 452.483C96.4026 474.683 245.494 419.289 410.035 328.759ZM393.703 310.105C497.908 252.771 574.144 196.853 563.981 185.207C553.817 173.561 461.104 210.599 356.899 267.933C252.694 325.267 176.459 381.185 186.622 392.831C196.785 404.477 289.498 367.439 393.703 310.105Z" fill="url(#paint5_linear_616_16)" fill-opacity="0.7"/>
<path fill-rule="evenodd" clip-rule="evenodd" d="M407.488 318.509C558.504 236.196 667.593 155.07 651.145 137.309C634.697 119.547 498.941 171.876 347.925 254.189C196.909 336.502 87.8197 417.629 104.268 435.39C120.715 453.152 256.472 400.822 407.488 318.509ZM406.816 310.102C533.193 241.219 625.007 173.893 611.888 159.726C598.768 145.559 485.684 189.915 359.307 258.798C232.93 327.682 141.116 395.007 154.236 409.174C167.355 423.341 280.439 378.985 406.816 310.102Z" fill="url(#paint6_linear_616_16)"/>
<path fill-rule="evenodd" clip-rule="evenodd" d="M408.203 312.447C538.856 241.23 633.229 171.028 618.993 155.649C604.756 140.269 487.3 185.534 356.647 256.752C225.994 327.97 131.62 398.171 145.857 413.551C160.094 428.93 277.55 383.665 408.203 312.447ZM400.251 309.9C518.758 245.303 605.19 182.526 593.303 169.685C581.416 156.843 475.711 198.8 357.204 263.397C238.697 327.994 152.264 390.771 164.151 403.612C176.038 416.453 281.744 374.497 400.251 309.9Z" fill="url(#paint7_linear_616_16)"/>
<mask id="mask0_616_16" style="mask-type:alpha" maskUnits="userSpaceOnUse" x="88" y="33" width="471" height="364">
<rect x="88.0156" y="245.501" width="442.515" height="172" transform="rotate(-28.5521 88.0156 245.501)" fill="#D9D9D9"/>
</mask>
<g mask="url(#mask0_616_16)">
<circle cx="374.817" cy="287.749" r="128" transform="rotate(-10.0686 374.817 287.749)" fill="url(#paint8_linear_616_16)"/>
<path fill-rule="evenodd" clip-rule="evenodd" d="M261.262 228.668C272.894 230.031 288.937 230.556 299.764 225.411C307.782 221.6 311.668 215.383 315.566 209.144C319.404 203.004 323.254 196.844 331.069 192.937C339.921 188.513 348.532 190.313 356.959 192.074C366.103 193.985 375.029 195.851 383.809 189.667C392.008 183.892 397.785 171.823 401.246 162.472C410.817 164.495 420.056 167.601 428.802 171.678C425.934 183.989 419.503 204.796 407.412 213.914C398.262 220.814 389.078 220.481 379.482 220.132C371.583 219.845 363.405 219.548 354.736 223.267C344.238 227.77 338.035 235.159 331.961 242.393C325.167 250.486 318.535 258.386 306.233 261.841C288.741 266.752 263.013 259.912 250.784 256.01C253.23 246.472 256.762 237.302 261.262 228.668Z" fill="url(#paint9_linear_616_16)"/>
<path fill-rule="evenodd" clip-rule="evenodd" d="M490.699 233.312C486.234 240.27 480.872 246.512 474.499 250.842C461.028 259.994 446.374 260.047 431.254 260.101C418.905 260.145 406.245 260.19 393.664 265.195C378.764 271.122 368.696 279.158 358.877 286.994C347.333 296.208 336.134 305.145 317.838 310.054C288.375 317.958 256.809 310.096 248.378 307.684C247.37 301.31 246.853 294.967 246.799 288.695L247.136 278.28C247.532 272.886 248.27 267.562 249.33 262.335C256.817 267.99 288.464 290.12 312.434 279.618C324.159 274.481 332.278 265.458 340.407 256.424C348.369 247.575 356.341 238.716 367.72 233.487C380.43 227.646 391.98 227.918 403.232 228.183C415.832 228.48 428.059 228.768 441.122 220.453C450.157 214.702 457.32 204.43 462.562 194.546C474.142 205.432 483.762 218.522 490.699 233.312Z" fill="url(#paint10_linear_616_16)"/>
<path fill-rule="evenodd" clip-rule="evenodd" d="M501.642 305.294C503.429 292.357 503.25 278.924 500.844 265.371C500.698 264.55 500.545 263.733 500.384 262.919C495.306 267.877 489.456 272.409 482.914 275.616C467.511 283.165 452.769 282.191 437.667 281.193C423.752 280.273 409.53 279.333 394.205 285.024C380.674 290.048 373.532 297.017 366.413 303.963C359.18 311.02 351.972 318.054 338.113 322.999C311.55 332.477 268.67 331.021 254.033 330.184C258.227 342.166 264.105 353.23 271.343 363.148C293.098 365.2 322.474 366.3 344.846 360.919C365.841 355.869 377.84 346.741 390.131 337.391C401.119 329.032 412.341 320.495 430.432 314.535C445.372 309.614 459.037 309.009 472.235 308.423C482.188 307.982 491.875 307.553 501.642 305.294Z" fill="url(#paint11_linear_616_16)"/>
<path fill-rule="evenodd" clip-rule="evenodd" d="M332.567 408.599C324.668 405.829 317.084 402.298 309.918 398.079C322.939 386.503 346.138 367.399 366.741 358.334C382.693 351.316 394.527 350.739 406.649 350.149C417.485 349.621 428.552 349.082 442.998 343.919C454.928 339.655 464.144 333.612 473.045 327.775C481.695 322.103 490.048 316.626 500.304 313.167C498.288 323.101 495.107 332.687 490.884 341.744C479.317 345.184 470.877 351.961 462.25 358.889C453.534 365.889 444.627 373.042 432.109 377.062C421.058 380.612 413.346 380.11 405.659 379.61C397.849 379.102 390.066 378.595 378.834 382.342C363.512 387.452 345.185 399.468 332.567 408.599Z" fill="url(#paint12_linear_616_16)"/>
</g>
<defs>
<linearGradient id="paint0_linear_616_16" x1="561.48" y1="167.92" x2="358.661" y2="403.578" gradientUnits="userSpaceOnUse">
<stop stop-color="#FED559"/>
<stop offset="1" stop-color="#D57A6D"/>
</linearGradient>
<linearGradient id="paint1_linear_616_16" x1="243.138" y1="249.685" x2="439.763" y2="138.172" gradientUnits="userSpaceOnUse">
<stop stop-color="#C0564A"/>
<stop offset="1" stop-color="#FFC2AF"/>
</linearGradient>
<linearGradient id="paint2_linear_616_16" x1="247.111" y1="300.527" x2="470.629" y2="143.321" gradientUnits="userSpaceOnUse">
<stop stop-color="#C0564A"/>
<stop offset="1" stop-color="#FFC2AF"/>
</linearGradient>
<linearGradient id="paint3_linear_616_16" x1="240.53" y1="355.127" x2="510.184" y2="128.658" gradientUnits="userSpaceOnUse">
<stop stop-color="#C0564A"/>
<stop offset="1" stop-color="#FFC2AF"/>
</linearGradient>
<linearGradient id="paint4_linear_616_16" x1="300.922" y1="410.201" x2="571.962" y2="443.277" gradientUnits="userSpaceOnUse">
<stop stop-color="#C0564A"/>
<stop offset="1" stop-color="#FFC2AF"/>
</linearGradient>
<linearGradient id="paint5_linear_616_16" x1="76.4935" y1="451.915" x2="673.419" y2="125.211" gradientUnits="userSpaceOnUse">
<stop stop-color="#C45C50"/>
<stop offset="1" stop-color="#F6B2A0"/>
</linearGradient>
<linearGradient id="paint6_linear_616_16" x1="76.4935" y1="451.915" x2="673.419" y2="125.211" gradientUnits="userSpaceOnUse">
<stop stop-color="#C45C50"/>
<stop offset="1" stop-color="#F2BA5E"/>
</linearGradient>
<linearGradient id="paint7_linear_616_16" x1="76.4935" y1="451.915" x2="673.419" y2="125.211" gradientUnits="userSpaceOnUse">
<stop stop-color="#D67C6C"/>
<stop offset="1" stop-color="#F2CC91"/>
</linearGradient>
<linearGradient id="paint8_linear_616_16" x1="561.477" y1="167.92" x2="358.657" y2="403.578" gradientUnits="userSpaceOnUse">
<stop stop-color="#FED559"/>
<stop offset="1" stop-color="#D57A6D"/>
</linearGradient>
<linearGradient id="paint9_linear_616_16" x1="243.134" y1="249.685" x2="439.759" y2="138.172" gradientUnits="userSpaceOnUse">
<stop stop-color="#C0564A"/>
<stop offset="1" stop-color="#FFC2AF"/>
</linearGradient>
<linearGradient id="paint10_linear_616_16" x1="247.107" y1="300.527" x2="470.625" y2="143.321" gradientUnits="userSpaceOnUse">
<stop stop-color="#C0564A"/>
<stop offset="1" stop-color="#FFC2AF"/>
</linearGradient>
<linearGradient id="paint11_linear_616_16" x1="240.526" y1="355.127" x2="510.18" y2="128.658" gradientUnits="userSpaceOnUse">
<stop stop-color="#C0564A"/>
<stop offset="1" stop-color="#FFC2AF"/>
</linearGradient>
<linearGradient id="paint12_linear_616_16" x1="300.918" y1="410.201" x2="571.958" y2="443.277" gradientUnits="userSpaceOnUse">
<stop stop-color="#C0564A"/>
<stop offset="1" stop-color="#FFC2AF"/>
</linearGradient>
</defs>
</svg>
