<svg width="422" height="203" viewBox="0 0 422 203" fill="none" xmlns="http://www.w3.org/2000/svg">
<path d="M273.227 135.425L11.0421 55.4293L15.2628 39.9961L281.668 104.559L273.227 135.425Z" fill="url(#paint0_linear_577_491)"/>
<path d="M215.717 103.109C217.028 98.3147 270.872 108.862 275.773 110.203C280.674 111.543 283.584 116.516 282.273 121.311C280.961 126.105 275.925 128.906 271.024 127.565C266.123 126.225 214.405 107.904 215.717 103.109Z" fill="#EE6E1F"/>
<path d="M352.842 140.106C352.842 140.106 336.819 101.781 279.625 100.088C279.625 100.088 266.826 120.534 269.272 137.943C269.272 137.943 319.23 164.393 352.842 140.106Z" fill="#C2C3C9"/>
<path d="M346.364 107.738C346.364 107.738 333.141 88.3874 303.511 76.5364C299.353 74.8737 295.732 89.7879 293.864 96.6191C289.349 113.131 346.364 107.738 346.364 107.738Z" fill="#BF0411"/>
<path d="M330.749 164.837C330.749 164.837 309.519 174.765 277.981 169.888C273.556 169.204 278.03 154.523 279.898 147.692C284.414 131.179 330.749 164.837 330.749 164.837Z" fill="#BF0411"/>
<path d="M408.741 155.467C408.741 155.467 383.853 95.9373 295.013 93.3091C295.013 93.3091 275.134 125.068 278.933 152.108C278.933 152.108 356.535 193.191 408.741 155.467Z" fill="#EDEEF0"/>
<path d="M295.84 113.04L296.742 109.744C298.918 101.787 307.209 97.0564 315.167 99.2327L346.152 107.707C354.11 109.883 358.84 118.174 356.664 126.132L355.763 129.428C353.587 137.386 345.295 142.116 337.337 139.94L306.352 131.466C298.394 129.29 293.664 120.998 295.84 113.04Z" fill="white"/>
<path d="M384.306 124.611C384.306 124.611 371.793 142.595 371.845 170.175C371.845 170.175 390.614 168.927 408.74 155.467C408.74 155.467 402.183 138.507 384.306 124.611Z" fill="#BF0411"/>
<path d="M325.141 139.551C326.16 149.115 334.74 156.042 344.305 155.023C353.87 154.004 360.798 145.424 359.779 135.86C358.76 126.296 350.18 119.368 340.615 120.387C331.05 121.406 324.122 129.986 325.141 139.551Z" fill="#191919"/>
<path d="M324.647 132.83C327.332 123.013 337.505 117.208 347.324 119.893C357.143 122.578 362.948 132.752 360.263 142.57C357.577 152.391 347.404 158.195 337.584 155.509C327.766 152.824 321.961 142.65 324.647 132.83ZM358.247 142.019C360.628 133.312 355.48 124.29 346.772 121.909C338.065 119.528 329.044 124.673 326.663 133.381C324.282 142.089 329.428 151.112 338.135 153.493C346.843 155.874 355.865 150.727 358.247 142.019Z" fill="#4A72B2"/>
<g opacity="0.27">
<path d="M340.853 145.262C346.082 148.13 352.646 146.215 355.513 140.987C358.381 135.758 356.466 129.194 351.237 126.327C346.008 123.459 339.445 125.374 336.578 130.603C333.71 135.831 335.624 142.395 340.853 145.262Z" fill="white"/>
</g>
<defs>
<linearGradient id="paint0_linear_577_491" x1="277.447" y1="119.992" x2="13.1525" y2="47.7127" gradientUnits="userSpaceOnUse">
<stop stop-color="#EDE629"/>
<stop offset="0.533654" stop-color="#EDE629" stop-opacity="0.3"/>
<stop offset="1" stop-color="#EDE629" stop-opacity="0"/>
</linearGradient>
</defs>
</svg>
