<svg width="162" height="163" viewBox="0 0 162 163" fill="none" xmlns="http://www.w3.org/2000/svg">
<path d="M89.5379 39.1052L39.375 89.2682L73.4706 123.364L123.634 73.2009L89.5379 39.1052Z" fill="white"/>
<path d="M108.133 63.2815L63.5508 107.864L73.9992 118.312L118.582 73.7299L108.133 63.2815Z" fill="#DEDEDE"/>
<path d="M94.3804 34.2631L89.5391 39.1044L123.635 73.2L128.476 68.3587L94.3804 34.2631Z" fill="#B5B5B5"/>
<path d="M39.3779 89.2674L34.5352 94.1102L68.6308 128.206L73.4736 123.363L39.3779 89.2674Z" fill="#B5B5B5"/>
<path d="M102.532 78.8705L94.7251 71.0639C92.5194 68.8582 88.9426 68.8582 86.7369 71.0639L72.5762 85.2247C70.3704 87.4304 70.3704 91.0071 72.5762 93.2128L80.3828 101.019C82.5885 103.225 86.1652 103.225 88.3709 101.019L102.532 86.8586C104.737 84.6529 104.737 81.0762 102.532 78.8705ZM88.2206 98.2566C86.4218 100.055 83.5046 100.055 81.7058 98.2566L75.339 91.8899C73.5402 90.0911 73.5402 87.1738 75.339 85.375L86.8872 73.8268C88.686 72.028 91.6033 72.028 93.4021 73.8268L99.7688 80.1935C101.568 81.9923 101.568 84.9096 99.7688 86.7084L88.2206 98.2566Z" fill="#B5B5B5"/>
<path d="M67.2907 55.4934L55.7578 67.0263L58.6838 69.9523L70.2167 58.4194L67.2907 55.4934Z" fill="#696969"/>
<path d="M60.0646 56.5304L56.7578 59.8372L59.8698 62.9491L63.1765 59.6424L60.0646 56.5304Z" fill="#B5B5B5"/>
<path d="M35.0966 0.73341L1.00391 34.8261L41.3677 75.1899L75.4604 41.0972L35.0966 0.73341Z" fill="#7A7A7A"/>
<path d="M35.5884 6.51691L6.79297 35.3124L40.8857 69.4051L69.6811 40.6096L35.5884 6.51691Z" fill="#363636"/>
<path d="M35.8334 9.47943L9.75 35.5628L40.6304 66.4432L66.7138 40.3598L35.8334 9.47943Z" fill="#56AFC4"/>
<path d="M35.8438 9.4834L66.7238 40.3655L40.6413 66.448L35.8438 9.4834Z" fill="#60C4DB"/>
<path d="M18.6331 35.0004L22.9652 39.3326L18.2471 44.0507L18.4745 44.2782L23.1927 39.56L27.5248 43.8922L22.8087 48.6124L23.0362 48.8399L27.7544 44.1217L32.0865 48.4539L27.3684 53.172L27.5958 53.3995L32.314 48.6813L36.6461 53.0134L31.9279 57.7316L32.1554 57.9591L36.8736 53.2409L41.2057 57.573L36.4875 62.2912L36.7149 62.5187L41.4332 57.8005L45.3583 61.7257L45.5858 61.4982L41.6606 57.573L46.9047 52.329L50.8299 56.2541L51.0573 56.0267L47.1342 52.1015L52.3783 46.8574L56.3014 50.7827L56.5289 50.5552L52.6057 46.63L57.8498 41.3859L61.7729 45.3091L62.0003 45.0816L58.0752 41.1564L62.7933 36.4382L62.5658 36.2108L57.8477 40.9289L53.5156 36.5968L58.2337 31.8786L58.0063 31.6512L53.2881 36.3693L48.956 32.0372L53.6741 27.319L53.4467 27.0916L48.7285 31.8098L44.3963 27.4776L49.1146 22.7594L48.8871 22.532L44.1689 27.2502L39.8368 22.9181L44.555 18.1998L44.3275 17.9724L39.6093 22.6906L35.2772 18.3585L39.9954 13.6403L39.7679 13.4128L35.0498 18.131L31.1245 14.2058L30.897 14.4332L34.8202 18.3564L29.5761 23.6004L25.6509 19.6752L25.4235 19.9027L29.3486 23.8278L24.1046 29.0719L20.1794 25.1467L19.9519 25.3742L23.8772 29.2994L18.6331 34.5434L14.7079 30.6182L14.4804 30.8457L18.4057 34.7709L13.6875 39.4891L13.9149 39.7165L18.6331 35.0004ZM29.5803 24.0553L33.9124 28.3875L28.6684 33.6315L24.3363 29.2994L29.5803 24.0553ZM37.7897 42.7549L33.4575 38.4227L38.7036 33.1787L43.0358 37.5108L37.7897 42.7549ZM43.2632 37.7383L47.5954 42.0704L42.3492 47.3165L38.0171 42.9844L43.2632 37.7383ZM33.228 38.1932L28.8959 33.8611L34.142 28.617L38.4741 32.9491L33.228 38.1932ZM39.386 22.9139L34.142 28.1579L29.8098 23.8258L35.0539 18.5796L39.386 22.9139ZM43.9477 27.4755L38.7036 32.7196L34.3715 28.3875L39.6156 23.1413L43.9477 27.4755ZM48.5073 32.0372L43.2612 37.2813L38.929 32.9491L44.1731 27.703L48.5073 32.0372ZM53.069 36.5968L47.8249 41.843L43.4928 37.5108L48.7369 32.2646L53.069 36.5968ZM52.3845 46.4026L48.0524 42.0704L53.2964 36.8263L57.6285 41.1585L52.3845 46.4026ZM46.9109 51.8761L42.5788 47.544L47.8228 42.3L52.155 46.6321L46.9109 51.8761ZM37.1052 53.0176L42.3492 47.7735L46.6814 52.1057L41.4353 57.3498L37.1052 53.0176ZM32.5435 48.4559L37.7876 43.2118L42.1197 47.544L36.8736 52.7902L32.5435 48.4559ZM27.9839 43.8943L33.2301 38.6502L37.5622 42.9823L32.316 48.2285L27.9839 43.8943ZM23.4222 39.3346L28.6684 34.0906L33.0005 38.4227L27.7564 43.6689L23.4222 39.3346ZM18.8626 34.773L24.1067 29.5268L28.4389 33.859L23.1948 39.1051L18.8626 34.773Z" fill="white"/>
<path d="M104.32 92.5034L92.7852 104.038L95.7112 106.964L107.246 95.4294L104.32 92.5034Z" fill="#696969"/>
<path d="M103.135 99.5567L99.8281 102.863L102.94 105.975L106.247 102.669L103.135 99.5567Z" fill="#B5B5B5"/>
<path d="M121.636 87.2758L87.543 121.368L127.907 161.732L161.999 127.64L121.636 87.2758Z" fill="#7A7A7A"/>
<path d="M122.127 93.0601L93.332 121.856L127.425 155.948L156.22 127.153L122.127 93.0601Z" fill="#363636"/>
<path d="M122.372 96.0252L96.2891 122.109L127.169 152.989L153.253 126.906L122.372 96.0252Z" fill="#56AFC4"/>
<path d="M122.383 96.0198L153.265 126.902L127.182 152.987L122.383 96.0198Z" fill="#60C4DB"/>
<path d="M105.171 121.539L109.503 125.871L104.785 130.589L105.012 130.817L109.73 126.098L114.062 130.431L109.344 135.149L109.572 135.376L114.29 130.658L118.622 134.99L113.904 139.708L114.131 139.936L118.849 135.218L123.182 139.55L118.463 144.268L118.691 144.495L123.409 139.777L127.741 144.109L123.023 148.827L123.25 149.055L127.969 144.337L131.892 148.262L132.119 148.035L128.194 144.111L133.44 138.865L137.365 142.791L137.593 142.563L133.668 138.638L138.912 133.392L142.837 137.317L143.064 137.089L139.139 133.164L144.383 127.92L148.308 131.845L148.536 131.618L144.611 127.693L149.329 122.975L149.101 122.747L144.383 127.465L140.051 123.133L144.769 118.415L144.542 118.187L139.824 122.906L135.491 118.574L140.21 113.855L139.982 113.628L135.264 118.346L130.932 114.014L135.65 109.296L135.423 109.068L130.704 113.786L126.372 109.454L131.09 104.736L130.863 104.509L126.145 109.227L121.813 104.895L126.531 100.177L126.303 99.9492L121.585 104.667L117.66 100.742L117.432 100.97L121.358 104.895L116.112 110.139L112.186 106.214L111.959 106.441L115.884 110.366L110.638 115.61L106.713 111.685L106.485 111.913L110.408 115.836L105.164 121.082L101.239 117.157L101.012 117.384L104.937 121.309L100.219 126.027L100.446 126.255L105.171 121.539ZM116.116 110.592L120.448 114.924L115.202 120.17L110.87 115.838L116.116 110.592ZM124.325 129.291L119.993 124.959L125.237 119.715L129.569 124.047L124.325 129.291ZM129.799 124.275L134.131 128.607L128.887 133.853L124.555 129.521L129.799 124.275ZM119.766 124.732L115.433 120.399L120.677 115.155L125.01 119.488L119.766 124.732ZM125.922 109.452L120.677 114.698L116.345 110.366L121.589 105.12L125.922 109.452ZM130.483 114.014L125.239 119.258L120.907 114.926L126.151 109.682L130.483 114.014ZM135.045 118.574L129.801 123.82L125.469 119.488L130.713 114.243L135.045 118.574ZM139.604 123.135L134.36 128.381L130.028 124.049L135.274 118.805L139.604 123.135ZM138.922 132.941L134.59 128.609L139.836 123.365L144.168 127.697L138.922 132.941ZM133.448 138.415L129.116 134.082L134.362 128.838L138.695 133.17L133.448 138.415ZM123.643 139.554L128.887 134.308L133.219 138.64L127.975 143.884L123.643 139.554ZM119.081 134.994L124.325 129.75L128.657 134.082L123.413 139.326L119.081 134.994ZM114.519 130.433L119.763 125.189L124.096 129.521L118.849 134.765L114.519 130.433ZM109.96 125.871L115.204 120.627L119.536 124.959L114.292 130.203L109.96 125.871ZM105.398 121.309L110.642 116.065L114.974 120.397L109.73 125.644L105.398 121.309Z" fill="white"/>
<path d="M49.99 162.646L0.101562 112.758C11.3492 101.51 31.6348 103.559 45.4116 117.336C59.1884 131.113 61.2377 151.398 49.99 162.646Z" fill="white"/>
<path d="M6.875 155.874L21.6368 134.291L28.4605 141.115L6.875 155.874Z" fill="#636363"/>
<path d="M3.59331 159.155C2.68765 158.249 2.68765 156.782 3.59331 155.877C4.49896 154.971 5.96593 154.971 6.87159 155.877C7.77724 156.782 7.77724 158.249 6.87159 159.155C5.96802 160.061 4.49896 160.061 3.59331 159.155Z" fill="white"/>
<path d="M127.614 52.9592L109.791 35.136L94.3906 34.2617L128.488 68.3595L127.614 52.9592Z" fill="#696969"/>
<path d="M35.4152 109.509L53.2404 127.334L68.6387 128.206L34.543 94.1103L35.4152 109.509Z" fill="#696969"/>
</svg>
