<svg width="1460" height="636" viewBox="0 0 1460 636" fill="none" xmlns="http://www.w3.org/2000/svg">
<path d="M33 383C33 383 26.0615 384.268 25.6146 384.694C25.1947 385.094 24 392 24 392C24 392 22.8053 385.094 22.3854 384.694C21.9385 384.268 15 383 15 383C15 383 21.8484 381.948 22.1639 381.549C22.5925 381.008 24 374 24 374C24 374 25.4075 381.008 25.8361 381.549C26.1516 381.948 33 383 33 383Z" fill="#FFF07F" fill-opacity="0.67"/>
<path d="M18 9C18 9 11.0615 10.2676 10.6146 10.6937C10.1947 11.0941 9 18 9 18C9 18 7.80532 11.0941 7.3854 10.6937C6.93848 10.2676 0 9 0 9C0 9 6.84838 7.94799 7.16391 7.5492C7.59249 7.00754 9 0 9 0C9 0 10.4075 7.00754 10.8361 7.5492C11.1516 7.94799 18 9 18 9Z" fill="#FFE520"/>
<path d="M505 129C505 129 498.062 130.268 497.615 130.694C497.195 131.094 496 138 496 138C496 138 494.805 131.094 494.385 130.694C493.938 130.268 487 129 487 129C487 129 493.848 127.948 494.164 127.549C494.592 127.008 496 120 496 120C496 120 497.408 127.008 497.836 127.549C498.152 127.948 505 129 505 129Z" fill="#FFFDBB" fill-opacity="0.79"/>
<path d="M1024 368C1024 368 1017.06 369.268 1016.61 369.694C1016.19 370.094 1015 377 1015 377C1015 377 1013.81 370.094 1013.39 369.694C1012.94 369.268 1006 368 1006 368C1006 368 1012.85 366.948 1013.16 366.549C1013.59 366.008 1015 359 1015 359C1015 359 1016.41 366.008 1016.84 366.549C1017.15 366.948 1024 368 1024 368Z" fill="#FFD760"/>
<path d="M1460 627C1460 627 1453.06 628.268 1452.61 628.694C1452.19 629.094 1451 636 1451 636C1451 636 1449.81 629.094 1449.39 628.694C1448.94 628.268 1442 627 1442 627C1442 627 1448.85 625.948 1449.16 625.549C1449.59 625.008 1451 618 1451 618C1451 618 1452.41 625.008 1452.84 625.549C1453.15 625.948 1460 627 1460 627Z" fill="#FFEA00" fill-opacity="0.67"/>
<path d="M1295 99C1295 99 1288.06 100.268 1287.61 100.694C1287.19 101.094 1286 108 1286 108C1286 108 1284.81 101.094 1284.39 100.694C1283.94 100.268 1277 99 1277 99C1277 99 1283.85 97.948 1284.16 97.5492C1284.59 97.0075 1286 90 1286 90C1286 90 1287.41 97.0075 1287.84 97.5492C1288.15 97.948 1295 99 1295 99Z" fill="#FFFDCB"/>
</svg>
