<svg width="85" height="39" viewBox="0 0 85 39" fill="none" xmlns="http://www.w3.org/2000/svg">
<path d="M42.3348 22.818C48.6358 22.818 53.7438 17.71 53.7438 11.409C53.7438 5.10798 48.6358 0 42.3348 0C36.0338 0 30.9258 5.10798 30.9258 11.409C30.9258 17.71 36.0338 22.818 42.3348 22.818Z" fill="#F6E6A7"/>
<path d="M42.3343 35.5651C64.5262 35.5651 82.5163 30.4387 82.5163 24.1151C82.5163 17.7914 64.5262 12.665 42.3343 12.665C20.1424 12.665 2.15234 17.7914 2.15234 24.1151C2.15234 30.4387 20.1424 35.5651 42.3343 35.5651Z" fill="#AFDADE"/>
<path d="M51.9139 35.209H32.7539V38.499H51.9139V35.209Z" fill="#95B9BD"/>
<path d="M2.20312 24.687C3.24812 30.745 20.8151 35.566 42.3351 35.566C63.8551 35.566 81.4221 30.746 82.4671 24.687H2.20312Z" fill="#699396"/>
<path d="M84.1688 27.2822C56.2798 27.2822 28.3907 27.2822 0.50175 27.2822C-0.16725 25.2242 -0.16725 23.0072 0.50175 20.9492C28.3907 20.9492 56.2798 20.9492 84.1688 20.9492C84.8368 23.0072 84.8368 25.2242 84.1688 27.2822Z" fill="#95B9BD"/>
<path d="M7.33398 26.1152C8.43855 26.1152 9.33398 25.2198 9.33398 24.1152C9.33398 23.0107 8.43855 22.1152 7.33398 22.1152C6.22941 22.1152 5.33398 23.0107 5.33398 24.1152C5.33398 25.2198 6.22941 26.1152 7.33398 26.1152Z" fill="white"/>
<path d="M24.834 26.1152C25.9386 26.1152 26.834 25.2198 26.834 24.1152C26.834 23.0107 25.9386 22.1152 24.834 22.1152C23.7294 22.1152 22.834 23.0107 22.834 24.1152C22.834 25.2198 23.7294 26.1152 24.834 26.1152Z" fill="white"/>
<path d="M42.334 26.1152C43.4386 26.1152 44.334 25.2198 44.334 24.1152C44.334 23.0107 43.4386 22.1152 42.334 22.1152C41.2294 22.1152 40.334 23.0107 40.334 24.1152C40.334 25.2198 41.2294 26.1152 42.334 26.1152Z" fill="white"/>
<path d="M59.834 26.1152C60.9386 26.1152 61.834 25.2198 61.834 24.1152C61.834 23.0107 60.9386 22.1152 59.834 22.1152C58.7294 22.1152 57.834 23.0107 57.834 24.1152C57.834 25.2198 58.7294 26.1152 59.834 26.1152Z" fill="white"/>
<path d="M77.334 26.1152C78.4386 26.1152 79.334 25.2198 79.334 24.1152C79.334 23.0107 78.4386 22.1152 77.334 22.1152C76.2294 22.1152 75.334 23.0107 75.334 24.1152C75.334 25.2198 76.2294 26.1152 77.334 26.1152Z" fill="white"/>
<path d="M55.169 11.6489H29.502V13.9559H55.169V11.6489Z" fill="#699396"/>
<path d="M34.4534 10.9028C34.7944 5.6248 38.4204 1.39881 42.9964 0.912811C42.7064 0.881811 42.4134 0.861816 42.1154 0.861816C37.1304 0.861816 33.0564 5.28879 32.6934 10.9018H34.4534V10.9028Z" fill="white"/>
</svg>
