<svg width="2073" height="1304" viewBox="0 0 2073 1304" fill="none" xmlns="http://www.w3.org/2000/svg">
<path d="M1770.7 701.337C1936.53 609.474 1991.97 509.947 2045.22 328.332C2075.82 223.941 2072.93 47.6945 2072.93 47.6945L1660.28 27C1635.87 189.259 1606.91 431.396 1500.51 551.428C1408.34 655.403 1282.73 559.38 1184.42 655.405C1097.47 740.336 1134.04 870.907 1044.56 952.194C1002.15 990.723 964.846 987.478 922.023 1025.38C842.837 1095.47 780 1271.7 780 1271.7L902.105 1304C930.394 1256.39 929.818 1198 996.931 1152.07C1064.04 1106.14 1117.3 1163.68 1198.27 1126.84C1279.25 1089.99 1240.19 933.506 1310.85 843.674C1436.43 684.037 1604.86 793.2 1770.7 701.337Z" fill="url(#paint0_linear_614_10)"/>
<path d="M990.695 674.337C1156.53 582.474 1211.97 482.947 1265.22 301.332C1295.82 196.941 1292.93 20.6945 1292.93 20.6945L880.281 0C855.871 162.259 826.907 404.396 720.506 524.428C628.338 628.403 502.729 532.38 404.419 628.405C317.466 713.336 354.039 843.907 264.561 925.194C222.149 963.723 184.846 960.478 142.023 998.382C62.8372 1068.47 0 1244.7 0 1244.7L122.105 1277C150.394 1229.39 149.818 1171 216.931 1125.07C284.044 1079.14 337.303 1136.68 418.274 1099.84C499.246 1062.99 460.191 906.506 530.853 816.674C656.426 657.037 824.858 766.2 990.695 674.337Z" fill="url(#paint1_linear_614_10)"/>
<defs>
<linearGradient id="paint0_linear_614_10" x1="1426.5" y1="27" x2="1426.5" y2="1304" gradientUnits="userSpaceOnUse">
<stop stop-color="#1F0360" stop-opacity="0.2"/>
<stop offset="0.97906" stop-color="#1F0360" stop-opacity="0"/>
</linearGradient>
<linearGradient id="paint1_linear_614_10" x1="646.5" y1="-3.14898e-05" x2="646.5" y2="1277" gradientUnits="userSpaceOnUse">
<stop stop-color="#1F0360" stop-opacity="0.2"/>
<stop offset="0.97906" stop-color="#1F0360" stop-opacity="0"/>
</linearGradient>
</defs>
</svg>
