<svg width="2408" height="1728" viewBox="0 0 2408 1728" fill="none" xmlns="http://www.w3.org/2000/svg">
<path d="M504.085 1060C312.585 1151 248.571 1249.59 187.085 1429.5C151.743 1532.91 155.085 1707.5 155.085 1707.5L631.585 1728C659.772 1567.27 693.219 1327.4 816.085 1208.5C922.515 1105.5 1067.56 1200.62 1181.08 1105.5C1281.49 1021.37 1239.26 892.024 1342.58 811.5C1391.56 773.333 1434.63 776.548 1484.08 739C1575.52 669.57 1648.08 495 1648.08 495L1507.08 463C1474.42 510.167 1475.08 568 1397.58 613.5C1320.09 659 1258.59 602 1165.08 638.5C1071.58 675 1116.68 830.012 1035.08 919C890.08 1077.14 695.585 969 504.085 1060Z" fill="url(#paint0_linear_614_4)"/>
<path d="M349.085 597C157.585 688 93.5709 786.592 32.0845 966.5C-3.2574 1069.91 0.0845316 1244.5 0.0845316 1244.5L476.585 1265C504.772 1104.27 538.219 864.404 661.085 745.5C767.515 642.502 912.561 737.623 1026.08 642.5C1126.49 558.367 1084.26 429.024 1187.58 348.5C1236.56 310.333 1279.63 313.548 1329.08 276C1420.52 206.57 1493.08 32 1493.08 32L1352.08 0C1319.42 47.1667 1320.08 105 1242.58 150.5C1165.09 196 1103.59 139 1010.08 175.5C916.583 212 961.682 367.012 880.085 456C735.08 614.138 540.585 506 349.085 597Z" fill="url(#paint1_linear_614_4)"/>
<path d="M2105.7 913.337C2271.53 821.474 2326.97 721.947 2380.22 540.332C2410.82 435.941 2407.93 259.694 2407.93 259.694L1995.28 239C1970.87 401.259 1941.91 643.396 1835.51 763.428C1743.34 867.403 1617.73 771.38 1519.42 867.405C1432.47 952.336 1469.04 1082.91 1379.56 1164.19C1337.15 1202.72 1299.85 1199.48 1257.02 1237.38C1177.84 1307.47 1115 1483.7 1115 1483.7L1237.1 1516C1265.39 1468.39 1264.82 1410 1331.93 1364.07C1399.04 1318.14 1452.3 1375.68 1533.27 1338.84C1614.25 1301.99 1575.19 1145.51 1645.85 1055.67C1771.43 896.037 1939.86 1005.2 2105.7 913.337Z" fill="url(#paint2_linear_614_4)"/>
<defs>
<linearGradient id="paint0_linear_614_4" x1="901.542" y1="463" x2="901.542" y2="1728" gradientUnits="userSpaceOnUse">
<stop stop-color="white" stop-opacity="0.1"/>
<stop offset="0.816203" stop-color="white" stop-opacity="0"/>
</linearGradient>
<linearGradient id="paint1_linear_614_4" x1="746.542" y1="0" x2="746.542" y2="1265" gradientUnits="userSpaceOnUse">
<stop stop-color="white" stop-opacity="0.1"/>
<stop offset="0.816203" stop-color="white" stop-opacity="0"/>
</linearGradient>
<linearGradient id="paint2_linear_614_4" x1="1761.5" y1="239" x2="1761.5" y2="1516" gradientUnits="userSpaceOnUse">
<stop stop-color="white" stop-opacity="0.1"/>
<stop offset="0.97906" stop-color="white" stop-opacity="0"/>
</linearGradient>
</defs>
</svg>
