<svg width="467" height="369" viewBox="0 0 467 369" fill="none" xmlns="http://www.w3.org/2000/svg">
<path d="M427.502 293.047C427.502 300.142 377.074 305.894 314.867 305.894C252.659 305.894 202.23 300.142 202.23 293.047C202.23 285.952 252.659 280.2 314.867 280.2C377.074 280.2 427.502 285.952 427.502 293.047Z" fill="#606D91"/>
<path d="M227.497 280.2C227.497 286.757 189.229 292.073 142.024 292.073C94.8198 292.073 56.5508 286.758 56.5508 280.2C56.5508 273.642 94.8198 268.327 142.024 268.327C189.23 268.327 227.497 273.643 227.497 280.2Z" fill="#606D91"/>
<path d="M118.666 146.989C122.44 164.739 132.049 167.672 132.049 167.672L132.054 176.267C132.054 176.267 141.44 252.84 166.084 278.549H184.51C191.321 260.085 188.461 212.389 186.137 207.16C183.112 200.349 182.737 188.862 189.043 180.286C195.346 171.71 194.844 165.402 186.266 156.576C177.691 147.746 185.483 142.839 175.418 123.783C167.096 108.017 153.986 102.595 144.648 102.595C123.46 102.595 113.863 115.033 115.642 131.475C116.139 136.129 118.018 143.943 118.666 146.989Z" fill="#EA507E"/>
<path d="M202.106 264.297C202.593 269.313 201.684 273.415 195.324 276.643C190.823 278.925 183.197 273.3 181.461 268.565C178.798 261.294 173.361 239.939 173.361 239.939C172.869 238.353 174.004 197.263 175.057 198.803C186.985 216.224 202.106 264.297 202.106 264.297Z" fill="#82B1DF"/>
<path d="M113.004 278.548H168.908C168.87 264.657 169.83 249.63 173.357 239.94C182.813 213.975 174.472 197.626 174.472 197.626C166.948 194.282 153.226 185.334 153.226 185.334H130.815C130.815 185.334 111.552 193.3 104.587 197.974C104.587 197.974 97.0604 211.809 107.156 240.916C110.493 250.532 112.172 265.065 113.004 278.548Z" fill="#82B1DF"/>
<path d="M130.816 185.333L141.823 195.829L153.228 185.333V166.577H130.816V185.333Z" fill="#E78779"/>
<path d="M118.339 153.649C120.271 161.995 131.956 177.784 142.487 177.784C151.534 177.784 166.089 164.65 166.723 155.988C166.723 155.988 168.98 140.519 169.299 135.319C170.256 119.93 155.867 107.413 142.486 107.413C129.094 107.413 114.193 119.94 115.287 135.319C115.655 140.529 117.163 148.566 118.339 153.649Z" fill="#F69583"/>
<path d="M102.308 278.548C104.296 268.212 107.204 251.274 107.159 240.916C107.045 214.507 107.159 196.284 107.159 196.284C107.159 196.284 95.7457 201.5 91.5777 219.939C89.9467 227.152 87.6327 252.834 85.5977 278.549H102.308V278.548Z" fill="#82B1DF"/>
<path d="M145.367 160.536C145.254 160.536 145.129 160.528 145.015 160.522C144.815 160.498 144.652 160.321 144.679 160.118C144.696 159.915 144.858 159.744 145.086 159.777C145.834 159.85 146.402 159.633 146.463 159.467C146.496 159.396 146.421 159.139 145.802 158.719C143.936 157.451 143.721 153.035 143.707 152.853C143.704 152.648 143.861 152.474 144.07 152.462C144.285 152.454 144.445 152.614 144.453 152.815C144.504 153.989 144.924 157.228 146.215 158.106C147.036 158.654 147.352 159.199 147.168 159.716C146.957 160.3 146.16 160.536 145.367 160.536Z" fill="#071938"/>
<path d="M156.976 149.208C157.533 149.208 158.037 149.433 158.397 149.836C158.693 150.196 158.845 150.65 158.845 151.14C158.845 152.106 158.198 153.095 156.976 153.095C156.391 153.095 155.887 152.865 155.538 152.456C155.233 152.105 155.07 151.647 155.07 151.14C155.069 150.183 155.717 149.208 156.976 149.208Z" fill="#071938"/>
<path d="M133.586 149.208C133.027 149.208 132.525 149.433 132.165 149.836C131.869 150.196 131.715 150.65 131.715 151.14C131.715 152.106 132.363 153.095 133.586 153.095C134.17 153.095 134.674 152.865 135.023 152.456C135.33 152.105 135.493 151.647 135.493 151.14C135.492 150.183 134.844 149.208 133.586 149.208Z" fill="#071938"/>
<path d="M129.117 144.319C129.117 144.319 131.212 141.72 135.887 143.299" stroke="#071938" stroke-width="1.0524" stroke-miterlimit="10" stroke-linecap="round" stroke-linejoin="round"/>
<path d="M160.924 144.319C160.924 144.319 158.83 141.72 154.156 143.299" stroke="#071938" stroke-width="1.0524" stroke-miterlimit="10" stroke-linecap="round" stroke-linejoin="round"/>
<path d="M152.191 159.498C152.191 161.161 154.243 162.504 156.788 162.504C159.326 162.504 161.38 161.161 161.38 159.498C161.38 157.842 159.326 156.499 156.788 156.499C154.242 156.499 152.191 157.842 152.191 159.498Z" fill="#F37784"/>
<path d="M129.184 160.132C129.184 161.789 131.243 163.131 133.784 163.131C136.321 163.131 138.376 161.79 138.376 160.132C138.376 158.468 136.321 157.126 133.784 157.126C131.242 157.126 129.184 158.468 129.184 160.132Z" fill="#F37784"/>
<path d="M151.137 165.297C151.032 168.553 148.101 171.174 144.491 171.174C140.879 171.174 137.947 168.553 137.848 165.297H151.137Z" fill="white"/>
<path d="M116.026 142.244C116.026 142.244 119.919 140.653 122.514 145.432C122.514 145.432 122.01 133.749 126.741 126.203C126.741 126.203 133.497 135.733 145.657 136.132C157.817 136.53 164.938 140.791 168.149 149.144C168.149 149.144 173.876 136.702 168.149 123.375C162.995 111.386 149.596 105.225 141.064 105.547C132.532 105.872 110.161 116.974 116.026 142.244Z" fill="#EA507E"/>
<path d="M115.269 146.173C115.648 148.932 117.609 150.941 119.65 150.665C121.7 150.38 123.051 147.923 122.678 145.164C122.303 142.41 120.347 140.4 118.301 140.678C116.256 140.954 114.896 143.415 115.269 146.173Z" fill="#F69583"/>
<path d="M130.819 197.284H153.23C153.23 197.284 154.998 180.641 153.23 180.641C153.23 180.641 142.816 183.708 130.819 180.641C129.944 180.417 130.819 197.284 130.819 197.284Z" fill="#82B1DF"/>
<path d="M125.989 139.557L125.99 139.557C126.796 139.556 127.451 140.211 127.451 141.02C127.451 141.829 126.796 142.484 125.989 142.484C125.178 142.484 124.523 141.828 124.523 141.02C124.523 140.212 125.178 139.557 125.989 139.557Z" fill="white" stroke="white"/>
<path d="M146.667 153.508C146.667 154.316 146.013 154.971 145.202 154.971C144.395 154.971 143.738 154.316 143.738 153.508C143.738 152.699 144.395 152.044 145.202 152.044C146.012 152.044 146.667 152.699 146.667 153.508Z" fill="white" stroke="white"/>
<path d="M160.614 142.983C160.614 143.791 159.958 144.447 159.149 144.447C158.341 144.447 157.684 143.791 157.684 142.983C157.684 142.176 158.341 141.519 159.148 141.519C159.958 141.52 160.614 142.176 160.614 142.983Z" fill="white" stroke="white"/>
<path d="M133.398 171.087C133.398 171.895 132.742 172.551 131.934 172.551C131.123 172.551 130.469 171.896 130.469 171.087C130.469 170.278 131.123 169.623 131.934 169.623C132.742 169.623 133.398 170.278 133.398 171.087Z" fill="white" stroke="white"/>
<path d="M159.276 174.184C159.276 174.993 158.621 175.647 157.813 175.647C157.004 175.647 156.348 174.991 156.348 174.184C156.348 173.376 157.004 172.721 157.813 172.721C158.621 172.721 159.276 173.374 159.276 174.184Z" fill="white" stroke="white"/>
<path d="M131.933 171.087L145.202 153.508L125.988 141.02" stroke="white" stroke-width="0.6043" stroke-miterlimit="10"/>
<path d="M146.109 154.716L158.32 174.184" stroke="white" stroke-width="0.6043" stroke-miterlimit="10"/>
<path d="M158.32 173.19L159.779 142.983" stroke="white" stroke-width="0.6043" stroke-miterlimit="10"/>
<path d="M131.329 171.087L125.387 141.02L159.15 142.531L146.388 153.005" stroke="white" stroke-width="0.6043" stroke-miterlimit="10"/>
<path d="M132.551 172.22L156.974 174.184" stroke="white" stroke-width="0.6043" stroke-miterlimit="10"/>
<path d="M222.548 94.9609H64.8594V278.433H222.548V94.9609Z" stroke="#000435" stroke-opacity="0.4" stroke-width="1.1587" stroke-miterlimit="10"/>
<path d="M200.237 120.922H87.1719V252.473H200.237V120.922Z" stroke="#000435" stroke-opacity="0.4" stroke-width="1.1587" stroke-miterlimit="10"/>
<path d="M113.848 186.83L157.814 224.592L211.527 190.152L176.362 136.596L113.848 186.83Z" fill="url(#paint0_linear_631_1565)"/>
<path d="M211.329 189.725H156.469V224.592H211.329V189.725Z" fill="#00001E"/>
<path d="M184.116 266.021C184.116 266.021 203.193 223.695 201.778 220.176C201.016 218.278 199.442 210.282 199.245 208.47C198.126 198.269 209.042 190.574 214.587 209.275C215.812 213.408 213.267 219.238 212.449 221.621C211.916 223.173 211.681 225.222 211.681 225.222L202.161 269.929C201.08 274.855 196.609 278.167 191.075 276.892C186.162 275.76 183.035 270.945 184.116 266.021Z" fill="#F69583"/>
<path d="M216.11 162.123H210.781V185.464H216.11V162.123Z" fill="#000435"/>
<path d="M216.11 190.61H210.781V202.281H216.11V190.61Z" fill="#000435"/>
<path d="M416.287 287.613C416.287 290.614 413.858 293.047 410.858 293.047H218.882C215.883 293.047 213.445 290.613 213.445 287.613V149.69C213.445 146.687 215.883 144.258 218.882 144.258H410.859C413.859 144.258 416.288 146.687 416.288 149.69V287.613H416.287Z" fill="#000435"/>
<path d="M416.286 152.859H213.453V281.447H416.286V152.859Z" fill="#00B2D6"/>
<path d="M331.831 287.332C331.831 288.085 331.227 288.69 330.472 288.69H299.253C298.505 288.69 297.898 288.084 297.898 287.332C297.898 286.584 298.506 285.974 299.253 285.974H330.472C331.227 285.975 331.831 286.584 331.831 287.332Z" fill="#00B2D6"/>
<path d="M325.285 148.937C325.285 149.645 324.712 150.219 324.005 150.219H305.74C305.033 150.219 304.457 149.646 304.457 148.937C304.457 148.224 305.033 147.654 305.74 147.654H324.005C324.712 147.654 325.285 148.224 325.285 148.937Z" fill="#00B2D6"/>
<path d="M393.994 223.431C393.994 224.397 393.211 225.18 392.244 225.18H346.324C345.359 225.18 344.574 224.397 344.574 223.431V205.5C344.574 204.534 345.359 203.751 346.324 203.751H392.244C393.211 203.751 393.994 204.534 393.994 205.5V223.431Z" fill="#000435"/>
<path d="M356.532 212.102C356.321 212.102 356.164 212.042 356.059 211.923C355.954 211.803 355.901 211.65 355.901 211.461V208.548C355.901 208.353 355.848 208.195 355.744 208.075C355.639 207.955 355.481 207.896 355.271 207.896C355.053 207.896 354.894 207.956 354.793 208.075C354.691 208.195 354.641 208.352 354.641 208.548C354.641 209.208 354.679 209.801 354.755 210.33C354.831 210.859 354.935 211.348 355.065 211.797C355.196 212.246 355.342 212.67 355.505 213.068C355.668 213.466 355.833 213.863 355.999 214.258C356.166 214.653 356.331 215.057 356.494 215.47C356.657 215.883 356.804 216.332 356.933 216.818C357.064 217.303 357.167 217.836 357.244 218.416C357.32 218.996 357.358 219.648 357.358 220.372C357.358 220.662 357.308 220.921 357.211 221.149C357.113 221.378 356.972 221.573 356.787 221.736C356.602 221.899 356.382 222.024 356.124 222.111C355.867 222.198 355.583 222.241 355.271 222.241C354.612 222.241 354.099 222.075 353.733 221.741C353.367 221.408 353.184 220.952 353.184 220.372V217.046C353.184 216.981 353.203 216.926 353.239 216.883C353.275 216.84 353.329 216.818 353.402 216.818H354.01C354.22 216.818 354.377 216.878 354.483 216.997C354.587 217.117 354.64 217.27 354.64 217.459V220.372C354.64 220.568 354.693 220.725 354.798 220.845C354.902 220.965 355.061 221.024 355.271 221.024C355.488 221.024 355.647 220.964 355.749 220.845C355.851 220.725 355.901 220.568 355.901 220.372C355.901 219.445 355.835 218.633 355.7 217.937C355.566 217.242 355.398 216.609 355.195 216.041C354.992 215.473 354.775 214.933 354.543 214.422C354.312 213.911 354.094 213.373 353.891 212.808C353.689 212.243 353.52 211.62 353.386 210.939C353.252 210.258 353.185 209.461 353.185 208.548C353.185 208.258 353.234 207.999 353.331 207.771C353.43 207.542 353.57 207.347 353.755 207.184C353.941 207.021 354.159 206.896 354.413 206.809C354.666 206.722 354.952 206.679 355.271 206.679C355.93 206.679 356.443 206.846 356.809 207.179C357.174 207.512 357.358 207.969 357.358 208.548V211.874C357.358 211.939 357.34 211.994 357.303 212.037C357.267 212.08 357.212 212.102 357.14 212.102H356.532Z" fill="white"/>
<path d="M365.506 216.058C365.506 215.87 365.557 215.716 365.658 215.596C365.76 215.476 365.912 215.413 366.114 215.406H366.745C366.817 215.406 366.872 215.428 366.908 215.471C366.944 215.515 366.963 215.569 366.963 215.634V220.372C366.963 220.952 366.779 221.408 366.414 221.741C366.048 222.075 365.535 222.241 364.876 222.241C364.557 222.241 364.271 222.198 364.018 222.111C363.764 222.024 363.545 221.899 363.36 221.736C363.175 221.573 363.035 221.378 362.936 221.149C362.838 220.921 362.789 220.662 362.789 220.372V208.548C362.789 207.968 362.972 207.512 363.338 207.179C363.704 206.846 364.217 206.679 364.876 206.679C365.187 206.679 365.472 206.723 365.729 206.809C365.987 206.896 366.207 207.021 366.392 207.184C366.577 207.347 366.718 207.542 366.816 207.771C366.914 207.999 366.964 208.258 366.964 208.548V213.417C366.964 213.482 366.945 213.537 366.909 213.58C366.873 213.623 366.818 213.645 366.746 213.645H366.138C365.927 213.645 365.77 213.585 365.665 213.465C365.56 213.346 365.507 213.192 365.507 213.004V208.548C365.507 208.353 365.456 208.195 365.355 208.075C365.253 207.955 365.094 207.896 364.877 207.896C364.667 207.896 364.509 207.956 364.404 208.075C364.299 208.195 364.246 208.352 364.246 208.548V220.372C364.246 220.568 364.297 220.725 364.398 220.845C364.499 220.965 364.659 221.024 364.876 221.024C365.086 221.024 365.243 220.964 365.349 220.845C365.453 220.725 365.506 220.568 365.506 220.372V216.058Z" fill="white"/>
<path d="M374.885 206.853C374.949 206.853 375 206.875 375.036 206.918C375.072 206.962 375.095 207.012 375.101 207.07L376.406 221.796C376.413 221.861 376.393 221.922 376.345 221.981C376.298 222.039 376.224 222.068 376.122 222.068H375.59C375.408 222.068 375.259 222.016 375.139 221.91C375.02 221.805 374.952 221.677 374.938 221.524L374.819 219.448H373.721L373.601 221.524C373.586 221.676 373.52 221.805 373.401 221.91C373.281 222.015 373.131 222.068 372.95 222.068H372.417C372.315 222.068 372.241 222.039 372.194 221.981C372.147 221.923 372.128 221.861 372.134 221.796L373.438 207.07C373.446 207.012 373.467 206.962 373.503 206.918C373.539 206.874 373.59 206.853 373.655 206.853H374.885ZM373.787 218.231H374.743L374.265 210.102L373.787 218.231Z" fill="white"/>
<path d="M385.535 206.853C385.607 206.853 385.662 206.875 385.698 206.918C385.734 206.962 385.753 207.016 385.753 207.081V221.84C385.753 221.905 385.734 221.959 385.698 222.003C385.662 222.046 385.607 222.068 385.535 222.068H384.927C384.738 222.068 384.593 222.023 384.492 221.932C384.39 221.841 384.329 221.72 384.306 221.568C384.306 221.481 384.28 221.278 384.225 220.96C384.17 220.641 384.102 220.255 384.018 219.802C383.935 219.349 383.843 218.851 383.742 218.308C383.64 217.764 383.539 217.22 383.437 216.672C383.336 216.125 383.24 215.602 383.149 215.102C383.058 214.602 382.984 214.171 382.926 213.809L383.034 221.427C383.042 221.616 382.991 221.769 382.883 221.889C382.774 222.009 382.615 222.068 382.404 222.068H381.796C381.723 222.068 381.669 222.046 381.633 222.003C381.597 221.959 381.578 221.905 381.578 221.84V207.081C381.578 207.016 381.597 206.962 381.633 206.918C381.669 206.874 381.723 206.853 381.796 206.853H382.404C382.585 206.853 382.732 206.902 382.844 207C382.956 207.098 383.019 207.226 383.034 207.386C383.049 207.502 383.082 207.739 383.133 208.097C383.183 208.456 383.248 208.884 383.328 209.38C383.407 209.876 383.494 210.416 383.589 210.999C383.683 211.583 383.779 212.155 383.877 212.716C383.975 213.278 384.068 213.801 384.159 214.286C384.25 214.771 384.331 215.17 384.404 215.481L384.295 207.406C384.295 207.239 384.354 207.106 384.469 207.004C384.585 206.902 384.737 206.852 384.926 206.852L385.535 206.853Z" fill="white"/>
<path d="M271.751 194.453C273.777 203.987 278.939 205.562 278.939 205.562L278.943 210.179C278.943 210.179 283.984 251.311 297.222 265.121H307.12C310.776 255.203 309.241 229.582 307.994 226.774C306.368 223.114 306.167 216.944 309.554 212.337C312.941 207.731 312.67 204.343 308.064 199.601C303.456 194.859 307.642 192.223 302.236 181.987C297.765 173.517 290.722 170.605 285.708 170.605C274.326 170.605 269.172 177.287 270.128 186.119C270.393 188.619 271.403 192.816 271.751 194.453Z" fill="#EA507E"/>
<path d="M316.569 257.465C316.833 260.16 316.344 262.363 312.928 264.097C310.511 265.323 306.414 262.302 305.481 259.758C304.051 255.853 301.13 244.382 301.13 244.382C300.865 243.53 301.475 221.458 302.041 222.286C308.448 231.642 316.569 257.465 316.569 257.465Z" fill="#82B1DF"/>
<path d="M268.711 265.121H298.741C298.72 257.66 299.234 249.588 301.13 244.382C306.209 230.435 301.729 221.653 301.729 221.653C297.688 219.856 290.318 215.05 290.318 215.05H278.278C278.278 215.05 267.931 219.329 264.19 221.84C264.19 221.84 260.147 229.272 265.571 244.907C267.361 250.071 268.264 257.878 268.711 265.121Z" fill="#82B1DF"/>
<path d="M278.277 215.049L284.19 220.687L290.316 215.049V204.974H278.277V215.049Z" fill="#E78779"/>
<path d="M271.575 198.03C272.61 202.513 278.888 210.995 284.546 210.995C289.405 210.995 297.224 203.94 297.564 199.286C297.564 199.286 298.777 190.977 298.947 188.183C299.462 179.917 291.733 173.193 284.546 173.193C277.353 173.193 269.349 179.922 269.937 188.183C270.132 190.982 270.942 195.299 271.575 198.03Z" fill="#F69583"/>
<path d="M262.966 265.121C264.033 259.569 265.595 250.471 265.571 244.906C265.508 230.72 265.571 220.931 265.571 220.931C265.571 220.931 259.44 223.733 257.202 233.637C256.327 237.512 255.081 251.307 253.988 265.12H262.966V265.121Z" fill="#82B1DF"/>
<path d="M286.096 201.73C286.035 201.73 285.965 201.726 285.906 201.722C285.798 201.709 285.711 201.614 285.725 201.506C285.734 201.397 285.821 201.305 285.942 201.322C286.346 201.362 286.651 201.245 286.684 201.157C286.7 201.119 286.66 200.981 286.328 200.755C285.327 200.074 285.21 197.702 285.203 197.604C285.201 197.494 285.285 197.4 285.398 197.394C285.513 197.39 285.6 197.475 285.604 197.583C285.629 198.213 285.856 199.953 286.549 200.425C286.99 200.719 287.16 201.012 287.063 201.29C286.947 201.603 286.521 201.73 286.096 201.73Z" fill="#071938"/>
<path d="M292.329 195.644C292.628 195.644 292.898 195.765 293.091 195.981C293.251 196.174 293.333 196.419 293.333 196.682C293.333 197.201 292.984 197.732 292.329 197.732C292.015 197.732 291.745 197.608 291.556 197.389C291.393 197.201 291.305 196.954 291.305 196.682C291.305 196.167 291.652 195.644 292.329 195.644Z" fill="#071938"/>
<path d="M279.764 195.644C279.464 195.644 279.194 195.765 279 195.981C278.842 196.174 278.758 196.419 278.758 196.682C278.758 197.201 279.106 197.732 279.764 197.732C280.078 197.732 280.347 197.608 280.536 197.389C280.698 197.201 280.786 196.954 280.786 196.682C280.785 196.167 280.437 195.644 279.764 195.644Z" fill="#071938"/>
<path d="M277.363 193.018C277.363 193.018 278.488 191.623 280.999 192.47" stroke="#071938" stroke-width="0.5653" stroke-miterlimit="10" stroke-linecap="round" stroke-linejoin="round"/>
<path d="M294.449 193.018C294.449 193.018 293.325 191.623 290.812 192.47" stroke="#071938" stroke-width="0.5653" stroke-miterlimit="10" stroke-linecap="round" stroke-linejoin="round"/>
<path d="M289.758 201.172C289.758 202.065 290.86 202.786 292.228 202.786C293.592 202.786 294.695 202.064 294.695 201.172C294.695 200.282 293.592 199.561 292.228 199.561C290.86 199.561 289.758 200.283 289.758 201.172Z" fill="#F37784"/>
<path d="M277.398 201.512C277.398 202.402 278.503 203.122 279.869 203.122C281.23 203.122 282.336 202.402 282.336 201.512C282.336 200.618 281.231 199.897 279.869 199.897C278.504 199.897 277.398 200.619 277.398 201.512Z" fill="#F37784"/>
<path d="M289.192 204.287C289.136 206.036 287.56 207.444 285.623 207.444C283.682 207.444 282.106 206.036 282.055 204.287H289.192Z" fill="white"/>
<path d="M270.332 191.904C270.332 191.904 272.423 191.05 273.817 193.616C273.817 193.616 273.547 187.341 276.087 183.287C276.087 183.287 279.718 188.406 286.249 188.62C292.782 188.834 296.606 191.123 298.33 195.61C298.33 195.61 301.407 188.927 298.33 181.768C295.562 175.328 288.365 172.018 283.782 172.192C279.198 172.366 267.183 178.33 270.332 191.904Z" fill="#EA507E"/>
<path d="M269.924 194.014C270.127 195.496 271.18 196.575 272.277 196.427C273.379 196.274 274.103 194.954 273.904 193.472C273.701 191.993 272.652 190.913 271.552 191.062C270.453 191.21 269.723 192.533 269.924 194.014Z" fill="#F69583"/>
<path d="M278.275 221.469H290.314C290.314 221.469 291.263 212.529 290.314 212.529C290.314 212.529 284.72 214.177 278.275 212.529C277.806 212.408 278.275 221.469 278.275 221.469Z" fill="#82B1DF"/>
<path d="M276.739 191.246C276.739 191.829 276.266 192.302 275.686 192.302C275.1 192.302 274.629 191.829 274.629 191.246C274.629 190.663 275.1 190.191 275.686 190.191C276.267 190.191 276.739 190.663 276.739 191.246Z" fill="white"/>
<path d="M287.06 197.954C287.06 198.537 286.587 199.008 286.005 199.008C285.422 199.008 284.949 198.537 284.949 197.954C284.949 197.371 285.422 196.899 286.005 196.899C286.587 196.899 287.06 197.372 287.06 197.954Z" fill="white"/>
<path d="M294.551 192.301C294.551 192.883 294.077 193.356 293.495 193.356C292.913 193.356 292.441 192.883 292.441 192.301C292.441 191.718 292.913 191.245 293.495 191.245C294.077 191.245 294.551 191.718 294.551 192.301Z" fill="white"/>
<path d="M279.934 207.396C279.934 207.979 279.462 208.451 278.879 208.451C278.295 208.451 277.824 207.979 277.824 207.396C277.824 206.813 278.295 206.341 278.879 206.341C279.462 206.342 279.934 206.814 279.934 207.396Z" fill="white"/>
<path d="M292.782 210.115C293.364 210.115 293.837 209.643 293.837 209.06C293.837 208.477 293.364 208.005 292.782 208.005C292.199 208.005 291.727 208.477 291.727 209.06C291.727 209.643 292.199 210.115 292.782 210.115Z" fill="white"/>
<path d="M278.879 207.396L286.008 197.954L275.688 191.246" stroke="white" stroke-width="0.3246" stroke-miterlimit="10"/>
<path d="M286.492 198.603L293.053 209.06" stroke="white" stroke-width="0.3246" stroke-miterlimit="10"/>
<path d="M293.051 208.527L293.834 192.301" stroke="white" stroke-width="0.3246" stroke-miterlimit="10"/>
<path d="M278.552 207.396L275.359 191.246L293.496 192.057L286.641 197.684" stroke="white" stroke-width="0.3246" stroke-miterlimit="10"/>
<path d="M279.207 208.005L292.327 209.06" stroke="white" stroke-width="0.3246" stroke-miterlimit="10"/>
<path d="M327.553 166.504H242.848V265.059H327.553V166.504Z" stroke="white" stroke-width="0.6224" stroke-miterlimit="10"/>
<path d="M315.566 180.45H254.832V251.114H315.566V180.45Z" stroke="white" stroke-width="0.6224" stroke-miterlimit="10"/>
<path d="M269.16 215.853L292.777 236.138L321.631 217.638L302.74 188.87L269.16 215.853Z" fill="url(#paint1_linear_631_1565)"/>
<path d="M321.527 217.409H292.059V236.138H321.527V217.409Z" fill="#00001E"/>
<path d="M306.907 258.391C306.907 258.391 317.155 235.656 316.395 233.766C315.987 232.746 315.141 228.451 315.034 227.477C314.433 221.998 320.298 217.864 323.276 227.91C323.932 230.13 322.565 233.262 322.128 234.542C321.841 235.376 321.715 236.477 321.715 236.477L316.602 260.492C316.021 263.139 313.62 264.917 310.648 264.232C308.007 263.623 306.328 261.037 306.907 258.391Z" fill="#F69583"/>
<g opacity="0.3">
<path d="M414.375 152.859H389.775L245.281 281.447H272.521L414.375 152.859Z" fill="#ABDFF9"/>
<path d="M379.604 152.859H346.124C346.124 152.859 213.574 266.498 213.453 266.498V281.447H232.597L379.604 152.859Z" fill="#ABDFF9"/>
</g>
<path d="M377.438 133.994H425.801V169.934" stroke="#000435" stroke-opacity="0.4" stroke-width="1.283" stroke-miterlimit="10" stroke-linecap="round" stroke-linejoin="round" stroke-dasharray="2.57 3.42"/>
<path d="M378.372 136.72C379.877 136.72 381.099 135.5 381.099 133.994C381.099 132.489 379.877 131.268 378.372 131.268C376.867 131.268 375.645 132.489 375.645 133.994C375.645 135.5 376.867 136.72 378.372 136.72Z" fill="#000435" fill-opacity="0.4"/>
<path d="M425.801 172.661C427.307 172.661 428.527 171.44 428.527 169.934C428.527 168.429 427.307 167.208 425.801 167.208C424.295 167.208 423.074 168.429 423.074 169.934C423.074 171.439 424.295 172.661 425.801 172.661Z" fill="#000435" fill-opacity="0.4"/>
<path d="M101.264 84.624H52.9023V120.565" stroke="#000435" stroke-opacity="0.4" stroke-width="1.283" stroke-miterlimit="10" stroke-linecap="round" stroke-linejoin="round" stroke-dasharray="2.57 3.42"/>
<path d="M100.329 87.3509C98.8236 87.3509 97.6016 86.1299 97.6016 84.6239C97.6016 83.1189 98.8236 81.8979 100.329 81.8979C101.835 81.8979 103.056 83.1189 103.056 84.6239C103.056 86.1299 101.835 87.3509 100.329 87.3509Z" fill="#000435" fill-opacity="0.4"/>
<path d="M52.9018 123.291C51.3938 123.291 50.1758 122.07 50.1758 120.565C50.1758 119.06 51.3948 117.838 52.9018 117.838C54.4058 117.838 55.6268 119.059 55.6268 120.565C55.6268 122.07 54.4058 123.291 52.9018 123.291Z" fill="#000435" fill-opacity="0.4"/>
<path d="M200.715 107.413H201.998" stroke="#000435" stroke-opacity="0.4" stroke-width="1.283" stroke-linecap="round" stroke-linejoin="round"/>
<path d="M205.531 107.413H240.883" stroke="#000435" stroke-opacity="0.4" stroke-width="1.283" stroke-linecap="round" stroke-linejoin="round" stroke-dasharray="2.65 3.54"/>
<path d="M242.652 107.413H243.935" stroke="#000435" stroke-opacity="0.4" stroke-width="1.283" stroke-linecap="round" stroke-linejoin="round"/>
<path d="M247.118 107.413C247.118 108.918 245.898 110.139 244.391 110.139C242.885 110.139 241.664 108.918 241.664 107.413C241.664 105.907 242.885 104.686 244.391 104.686C245.899 104.686 247.118 105.907 247.118 107.413Z" fill="#000435" fill-opacity="0.4"/>
<path d="M203.442 107.413C203.442 108.918 202.221 110.139 200.715 110.139C199.21 110.139 197.988 108.918 197.988 107.413C197.988 105.907 199.21 104.686 200.715 104.686C202.222 104.686 203.442 105.907 203.442 107.413Z" fill="#000435" fill-opacity="0.4"/>
<path d="M281.715 124.613H282.998" stroke="#000435" stroke-opacity="0.4" stroke-width="1.283" stroke-linecap="round" stroke-linejoin="round"/>
<path d="M286.531 124.613H321.881" stroke="#000435" stroke-opacity="0.4" stroke-width="1.283" stroke-linecap="round" stroke-linejoin="round" stroke-dasharray="2.65 3.54"/>
<path d="M323.648 124.613H324.932" stroke="#000435" stroke-opacity="0.4" stroke-width="1.283" stroke-linecap="round" stroke-linejoin="round"/>
<path d="M328.118 124.613C328.118 126.119 326.897 127.34 325.391 127.34C323.885 127.34 322.664 126.119 322.664 124.613C322.664 123.108 323.885 121.887 325.391 121.887C326.898 121.888 328.118 123.108 328.118 124.613Z" fill="#000435" fill-opacity="0.4"/>
<path d="M284.441 124.613C284.441 126.119 283.221 127.34 281.715 127.34C280.209 127.34 278.988 126.119 278.988 124.613C278.988 123.108 280.209 121.887 281.715 121.887C283.222 121.888 284.441 123.108 284.441 124.613Z" fill="#000435" fill-opacity="0.4"/>
<path d="M55.0039 173.202H56.2859" stroke="#000435" stroke-opacity="0.4" stroke-width="1.283" stroke-linecap="round" stroke-linejoin="round"/>
<path d="M59.8203 173.202H95.1703" stroke="#000435" stroke-opacity="0.4" stroke-width="1.283" stroke-linecap="round" stroke-linejoin="round" stroke-dasharray="2.65 3.54"/>
<path d="M96.9375 173.202H98.2215" stroke="#000435" stroke-opacity="0.4" stroke-width="1.283" stroke-linecap="round" stroke-linejoin="round"/>
<path d="M101.403 173.202C101.403 174.708 100.182 175.929 98.6762 175.929C97.1692 175.929 95.9492 174.708 95.9492 173.202C95.9492 171.696 97.1692 170.476 98.6762 170.476C100.183 170.476 101.403 171.696 101.403 173.202Z" fill="#000435" fill-opacity="0.4"/>
<path d="M57.7303 173.202C57.7303 174.708 56.5093 175.929 55.0043 175.929C53.4953 175.929 52.2773 174.708 52.2773 173.202C52.2773 171.696 53.4963 170.476 55.0043 170.476C56.5103 170.476 57.7303 171.696 57.7303 173.202Z" fill="#000435" fill-opacity="0.4"/>
<defs>
<linearGradient id="paint0_linear_631_1565" x1="128.391" y1="150.496" x2="205.178" y2="210.22" gradientUnits="userSpaceOnUse">
<stop offset="0.413462" stop-color="white" stop-opacity="0"/>
<stop offset="1" stop-color="white"/>
</linearGradient>
<linearGradient id="paint1_linear_631_1565" x1="276.972" y1="196.337" x2="318.22" y2="228.418" gradientUnits="userSpaceOnUse">
<stop offset="0.4375" stop-color="white" stop-opacity="0"/>
<stop offset="1" stop-color="white"/>
</linearGradient>
</defs>
</svg>
