<svg width="2975" height="2000" viewBox="0 0 2975 2000" fill="none" xmlns="http://www.w3.org/2000/svg">
<path d="M2833.03 1281.37C2829.57 1381.53 2805.11 1492 2749.3 1614.74C2724.89 1668.43 2694.47 1724.47 2657.19 1783.02L1177.23 1787.04L977.23 1787.58L818.5 1788.02L618.5 1788.56L294.34 1789.44C245.71 1737.19 152.39 1603.71 141.95 1341.45C139.55 1281.66 141.47 1215.18 149.22 1141.45C152.97 1105.69 158.09 1068.22 164.76 1028.99C168.24 1008.45 172.15 987.417 176.51 965.897C186.45 916.787 201.57 871.207 221.08 828.987C358.9 530.717 715.78 400.507 1015.2 381.207C1275.53 364.417 1382.03 249.717 1536.87 176.657C1539.82 175.267 1542.79 173.887 1545.78 172.527C1637.1 130.917 1746.13 104.347 1912.85 120.407C1952.42 124.227 1993.94 131.097 2036.41 141.897C2039.37 142.647 2042.33 143.427 2045.29 144.217C2230.39 193.567 2432.23 318.537 2569.98 592.507C2655.61 762.807 2843.64 973.347 2833.03 1281.37Z" fill="#D5E9FD"/>
<path opacity="0.6" d="M1501.76 446.784L1493.3 462.78L1500.55 467.094L1502.07 593.851L1259.35 727.977V694.46H1203.26V758.972L658.789 1059.85L692.93 1113.82L720.862 1098.33V1492.65H687.849V1681.93H770.016V1492.65H737.003V1089.38L1203.26 830.834V902.225H1115.65L1079.85 1189.82H1058.52V1214.47H1076.78L1051.22 1419.9H1020.63V1444.55H1048.15L1008.4 1763.95L1032.86 1766.99L1058.61 1560.08L1216.18 1642.05L1060.29 1723.16L1063.14 1728.62L1222.86 1645.53L1372.29 1723.27L1373.53 1740.77L1398.12 1739.03L1377.27 1444.55H1392.67V1419.9H1375.53L1360.99 1214.47H1377.61V1189.82H1359.24L1338.88 902.224H1259.35V799.731L1536.33 646.142L1680.96 779.535L1681.21 784.788L1696.89 783.404C1699.28 546.092 1501.76 446.784 1501.76 446.784ZM1279.79 926.875L1222.86 976.87L1165.93 926.875H1279.79ZM1156.59 926.875L1218.19 980.971L1119.95 1067.24L1137.42 926.875H1156.59ZM1327.58 1091.69L1222.86 1143.77L1116.98 1091.12L1118.8 1076.45L1222.86 985.073L1326.47 1076.07L1327.58 1091.69ZM1116.17 1097.6L1215.94 1147.21L1130.26 1189.82H1104.69L1116.17 1097.6ZM1144.1 1189.82L1222.86 1150.65L1301.61 1189.82H1144.1ZM1301.89 1214.47L1222.86 1254.13L1143.82 1214.47H1301.89ZM1130.08 1214.47L1215.99 1257.58L1088.28 1321.66L1101.62 1214.47H1130.08ZM1344.29 1327.71L1218.49 1379.41L1094.95 1325.21L1222.86 1261.02L1343.87 1321.75L1344.29 1327.71ZM1087.42 1328.64L1210.57 1382.66L1119.98 1419.9H1076.06L1087.42 1328.64ZM1360.14 1551.65L1223.14 1499.86L1352.97 1450.27L1360.14 1551.65ZM1214.46 1496.58L1076.82 1444.55H1350.67L1214.46 1496.58ZM1136.19 1419.9L1218.42 1386.1L1295.45 1419.9H1136.19ZM1072.38 1449.46L1205.79 1499.89L1059.13 1555.91L1072.38 1449.46ZM1069.22 1558.65L1214.47 1503.17L1360.62 1558.41L1361.2 1566.6L1222.86 1638.58L1069.22 1558.65ZM1229.53 1642.05L1361.68 1573.31L1371.78 1716.06L1229.53 1642.05ZM1310.79 1419.9L1226.33 1382.85L1344.75 1334.18L1350.81 1419.9L1310.79 1419.9ZM1343.36 1314.6L1229.73 1257.58L1315.63 1214.47H1336.27L1343.36 1314.6ZM1315.45 1189.82L1229.77 1147.21L1328.05 1098.34L1334.53 1189.82L1315.45 1189.82ZM1325.85 1067.32L1227.52 980.971L1289.12 926.875H1315.91L1325.85 1067.32ZM1511.51 547.937L1509.03 505.709L1534.08 490.118L1565.96 519.607L1561.98 543.53L1546.55 552.227L1511.51 547.937ZM1557.7 570.166L1570.53 559.657L1600.68 560.245L1617.06 579.986L1608.2 605.477L1587.17 617.411C1587.17 617.411 1564.74 577.774 1557.7 570.166ZM1659.5 741.961L1590.77 681.606L1594.63 634.472L1613.11 624.175L1643.78 628.752C1643.78 628.752 1674.85 701.14 1676.2 732.444L1659.5 741.961Z" fill="#8FC2EF"/>
<path opacity="0.6" d="M2303.38 418.582L2294.91 434.578L2302.16 438.892L2303.68 565.649L2060.96 699.775V666.258H2004.87V730.77L1460.4 1031.65L1494.54 1085.61L1522.48 1070.13V1297.06H1489.46V1486.33H1571.63V1297.06H1538.62V1061.18L2004.87 802.631V874.022H1917.26L1881.47 1161.62H1860.13V1186.27H1878.4L1852.83 1391.69H1822.24V1416.35H1849.76L1810.01 1735.74L1834.47 1738.79L1860.22 1531.87L2017.79 1613.85L1861.9 1694.95L1864.75 1700.42L2024.47 1617.32L2173.91 1695.07L2175.15 1712.57L2200.51 1721.75L2178.89 1416.35H2194.29V1391.7H2177.14L2162.6 1186.27H2179.22V1161.62H2160.85L2140.49 874.023H2060.96V771.529L2337.94 617.94L2482.57 751.333L2482.82 756.586L2498.5 755.202C2500.9 517.89 2303.38 418.582 2303.38 418.582ZM2081.4 898.673L2024.47 948.668L1967.54 898.673H2081.4ZM1958.2 898.673L2019.8 952.769L1921.56 1039.04L1939.03 898.674H1958.2V898.673ZM2129.19 1063.49L2024.47 1115.57L1918.59 1062.92L1920.42 1048.25L2024.47 956.871L2128.09 1047.87L2129.19 1063.49ZM1917.79 1069.4L2017.55 1119.01L1931.87 1161.62H1906.31L1917.79 1069.4ZM1945.71 1161.62L2024.47 1122.45L2103.23 1161.62H1945.71ZM2103.5 1186.27L2024.47 1225.93L1945.44 1186.27H2103.5ZM1931.7 1186.27L2017.6 1229.38L1889.9 1293.46L1903.24 1186.27H1931.7ZM2145.9 1299.51L2020.11 1351.21L1896.56 1297.01L2024.47 1232.82L2145.48 1293.55L2145.9 1299.51ZM1889.03 1300.44L2012.19 1354.46L1921.59 1391.69H1877.67L1889.03 1300.44ZM2161.76 1523.44L2024.75 1471.66L2154.58 1422.07L2161.76 1523.44ZM2016.07 1468.38L1878.43 1416.35H2152.29L2016.07 1468.38ZM1937.8 1391.69L2020.03 1357.9L2097.06 1391.69H1937.8ZM1873.99 1421.26L2007.4 1471.69L1860.74 1527.71L1873.99 1421.26ZM1870.83 1530.44L2016.08 1474.97L2162.24 1530.21L2162.82 1538.4L2024.47 1610.38L1870.83 1530.44ZM2031.15 1613.85L2163.29 1545.1L2173.4 1687.86L2031.15 1613.85ZM2112.4 1391.69L2027.95 1354.65L2146.36 1305.98L2152.43 1391.69L2112.4 1391.69ZM2144.97 1286.4L2031.34 1229.38L2117.24 1186.27H2137.89L2144.97 1286.4ZM2117.06 1161.62L2031.39 1119.01L2129.66 1070.14L2136.14 1161.62L2117.06 1161.62ZM2127.47 1039.12L2029.14 952.769L2090.74 898.673H2117.52L2127.47 1039.12ZM2313.12 519.735L2310.64 477.507L2335.7 461.916L2367.58 491.405L2363.6 515.328L2348.17 524.025L2313.12 519.735ZM2359.31 541.964L2372.14 531.455L2402.29 532.043L2418.68 551.785L2409.82 577.276L2388.78 589.21C2388.78 589.209 2366.36 549.573 2359.31 541.964ZM2461.11 713.759L2392.38 653.404L2396.24 606.27L2414.73 595.973L2445.4 600.55C2445.4 600.55 2476.47 672.938 2477.82 704.242L2461.11 713.759Z" fill="#8FC2EF"/>
<path d="M1465.11 1884.33C2157.5 1884.33 2718.79 1841.85 2718.79 1789.43C2718.79 1737.02 2157.5 1694.53 1465.11 1694.53C772.722 1694.53 211.43 1737.02 211.43 1789.43C211.43 1841.85 772.722 1884.33 1465.11 1884.33Z" fill="#B2D5FB"/>
<path d="M1177.23 1353.6V1789.44H977.23V1353.6C977.23 1348.41 976.86 1344.56 976.42 1341.85C974.42 1341.62 971.83 1341.45 968.54 1341.45H141.95C139.55 1281.66 141.47 1215.18 149.22 1141.45H968.54C1053.97 1141.45 1103.25 1178.65 1129.55 1209.85C1160.75 1246.86 1177.23 1296.57 1177.23 1353.6Z" fill="#8FC2EF"/>
<path d="M768.614 1129.13H731.281V1352.49H768.614V1129.13Z" fill="#5D96DB"/>
<path d="M840.614 1129.13H803.281V1352.49H840.614V1129.13Z" fill="#5D96DB"/>
<path d="M870.65 1160.48C870.65 1163.92 868.038 1166.7 864.817 1166.7C861.595 1166.7 858.984 1163.92 858.984 1160.48C858.984 1157.05 861.596 1154.26 864.817 1154.26C868.038 1154.26 870.65 1157.05 870.65 1160.48Z" fill="#5D96DB"/>
<path d="M870.65 1200.78C870.65 1204.22 868.038 1207 864.817 1207C861.595 1207 858.984 1204.22 858.984 1200.78C858.984 1197.34 861.596 1194.56 864.817 1194.56C868.038 1194.56 870.65 1197.34 870.65 1200.78Z" fill="#5D96DB"/>
<path d="M870.65 1241.08C870.65 1244.51 868.038 1247.3 864.817 1247.3C861.595 1247.3 858.984 1244.51 858.984 1241.08C858.984 1237.64 861.596 1234.85 864.817 1234.85C868.038 1234.85 870.65 1237.64 870.65 1241.08Z" fill="#5D96DB"/>
<path d="M870.65 1281.37C870.65 1284.81 868.038 1287.59 864.817 1287.59C861.595 1287.59 858.984 1284.81 858.984 1281.37C858.984 1277.94 861.596 1275.15 864.817 1275.15C868.038 1275.15 870.65 1277.94 870.65 1281.37Z" fill="#5D96DB"/>
<path d="M870.65 1321.67C870.65 1325.1 868.038 1327.89 864.817 1327.89C861.595 1327.89 858.984 1325.1 858.984 1321.67C858.984 1318.23 861.596 1315.45 864.817 1315.45C868.038 1315.45 870.65 1318.23 870.65 1321.67Z" fill="#5D96DB"/>
<path d="M707.725 1160.48C707.725 1163.92 704.939 1166.7 701.503 1166.7C698.067 1166.7 695.281 1163.92 695.281 1160.48C695.281 1157.05 698.067 1154.26 701.503 1154.26C704.939 1154.26 707.725 1157.05 707.725 1160.48Z" fill="#5D96DB"/>
<path d="M707.725 1200.78C707.725 1204.22 704.939 1207 701.503 1207C698.067 1207 695.281 1204.22 695.281 1200.78C695.281 1197.34 698.067 1194.56 701.503 1194.56C704.939 1194.56 707.725 1197.34 707.725 1200.78Z" fill="#5D96DB"/>
<path d="M707.725 1241.08C707.725 1244.51 704.939 1247.3 701.503 1247.3C698.067 1247.3 695.281 1244.51 695.281 1241.08C695.281 1237.64 698.067 1234.85 701.503 1234.85C704.939 1234.85 707.725 1237.64 707.725 1241.08Z" fill="#5D96DB"/>
<path d="M707.725 1281.37C707.725 1284.81 704.939 1287.59 701.503 1287.59C698.067 1287.59 695.281 1284.81 695.281 1281.37C695.281 1277.94 698.067 1275.15 701.503 1275.15C704.939 1275.15 707.725 1277.94 707.725 1281.37Z" fill="#5D96DB"/>
<path d="M707.725 1321.67C707.725 1325.1 704.939 1327.89 701.503 1327.89C698.067 1327.89 695.281 1325.1 695.281 1321.67C695.281 1318.23 698.067 1315.45 701.503 1315.45C704.939 1315.45 707.725 1318.23 707.725 1321.67Z" fill="#5D96DB"/>
<path d="M818.502 1105.08V1789.44H618.502V1105.08C618.502 1063.13 584.372 1028.99 542.412 1028.99H164.762C168.242 1008.45 172.152 987.417 176.512 965.897C186.452 916.787 201.572 871.207 221.082 828.987H542.412C579.642 828.987 615.812 836.307 649.912 850.727C682.802 864.637 712.322 884.527 737.642 909.857C762.962 935.177 782.862 964.697 796.772 997.587C811.192 1031.69 818.502 1067.86 818.502 1105.08Z" fill="#DF502B"/>
<path d="M321.876 818.983H284.543V1042.35H321.876V818.983Z" fill="#C13216"/>
<path d="M393.876 818.983H356.543V1042.35H393.876V818.983Z" fill="#C13216"/>
<path d="M804.776 972.404L788.809 938.658L578.595 1038.13L594.562 1071.87L804.776 972.404Z" fill="#C13216"/>
<path d="M833.762 1415.37V1378.04H601.199V1415.37H833.762Z" fill="#C13216"/>
<path d="M833.762 1476.24V1438.91H601.199V1476.24H833.762Z" fill="#C13216"/>
<path d="M844.543 1808.1V1770.77H590.419V1808.1H844.543Z" fill="#C13216"/>
<path d="M423.912 850.339C423.912 853.775 421.3 856.561 418.079 856.561C414.857 856.561 412.246 853.775 412.246 850.339C412.246 846.903 414.858 844.117 418.079 844.117C421.301 844.117 423.912 846.903 423.912 850.339Z" fill="#C13216"/>
<path d="M423.912 890.636C423.912 894.072 421.3 896.858 418.079 896.858C414.857 896.858 412.246 894.072 412.246 890.636C412.246 887.199 414.858 884.414 418.079 884.414C421.301 884.414 423.912 887.199 423.912 890.636Z" fill="#C13216"/>
<path d="M423.912 930.932C423.912 934.368 421.3 937.154 418.079 937.154C414.857 937.154 412.246 934.368 412.246 930.932C412.246 927.495 414.858 924.71 418.079 924.71C421.301 924.71 423.912 927.496 423.912 930.932Z" fill="#C13216"/>
<path d="M423.912 971.228C423.912 974.664 421.3 977.45 418.079 977.45C414.857 977.45 412.246 974.664 412.246 971.228C412.246 967.791 414.858 965.006 418.079 965.006C421.301 965.006 423.912 967.792 423.912 971.228Z" fill="#C13216"/>
<path d="M423.912 1011.53C423.912 1014.96 421.3 1017.75 418.079 1017.75C414.857 1017.75 412.246 1014.96 412.246 1011.53C412.246 1008.09 414.858 1005.3 418.079 1005.3C421.301 1005.3 423.912 1008.09 423.912 1011.53Z" fill="#C13216"/>
<path d="M798.074 1361.2C794.638 1361.2 791.852 1358.59 791.852 1355.37C791.852 1352.14 794.638 1349.53 798.074 1349.53C801.51 1349.53 804.296 1352.14 804.296 1355.37C804.296 1358.59 801.51 1361.2 798.074 1361.2Z" fill="#C13216"/>
<path d="M757.777 1361.2C754.34 1361.2 751.555 1358.59 751.555 1355.37C751.555 1352.14 754.341 1349.53 757.777 1349.53C761.213 1349.53 763.999 1352.14 763.999 1355.37C764 1358.59 761.214 1361.2 757.777 1361.2Z" fill="#C13216"/>
<path d="M717.484 1361.2C714.047 1361.2 711.262 1358.59 711.262 1355.37C711.262 1352.14 714.048 1349.53 717.484 1349.53C720.92 1349.53 723.706 1352.14 723.706 1355.37C723.706 1358.59 720.92 1361.2 717.484 1361.2Z" fill="#C13216"/>
<path d="M677.187 1361.2C673.751 1361.2 670.965 1358.59 670.965 1355.37C670.965 1352.14 673.751 1349.53 677.187 1349.53C680.623 1349.53 683.409 1352.14 683.409 1355.37C683.409 1358.59 680.623 1361.2 677.187 1361.2Z" fill="#C13216"/>
<path d="M636.89 1361.2C633.453 1361.2 630.668 1358.59 630.668 1355.37C630.668 1352.14 633.454 1349.53 636.89 1349.53C640.326 1349.53 643.112 1352.14 643.112 1355.37C643.112 1358.59 640.326 1361.2 636.89 1361.2Z" fill="#C13216"/>
<path d="M798.074 1500.75C794.638 1500.75 791.852 1498.14 791.852 1494.92C791.852 1491.7 794.638 1489.09 798.074 1489.09C801.51 1489.09 804.296 1491.7 804.296 1494.92C804.296 1498.14 801.51 1500.75 798.074 1500.75Z" fill="#C13216"/>
<path d="M757.777 1500.75C754.34 1500.75 751.555 1498.14 751.555 1494.92C751.555 1491.7 754.341 1489.09 757.777 1489.09C761.213 1489.09 763.999 1491.7 763.999 1494.92C764 1498.14 761.214 1500.75 757.777 1500.75Z" fill="#C13216"/>
<path d="M717.484 1500.75C714.047 1500.75 711.262 1498.14 711.262 1494.92C711.262 1491.7 714.048 1489.09 717.484 1489.09C720.92 1489.09 723.706 1491.7 723.706 1494.92C723.706 1498.14 720.92 1500.75 717.484 1500.75Z" fill="#C13216"/>
<path d="M677.187 1500.75C673.751 1500.75 670.965 1498.14 670.965 1494.92C670.965 1491.7 673.751 1489.09 677.187 1489.09C680.623 1489.09 683.409 1491.7 683.409 1494.92C683.409 1498.14 680.623 1500.75 677.187 1500.75Z" fill="#C13216"/>
<path d="M636.89 1500.75C633.453 1500.75 630.668 1498.14 630.668 1494.92C630.668 1491.7 633.454 1489.09 636.89 1489.09C640.326 1489.09 643.112 1491.7 643.112 1494.92C643.112 1498.14 640.326 1500.75 636.89 1500.75Z" fill="#C13216"/>
<path d="M785.458 1015.01C782.352 1016.48 778.717 1015.32 777.339 1012.4C775.961 1009.49 777.362 1005.94 780.468 1004.47C783.574 1003 787.209 1004.17 788.587 1007.08C789.965 1009.99 788.564 1013.54 785.458 1015.01Z" fill="#C13216"/>
<path d="M749.036 1032.25C745.93 1033.72 742.295 1032.55 740.917 1029.64C739.539 1026.73 740.94 1023.18 744.046 1021.71C747.152 1020.24 750.787 1021.4 752.165 1024.32C753.543 1027.23 752.142 1030.78 749.036 1032.25Z" fill="#C13216"/>
<path d="M712.61 1049.49C709.504 1050.96 705.869 1049.79 704.491 1046.88C703.113 1043.96 704.514 1040.41 707.62 1038.94C710.726 1037.47 714.361 1038.64 715.739 1041.55C717.117 1044.46 715.716 1048.02 712.61 1049.49Z" fill="#C13216"/>
<path d="M676.188 1066.72C673.082 1068.19 669.447 1067.02 668.069 1064.11C666.691 1061.2 668.092 1057.65 671.198 1056.18C674.304 1054.71 677.939 1055.88 679.317 1058.79C680.695 1061.7 679.294 1065.25 676.188 1066.72Z" fill="#C13216"/>
<path d="M639.762 1083.96C636.656 1085.43 633.021 1084.26 631.643 1081.35C630.265 1078.44 631.666 1074.88 634.772 1073.41C637.878 1071.94 641.513 1073.11 642.891 1076.02C644.269 1078.94 642.868 1082.49 639.762 1083.96Z" fill="#C13216"/>
<path d="M742.88 946.029C739.774 947.499 736.139 946.33 734.761 943.418C733.383 940.506 734.784 936.954 737.89 935.484C740.996 934.014 744.631 935.183 746.009 938.095C747.387 941.007 745.986 944.559 742.88 946.029Z" fill="#C13216"/>
<path d="M706.458 963.265C703.352 964.735 699.717 963.566 698.339 960.654C696.961 957.742 698.362 954.19 701.468 952.72C704.574 951.25 708.209 952.419 709.587 955.331C710.965 958.243 709.564 961.795 706.458 963.265Z" fill="#C13216"/>
<path d="M670.032 980.501C666.926 981.971 663.291 980.802 661.913 977.89C660.535 974.978 661.936 971.426 665.042 969.956C668.148 968.486 671.783 969.655 673.161 972.567C674.539 975.479 673.138 979.031 670.032 980.501Z" fill="#C13216"/>
<path d="M633.61 997.737C630.504 999.207 626.869 998.038 625.491 995.126C624.113 992.214 625.514 988.662 628.62 987.192C631.726 985.722 635.361 986.891 636.739 989.803C638.117 992.715 636.717 996.268 633.61 997.737Z" fill="#C13216"/>
<path d="M597.184 1014.97C594.078 1016.44 590.443 1015.27 589.065 1012.36C587.687 1009.45 589.088 1005.9 592.194 1004.43C595.3 1002.96 598.935 1004.13 600.313 1007.04C601.692 1009.95 600.291 1013.5 597.184 1014.97Z" fill="#C13216"/>
<path d="M1177.29 1272.49L1160.21 1239.29L953.42 1345.69L970.5 1378.89L1177.29 1272.49Z" fill="#5D96DB"/>
<path d="M1159.32 1315.68C1156.27 1317.25 1152.59 1316.2 1151.12 1313.33C1149.65 1310.47 1150.93 1306.87 1153.98 1305.3C1157.04 1303.73 1160.71 1304.78 1162.19 1307.64C1163.66 1310.51 1162.38 1314.1 1159.32 1315.68Z" fill="#5D96DB"/>
<path d="M1123.49 1334.11C1120.43 1335.68 1116.76 1334.63 1115.29 1331.77C1113.81 1328.9 1115.1 1325.31 1118.15 1323.74C1121.21 1322.16 1124.88 1323.21 1126.35 1326.08C1127.83 1328.94 1126.55 1332.54 1123.49 1334.11Z" fill="#5D96DB"/>
<path d="M1087.66 1352.54C1084.6 1354.12 1080.93 1353.07 1079.46 1350.2C1077.98 1347.34 1079.26 1343.74 1082.32 1342.17C1085.38 1340.6 1089.05 1341.65 1090.52 1344.51C1092 1347.38 1090.71 1350.97 1087.66 1352.54Z" fill="#5D96DB"/>
<path d="M1051.82 1370.98C1048.77 1372.55 1045.1 1371.5 1043.62 1368.64C1042.15 1365.77 1043.43 1362.18 1046.49 1360.6C1049.54 1359.03 1053.21 1360.08 1054.69 1362.94C1056.16 1365.81 1054.88 1369.41 1051.82 1370.98Z" fill="#5D96DB"/>
<path d="M1015.99 1389.41C1012.94 1390.98 1009.26 1389.94 1007.79 1387.07C1006.32 1384.21 1007.6 1380.61 1010.66 1379.04C1013.71 1377.47 1017.38 1378.51 1018.86 1381.38C1020.33 1384.24 1019.05 1387.84 1015.99 1389.41Z" fill="#5D96DB"/>
<path d="M1114.48 1248.14C1111.42 1249.71 1107.75 1248.66 1106.28 1245.8C1104.8 1242.93 1106.08 1239.34 1109.14 1237.76C1112.2 1236.19 1115.87 1237.24 1117.34 1240.11C1118.81 1242.97 1117.53 1246.57 1114.48 1248.14Z" fill="#5D96DB"/>
<path d="M1078.65 1266.57C1075.59 1268.15 1071.92 1267.1 1070.44 1264.23C1068.97 1261.37 1070.25 1257.77 1073.31 1256.2C1076.36 1254.63 1080.04 1255.68 1081.51 1258.54C1082.98 1261.41 1081.7 1265 1078.65 1266.57Z" fill="#5D96DB"/>
<path d="M1042.81 1285.01C1039.76 1286.58 1036.09 1285.53 1034.61 1282.67C1033.14 1279.8 1034.42 1276.21 1037.48 1274.63C1040.53 1273.06 1044.2 1274.11 1045.68 1276.97C1047.15 1279.84 1045.87 1283.44 1042.81 1285.01Z" fill="#5D96DB"/>
<path d="M1006.98 1303.44C1003.93 1305.01 1000.25 1303.97 998.779 1301.1C997.305 1298.24 998.588 1294.64 1001.64 1293.07C1004.7 1291.5 1008.37 1292.54 1009.85 1295.41C1011.32 1298.27 1010.04 1301.87 1006.98 1303.44Z" fill="#5D96DB"/>
<path d="M971.148 1321.88C968.092 1323.45 964.42 1322.4 962.947 1319.54C961.473 1316.67 962.756 1313.08 965.811 1311.5C968.867 1309.93 972.539 1310.98 974.013 1313.84C975.487 1316.71 974.204 1320.31 971.148 1321.88Z" fill="#5D96DB"/>
<path d="M260.987 850.339C260.987 853.775 258.201 856.561 254.765 856.561C251.329 856.561 248.543 853.775 248.543 850.339C248.543 846.903 251.329 844.117 254.765 844.117C258.202 844.117 260.987 846.903 260.987 850.339Z" fill="#C13216"/>
<path d="M260.987 890.636C260.987 894.072 258.201 896.858 254.765 896.858C251.329 896.858 248.543 894.072 248.543 890.636C248.543 887.199 251.329 884.414 254.765 884.414C258.202 884.414 260.987 887.199 260.987 890.636Z" fill="#C13216"/>
<path d="M260.987 930.932C260.987 934.368 258.201 937.154 254.765 937.154C251.329 937.154 248.543 934.368 248.543 930.932C248.543 927.495 251.329 924.71 254.765 924.71C258.202 924.71 260.987 927.496 260.987 930.932Z" fill="#C13216"/>
<path d="M260.987 971.228C260.987 974.664 258.201 977.45 254.765 977.45C251.329 977.45 248.543 974.664 248.543 971.228C248.543 967.791 251.329 965.006 254.765 965.006C258.202 965.006 260.987 967.792 260.987 971.228Z" fill="#C13216"/>
<path d="M260.987 1011.52C260.987 1014.96 258.201 1017.75 254.765 1017.75C251.329 1017.75 248.543 1014.96 248.543 1011.52C248.543 1008.09 251.329 1005.3 254.765 1005.3C258.202 1005.3 260.987 1008.09 260.987 1011.52Z" fill="#C13216"/>
<path d="M291.794 1129.13H254.461V1352.49H291.794V1129.13Z" fill="#5D96DB"/>
<path d="M363.794 1129.13H326.461V1352.49H363.794V1129.13Z" fill="#5D96DB"/>
<path d="M393.83 1160.48C393.83 1163.92 391.218 1166.7 387.997 1166.7C384.775 1166.7 382.164 1163.92 382.164 1160.48C382.164 1157.05 384.776 1154.26 387.997 1154.26C391.219 1154.26 393.83 1157.05 393.83 1160.48Z" fill="#5D96DB"/>
<path d="M393.83 1200.78C393.83 1204.22 391.218 1207 387.997 1207C384.775 1207 382.164 1204.22 382.164 1200.78C382.164 1197.34 384.776 1194.56 387.997 1194.56C391.219 1194.56 393.83 1197.34 393.83 1200.78Z" fill="#5D96DB"/>
<path d="M393.83 1241.08C393.83 1244.51 391.218 1247.3 387.997 1247.3C384.775 1247.3 382.164 1244.51 382.164 1241.08C382.164 1237.64 384.776 1234.85 387.997 1234.85C391.219 1234.85 393.83 1237.64 393.83 1241.08Z" fill="#5D96DB"/>
<path d="M393.83 1281.37C393.83 1284.81 391.218 1287.59 387.997 1287.59C384.775 1287.59 382.164 1284.81 382.164 1281.37C382.164 1277.94 384.776 1275.15 387.997 1275.15C391.219 1275.15 393.83 1277.94 393.83 1281.37Z" fill="#5D96DB"/>
<path d="M393.83 1321.67C393.83 1325.1 391.218 1327.89 387.997 1327.89C384.775 1327.89 382.164 1325.1 382.164 1321.67C382.164 1318.23 384.776 1315.45 387.997 1315.45C391.219 1315.45 393.83 1318.23 393.83 1321.67Z" fill="#5D96DB"/>
<path d="M230.905 1160.48C230.905 1163.92 228.119 1166.7 224.683 1166.7C221.247 1166.7 218.461 1163.92 218.461 1160.48C218.461 1157.05 221.247 1154.26 224.683 1154.26C228.119 1154.26 230.905 1157.05 230.905 1160.48Z" fill="#5D96DB"/>
<path d="M230.905 1200.78C230.905 1204.22 228.119 1207 224.683 1207C221.247 1207 218.461 1204.22 218.461 1200.78C218.461 1197.34 221.247 1194.56 224.683 1194.56C228.119 1194.56 230.905 1197.34 230.905 1200.78Z" fill="#5D96DB"/>
<path d="M230.905 1241.08C230.905 1244.51 228.119 1247.3 224.683 1247.3C221.247 1247.3 218.461 1244.51 218.461 1241.08C218.461 1237.64 221.247 1234.85 224.683 1234.85C228.119 1234.85 230.905 1237.64 230.905 1241.08Z" fill="#5D96DB"/>
<path d="M230.905 1281.37C230.905 1284.81 228.119 1287.59 224.683 1287.59C221.247 1287.59 218.461 1284.81 218.461 1281.37C218.461 1277.94 221.247 1275.15 224.683 1275.15C228.119 1275.15 230.905 1277.94 230.905 1281.37Z" fill="#5D96DB"/>
<path d="M230.905 1321.67C230.905 1325.1 228.119 1327.89 224.683 1327.89C221.247 1327.89 218.461 1325.1 218.461 1321.67C218.461 1318.23 221.247 1315.45 224.683 1315.45C228.119 1315.45 230.905 1318.23 230.905 1321.67Z" fill="#5D96DB"/>
<path d="M1187.66 1592.5V1555.16H964.294V1592.5H1187.66Z" fill="#5D96DB"/>
<path d="M1187.66 1664.5V1627.16H964.294V1664.5H1187.66Z" fill="#5D96DB"/>
<path d="M1187.66 1808.1V1770.77H964.294V1808.1H1187.66Z" fill="#5D96DB"/>
<path d="M1156.3 1694.53C1152.86 1694.53 1150.08 1691.92 1150.08 1688.7C1150.08 1685.48 1152.86 1682.87 1156.3 1682.87C1159.74 1682.87 1162.52 1685.48 1162.52 1688.7C1162.52 1691.92 1159.74 1694.53 1156.3 1694.53Z" fill="#5D96DB"/>
<path d="M1116.01 1694.53C1112.57 1694.53 1109.79 1691.92 1109.79 1688.7C1109.79 1685.48 1112.57 1682.87 1116.01 1682.87C1119.44 1682.87 1122.23 1685.48 1122.23 1688.7C1122.23 1691.92 1119.44 1694.53 1116.01 1694.53Z" fill="#5D96DB"/>
<path d="M1075.71 1694.53C1072.27 1694.53 1069.49 1691.92 1069.49 1688.7C1069.49 1685.48 1072.27 1682.87 1075.71 1682.87C1079.15 1682.87 1081.93 1685.48 1081.93 1688.7C1081.93 1691.92 1079.15 1694.53 1075.71 1694.53Z" fill="#5D96DB"/>
<path d="M1035.41 1694.53C1031.98 1694.53 1029.19 1691.92 1029.19 1688.7C1029.19 1685.48 1031.98 1682.87 1035.41 1682.87C1038.85 1682.87 1041.64 1685.48 1041.64 1688.7C1041.64 1691.92 1038.85 1694.53 1035.41 1694.53Z" fill="#5D96DB"/>
<path d="M995.117 1694.53C991.681 1694.53 988.895 1691.92 988.895 1688.7C988.895 1685.48 991.681 1682.87 995.117 1682.87C998.553 1682.87 1001.34 1685.48 1001.34 1688.7C1001.34 1691.92 998.553 1694.53 995.117 1694.53Z" fill="#5D96DB"/>
<path d="M1156.3 1531.61C1152.87 1531.61 1150.08 1528.82 1150.08 1525.39C1150.08 1521.95 1152.87 1519.16 1156.3 1519.16C1159.74 1519.16 1162.53 1521.95 1162.53 1525.39C1162.53 1528.82 1159.74 1531.61 1156.3 1531.61Z" fill="#5D96DB"/>
<path d="M1116.01 1531.61C1112.57 1531.61 1109.79 1528.82 1109.79 1525.39C1109.79 1521.95 1112.57 1519.16 1116.01 1519.16C1119.44 1519.16 1122.23 1521.95 1122.23 1525.39C1122.23 1528.82 1119.44 1531.61 1116.01 1531.61Z" fill="#5D96DB"/>
<path d="M1075.71 1531.61C1072.27 1531.61 1069.49 1528.82 1069.49 1525.39C1069.49 1521.95 1072.27 1519.16 1075.71 1519.16C1079.15 1519.16 1081.93 1521.95 1081.93 1525.39C1081.93 1528.82 1079.15 1531.61 1075.71 1531.61Z" fill="#5D96DB"/>
<path d="M1035.41 1531.61C1031.98 1531.61 1029.19 1528.82 1029.19 1525.39C1029.19 1521.95 1031.98 1519.16 1035.41 1519.16C1038.85 1519.16 1041.64 1521.95 1041.64 1525.39C1041.64 1528.82 1038.85 1531.61 1035.41 1531.61Z" fill="#5D96DB"/>
<path d="M995.117 1531.61C991.681 1531.61 988.895 1528.82 988.895 1525.39C988.895 1521.95 991.681 1519.16 995.117 1519.16C998.553 1519.16 1001.34 1521.95 1001.34 1525.39C1001.34 1528.82 998.553 1531.61 995.117 1531.61Z" fill="#5D96DB"/>
<path d="M711.665 1276.6L662.332 1227.27C659.119 1224.05 659.119 1218.85 662.332 1215.63L711.665 1166.3C714.878 1163.09 720.087 1163.09 723.3 1166.3L772.633 1215.63C775.846 1218.85 775.846 1224.05 772.633 1227.27L723.3 1276.6C720.087 1279.81 714.877 1279.81 711.665 1276.6Z" fill="#FEC786"/>
<path d="M717.483 1189.45C717.483 1189.45 698.508 1217.01 698.508 1228.25C698.508 1238.73 707.003 1247.23 717.483 1247.23C727.962 1247.23 736.458 1238.73 736.458 1228.25C736.458 1215.82 717.483 1189.45 717.483 1189.45Z" fill="#0A324C"/>
<path opacity="0.5" d="M729.446 1236.34C726.497 1239.65 722.919 1241.27 721.453 1239.96C719.987 1238.65 721.19 1234.91 724.138 1231.61C727.087 1228.3 730.665 1226.68 732.131 1227.99C733.597 1229.29 732.394 1233.03 729.446 1236.34Z" fill="white"/>
<path d="M2833.03 1281.37C2829.57 1381.53 2805.11 1492 2749.3 1614.74H1665.43V1281.37H2833.03Z" fill="#DF502B"/>
<path d="M2029.69 1629.33H2067.03V1266.78H2029.69V1629.33Z" fill="#C13216"/>
<path d="M2464.36 1629.33H2501.7V1266.78H2464.36V1629.33Z" fill="#C13216"/>
<path d="M1999.71 1309.12C1999.71 1312.56 1997.1 1315.34 1993.88 1315.34C1990.65 1315.34 1988.04 1312.55 1988.04 1309.12C1988.04 1305.68 1990.65 1302.9 1993.88 1302.9C1997.1 1302.9 1999.71 1305.68 1999.71 1309.12Z" fill="#C13216"/>
<path d="M1999.71 1349.42C1999.71 1352.85 1997.1 1355.64 1993.88 1355.64C1990.65 1355.64 1988.04 1352.85 1988.04 1349.42C1988.04 1345.98 1990.65 1343.19 1993.88 1343.19C1997.1 1343.19 1999.71 1345.98 1999.71 1349.42Z" fill="#C13216"/>
<path d="M1999.71 1389.71C1999.71 1393.15 1997.1 1395.93 1993.88 1395.93C1990.65 1395.93 1988.04 1393.15 1988.04 1389.71C1988.04 1386.28 1990.65 1383.49 1993.88 1383.49C1997.1 1383.49 1999.71 1386.27 1999.71 1389.71Z" fill="#C13216"/>
<path d="M1999.71 1430.01C1999.71 1433.44 1997.1 1436.23 1993.88 1436.23C1990.65 1436.23 1988.04 1433.44 1988.04 1430.01C1988.04 1426.57 1990.65 1423.79 1993.88 1423.79C1997.1 1423.79 1999.71 1426.57 1999.71 1430.01Z" fill="#C13216"/>
<path d="M1999.71 1470.3C1999.71 1473.74 1997.1 1476.53 1993.88 1476.53C1990.65 1476.53 1988.04 1473.74 1988.04 1470.3C1988.04 1466.87 1990.65 1464.08 1993.88 1464.08C1997.1 1464.08 1999.71 1466.87 1999.71 1470.3Z" fill="#C13216"/>
<path d="M1999.71 1507.14C1999.71 1510.58 1997.1 1513.36 1993.88 1513.36C1990.65 1513.36 1988.04 1510.58 1988.04 1507.14C1988.04 1503.71 1990.65 1500.92 1993.88 1500.92C1997.1 1500.92 1999.71 1503.71 1999.71 1507.14Z" fill="#C13216"/>
<path d="M1999.71 1547.44C1999.71 1550.87 1997.1 1553.66 1993.88 1553.66C1990.65 1553.66 1988.04 1550.87 1988.04 1547.44C1988.04 1544 1990.65 1541.22 1993.88 1541.22C1997.1 1541.22 1999.71 1544 1999.71 1547.44Z" fill="#C13216"/>
<path d="M1999.71 1587.73C1999.71 1591.17 1997.1 1593.96 1993.88 1593.96C1990.65 1593.96 1988.04 1591.17 1988.04 1587.73C1988.04 1584.3 1990.65 1581.51 1993.88 1581.51C1997.1 1581.51 1999.71 1584.3 1999.71 1587.73Z" fill="#C13216"/>
<path d="M2106.38 1309.12C2106.38 1312.56 2103.76 1315.34 2100.54 1315.34C2097.32 1315.34 2094.71 1312.55 2094.71 1309.12C2094.71 1305.68 2097.32 1302.9 2100.54 1302.9C2103.76 1302.9 2106.38 1305.68 2106.38 1309.12Z" fill="#C13216"/>
<path d="M2106.38 1349.42C2106.38 1352.85 2103.76 1355.64 2100.54 1355.64C2097.32 1355.64 2094.71 1352.85 2094.71 1349.42C2094.71 1345.98 2097.32 1343.19 2100.54 1343.19C2103.76 1343.19 2106.38 1345.98 2106.38 1349.42Z" fill="#C13216"/>
<path d="M2106.38 1389.71C2106.38 1393.15 2103.76 1395.93 2100.54 1395.93C2097.32 1395.93 2094.71 1393.15 2094.71 1389.71C2094.71 1386.28 2097.32 1383.49 2100.54 1383.49C2103.76 1383.49 2106.38 1386.27 2106.38 1389.71Z" fill="#C13216"/>
<path d="M2106.38 1430.01C2106.38 1433.44 2103.76 1436.23 2100.54 1436.23C2097.32 1436.23 2094.71 1433.44 2094.71 1430.01C2094.71 1426.57 2097.32 1423.79 2100.54 1423.79C2103.76 1423.79 2106.38 1426.57 2106.38 1430.01Z" fill="#C13216"/>
<path d="M2106.38 1470.3C2106.38 1473.74 2103.76 1476.53 2100.54 1476.53C2097.32 1476.53 2094.71 1473.74 2094.71 1470.3C2094.71 1466.87 2097.32 1464.08 2100.54 1464.08C2103.76 1464.08 2106.38 1466.87 2106.38 1470.3Z" fill="#C13216"/>
<path d="M2106.38 1507.14C2106.38 1510.58 2103.76 1513.36 2100.54 1513.36C2097.32 1513.36 2094.71 1510.58 2094.71 1507.14C2094.71 1503.71 2097.32 1500.92 2100.54 1500.92C2103.76 1500.92 2106.38 1503.71 2106.38 1507.14Z" fill="#C13216"/>
<path d="M2106.38 1547.44C2106.38 1550.87 2103.76 1553.66 2100.54 1553.66C2097.32 1553.66 2094.71 1550.87 2094.71 1547.44C2094.71 1544 2097.32 1541.22 2100.54 1541.22C2103.76 1541.22 2106.38 1544 2106.38 1547.44Z" fill="#C13216"/>
<path d="M2106.38 1587.73C2106.38 1591.17 2103.76 1593.96 2100.54 1593.96C2097.32 1593.96 2094.71 1591.17 2094.71 1587.73C2094.71 1584.3 2097.32 1581.51 2100.54 1581.51C2103.76 1581.51 2106.38 1584.3 2106.38 1587.73Z" fill="#C13216"/>
<path d="M2435.53 1309.12C2435.53 1312.56 2432.92 1315.34 2429.7 1315.34C2426.48 1315.34 2423.86 1312.55 2423.86 1309.12C2423.86 1305.68 2426.48 1302.9 2429.7 1302.9C2432.92 1302.9 2435.53 1305.68 2435.53 1309.12Z" fill="#C13216"/>
<path d="M2435.53 1349.42C2435.53 1352.85 2432.92 1355.64 2429.7 1355.64C2426.48 1355.64 2423.86 1352.85 2423.86 1349.42C2423.86 1345.98 2426.48 1343.19 2429.7 1343.19C2432.92 1343.19 2435.53 1345.98 2435.53 1349.42Z" fill="#C13216"/>
<path d="M2435.53 1389.71C2435.53 1393.15 2432.92 1395.93 2429.7 1395.93C2426.48 1395.93 2423.86 1393.15 2423.86 1389.71C2423.86 1386.28 2426.48 1383.49 2429.7 1383.49C2432.92 1383.49 2435.53 1386.27 2435.53 1389.71Z" fill="#C13216"/>
<path d="M2435.53 1430.01C2435.53 1433.44 2432.92 1436.23 2429.7 1436.23C2426.48 1436.23 2423.86 1433.44 2423.86 1430.01C2423.86 1426.57 2426.48 1423.79 2429.7 1423.79C2432.92 1423.79 2435.53 1426.57 2435.53 1430.01Z" fill="#C13216"/>
<path d="M2435.53 1470.3C2435.53 1473.74 2432.92 1476.53 2429.7 1476.53C2426.48 1476.53 2423.86 1473.74 2423.86 1470.3C2423.86 1466.87 2426.48 1464.08 2429.7 1464.08C2432.92 1464.08 2435.53 1466.87 2435.53 1470.3Z" fill="#C13216"/>
<path d="M2435.53 1507.14C2435.53 1510.58 2432.92 1513.36 2429.7 1513.36C2426.48 1513.36 2423.86 1510.58 2423.86 1507.14C2423.86 1503.71 2426.48 1500.92 2429.7 1500.92C2432.92 1500.92 2435.53 1503.71 2435.53 1507.14Z" fill="#C13216"/>
<path d="M2435.53 1547.44C2435.53 1550.87 2432.92 1553.66 2429.7 1553.66C2426.48 1553.66 2423.86 1550.87 2423.86 1547.44C2423.86 1544 2426.48 1541.22 2429.7 1541.22C2432.92 1541.22 2435.53 1544 2435.53 1547.44Z" fill="#C13216"/>
<path d="M2435.53 1587.73C2435.53 1591.17 2432.92 1593.96 2429.7 1593.96C2426.48 1593.96 2423.86 1591.17 2423.86 1587.73C2423.86 1584.3 2426.48 1581.51 2429.7 1581.51C2432.92 1581.51 2435.53 1584.3 2435.53 1587.73Z" fill="#C13216"/>
<path d="M2542.2 1309.12C2542.2 1312.56 2539.59 1315.34 2536.36 1315.34C2533.14 1315.34 2530.53 1312.55 2530.53 1309.12C2530.53 1305.68 2533.14 1302.9 2536.36 1302.9C2539.59 1302.9 2542.2 1305.68 2542.2 1309.12Z" fill="#C13216"/>
<path d="M2542.2 1349.42C2542.2 1352.85 2539.59 1355.64 2536.36 1355.64C2533.14 1355.64 2530.53 1352.85 2530.53 1349.42C2530.53 1345.98 2533.14 1343.19 2536.36 1343.19C2539.59 1343.19 2542.2 1345.98 2542.2 1349.42Z" fill="#C13216"/>
<path d="M2542.2 1389.71C2542.2 1393.15 2539.59 1395.93 2536.36 1395.93C2533.14 1395.93 2530.53 1393.15 2530.53 1389.71C2530.53 1386.28 2533.14 1383.49 2536.36 1383.49C2539.59 1383.49 2542.2 1386.27 2542.2 1389.71Z" fill="#C13216"/>
<path d="M2542.2 1430.01C2542.2 1433.44 2539.59 1436.23 2536.36 1436.23C2533.14 1436.23 2530.53 1433.44 2530.53 1430.01C2530.53 1426.57 2533.14 1423.79 2536.36 1423.79C2539.59 1423.79 2542.2 1426.57 2542.2 1430.01Z" fill="#C13216"/>
<path d="M2542.2 1470.3C2542.2 1473.74 2539.59 1476.53 2536.36 1476.53C2533.14 1476.53 2530.53 1473.74 2530.53 1470.3C2530.53 1466.87 2533.14 1464.08 2536.36 1464.08C2539.59 1464.08 2542.2 1466.87 2542.2 1470.3Z" fill="#C13216"/>
<path d="M2542.2 1507.14C2542.2 1510.58 2539.59 1513.36 2536.36 1513.36C2533.14 1513.36 2530.53 1510.58 2530.53 1507.14C2530.53 1503.71 2533.14 1500.92 2536.36 1500.92C2539.59 1500.92 2542.2 1503.71 2542.2 1507.14Z" fill="#C13216"/>
<path d="M2542.2 1547.44C2542.2 1550.87 2539.59 1553.66 2536.36 1553.66C2533.14 1553.66 2530.53 1550.87 2530.53 1547.44C2530.53 1544 2533.14 1541.22 2536.36 1541.22C2539.59 1541.22 2542.2 1544 2542.2 1547.44Z" fill="#C13216"/>
<path d="M2542.2 1587.73C2542.2 1591.17 2539.59 1593.96 2536.36 1593.96C2533.14 1593.96 2530.53 1591.17 2530.53 1587.73C2530.53 1584.3 2533.14 1581.51 2536.36 1581.51C2539.59 1581.51 2542.2 1584.3 2542.2 1587.73Z" fill="#C13216"/>
<path d="M2267.4 1529.36L2184.45 1446.41C2181.24 1443.2 2181.24 1437.99 2184.45 1434.77L2267.4 1351.82C2270.62 1348.61 2275.82 1348.61 2279.04 1351.82L2361.99 1434.77C2365.2 1437.99 2365.2 1443.2 2361.99 1446.41L2279.04 1529.36C2275.82 1532.57 2270.62 1532.57 2267.4 1529.36Z" fill="#FEC786"/>
<path d="M2273.22 1390.95C2273.22 1390.95 2243.79 1433.7 2243.79 1451.15C2243.79 1467.4 2256.96 1480.58 2273.22 1480.58C2289.48 1480.58 2302.66 1467.4 2302.66 1451.15C2302.66 1431.86 2273.22 1390.95 2273.22 1390.95Z" fill="#0A324C"/>
<path opacity="0.5" d="M2291.78 1463.69C2287.21 1468.82 2281.66 1471.34 2279.38 1469.31C2277.11 1467.28 2278.97 1461.48 2283.55 1456.35C2288.12 1451.22 2293.67 1448.71 2295.95 1450.73C2298.22 1452.76 2296.36 1458.56 2291.78 1463.69Z" fill="white"/>
<path d="M2267.13 1252.56H2245.88V1281.37H2267.13V1252.56Z" fill="#C13216"/>
<path d="M2253.73 1070.01C2206.99 1070.01 2169.1 1107.9 2169.1 1154.63C2169.1 1191.11 2192.17 1222.19 2224.52 1234.09V1250.95C2224.52 1259.73 2231.64 1266.86 2240.43 1266.86H2272.75C2281.54 1266.86 2288.66 1259.73 2288.66 1250.95V1231.74C2317.97 1218.44 2338.36 1188.92 2338.36 1154.63C2338.36 1107.9 2300.47 1070.01 2253.73 1070.01Z" fill="#DF502B"/>
<path d="M2305.59 1206.52C2334.24 1177.87 2334.24 1131.41 2305.59 1102.76C2276.93 1074.11 2230.48 1074.11 2201.82 1102.76C2173.17 1131.41 2173.17 1177.87 2201.82 1206.52C2230.48 1235.18 2276.93 1235.18 2305.59 1206.52Z" fill="white"/>
<path d="M2277.59 1132.36C2283.48 1137.04 2288.12 1143.6 2290.78 1151.28L2312.31 1141.84C2308.75 1131.57 2303.03 1122.53 2295.77 1115.41L2277.59 1132.36Z" fill="#80C4A4"/>
<path d="M2195.39 1141.84L2216.92 1151.28C2219.59 1143.6 2224.22 1137.04 2230.12 1132.36L2211.93 1115.41C2204.68 1122.53 2198.95 1131.57 2195.39 1141.84Z" fill="#EF3A4C"/>
<path d="M2215.98 1110.41L2234.36 1127.55C2240 1123.63 2246.63 1121.36 2253.74 1121.36C2260.85 1121.36 2267.48 1123.63 2273.12 1127.55L2291.5 1110.41C2281.19 1101 2268.05 1095.36 2253.74 1095.36C2239.43 1095.36 2226.29 1101 2215.98 1110.41Z" fill="#FEC786"/>
<path d="M2253.73 1155.72C2251.47 1155.72 2249.63 1157.56 2249.63 1159.82C2249.63 1162.08 2251.47 1163.92 2253.73 1163.92C2255.99 1163.92 2257.83 1162.08 2257.83 1159.82C2257.83 1157.56 2255.99 1155.72 2253.73 1155.72Z" fill="#49263E"/>
<path d="M2289.54 1127.96L2245.13 1164.87C2244.48 1165.41 2244.39 1166.38 2244.93 1167.03C2245.47 1167.69 2246.44 1167.77 2247.1 1167.23L2291.51 1130.32C2292.16 1129.78 2292.25 1128.81 2291.71 1128.16C2291.17 1127.51 2290.2 1127.42 2289.54 1127.96Z" fill="#49263E"/>
<path d="M1875.74 1614.74H1859.53V1808.1H1875.74V1614.74Z" fill="#C13216"/>
<path d="M2238.22 1614.74H2222.01V1808.1H2238.22V1614.74Z" fill="#C13216"/>
<path d="M2600.7 1614.74H2584.49V1808.1H2600.7V1614.74Z" fill="#C13216"/>
<path d="M1176.55 503.716C1176.55 503.716 1166.82 473.655 1137.27 478.918C1107.71 484.181 1118.16 527.899 1118.16 527.899C1118.16 527.899 1108.62 525.884 1102.01 530.397C1095.51 534.835 1099.01 545.034 1106.87 544.584C1129.25 543.302 1181.72 541.066 1227.33 544.912C1246.19 546.503 1262.49 531.431 1262.06 512.499C1261.89 504.751 1259.11 495.737 1251.92 485.523C1224.23 446.193 1176.09 483.752 1176.55 503.716Z" fill="white"/>
<path d="M2460.57 962.064C2460.57 962.064 2450.84 932.003 2421.28 937.266C2391.73 942.529 2402.18 986.247 2402.18 986.247C2402.18 986.247 2392.64 984.232 2386.03 988.745C2379.53 993.183 2383.03 1003.38 2390.89 1002.93C2413.27 1001.65 2465.73 999.414 2511.34 1003.26C2530.21 1004.85 2546.5 989.779 2546.08 970.847C2545.9 963.099 2543.13 954.085 2535.93 943.87C2508.24 904.542 2460.11 942.1 2460.57 962.064Z" fill="white"/>
<path d="M919.476 723.06C900.179 675.602 864.783 714.555 864.783 714.555C864.783 714.555 861.557 641.128 799.108 648.641C738.337 655.952 754.019 725.617 754.019 725.617C739.518 726.508 731.428 731.672 726.977 737.76C724.515 741.127 724.141 745.165 725.194 748.697H975.715C980.423 743.076 981.347 733.819 975.87 726.913C957.57 703.838 919.476 723.06 919.476 723.06Z" fill="white"/>
<path d="M1859.21 376.642C1878.51 329.183 1913.9 368.137 1913.9 368.137C1913.9 368.137 1917.13 294.71 1979.58 302.223C2040.35 309.534 2024.67 379.199 2024.67 379.199C2039.17 380.09 2047.26 385.254 2051.71 391.342C2054.17 394.709 2054.55 398.747 2053.49 402.279H1802.97C1798.26 396.658 1797.34 387.401 1802.82 380.494C1821.11 357.42 1859.21 376.642 1859.21 376.642Z" fill="white"/>
<path d="M1661.74 1336.08C1661.74 1336.08 1556.16 1306.23 1545.52 1323.13C1531.74 1345.01 1584.71 1358.69 1588.44 1376.05C1592.17 1393.4 1578.84 1397.48 1545.52 1396.83C1512.2 1396.17 1459.77 1404.43 1445.89 1422.13C1432.01 1439.83 1486.63 1433.24 1485.76 1448.14C1484.9 1463.04 1400.87 1475.48 1392.71 1523.41C1384.56 1571.33 1466.07 1522.1 1508.4 1504.23C1550.72 1486.36 1539.49 1522.9 1527.81 1532.61C1516.12 1542.32 1503.48 1555.22 1508.8 1565.73C1514.11 1576.25 1536.75 1570.91 1568.16 1536.14C1599.57 1501.36 1678.72 1549.52 1678.72 1549.52L1661.74 1336.08Z" fill="#0A324C"/>
<path d="M1567.52 1371.42C1567.52 1371.42 1539.63 1348.28 1523.85 1347.54C1508.07 1346.79 1502.83 1353.85 1503.39 1362.83C1504.07 1373.91 1520.87 1377.48 1532.54 1373.87C1544.21 1370.27 1567.52 1371.42 1567.52 1371.42Z" fill="#0A324C"/>
<path d="M1599.13 1556.03C1599.13 1556.03 1577.05 1560.63 1570.57 1568.02C1564.09 1575.4 1565.5 1580.69 1570.08 1583.9C1575.74 1587.86 1583.99 1581.08 1586.76 1574C1589.53 1566.92 1599.13 1556.03 1599.13 1556.03Z" fill="#0A324C"/>
<path d="M1614.6 1311.61C1614.6 1311.61 1603.54 1295.67 1595.52 1293.02C1587.49 1290.37 1583.78 1293.26 1582.77 1297.97C1581.54 1303.78 1589.68 1308.03 1596.21 1307.85C1602.75 1307.67 1614.6 1311.61 1614.6 1311.61Z" fill="#0A324C"/>
<path d="M1628.1 1634.73H1683.66V1261.39H1628.1V1634.73Z" fill="#C13216"/>
<path d="M1399.32 1342.31C1399.76 1340.73 1401.39 1339.79 1402.97 1340.22C1404.55 1340.66 1405.48 1342.29 1405.05 1343.87L1404.38 1352.42C1407.58 1350.61 1426.98 1337.45 1426.98 1337.45C1428.34 1336.42 1430.3 1336.74 1431.25 1338.18C1432.13 1339.5 1431.75 1341.28 1430.49 1342.24L1418.26 1351.52C1417.97 1351.74 1417.89 1352.14 1418.07 1352.45L1418.45 1353.12C1418.65 1353.47 1419.09 1353.59 1419.44 1353.39L1433.79 1345.19C1435.27 1344.35 1437.17 1344.92 1437.93 1346.47C1438.62 1347.89 1438.01 1349.61 1436.64 1350.39L1422.38 1358.54C1422.04 1358.74 1421.92 1359.18 1422.11 1359.53L1422.24 1359.74C1422.41 1360.04 1422.76 1360.17 1423.09 1360.06L1437.13 1355.37C1438.71 1354.84 1440.68 1355.59 1441.5 1357.03C1442.33 1358.48 1441.71 1360.09 1440.13 1360.62L1426.36 1365.23C1425.93 1365.37 1425.74 1365.87 1425.97 1366.27C1426.12 1366.53 1426.42 1366.67 1426.73 1366.62L1436.38 1364.76C1437.94 1364.46 1439.52 1365.37 1439.91 1366.9C1440.35 1368.58 1439.28 1370.25 1437.6 1370.57L1436.27 1370.82C1430.97 1371.84 1425.9 1373.82 1421.3 1376.65L1405.38 1386.48C1402.96 1382.4 1401.67 1380.03 1394.17 1364.21C1392.97 1362.92 1391.91 1361.06 1392.19 1360.03L1399.32 1342.31Z" fill="#F9B59D"/>
<path d="M1187.48 1224.24L1224.21 1232.99L1224.76 1263.37C1224.76 1263.37 1225.37 1273.62 1216.47 1275.07L1218.38 1288.74C1219.09 1293.82 1216.15 1298.75 1211.32 1300.38C1208.96 1301.18 1206.13 1301.79 1202.92 1301.84C1192.72 1302.03 1187.05 1294.43 1186.13 1290.59C1185.21 1286.76 1187.43 1268.32 1187.43 1268.32L1186.95 1259.29L1187.48 1224.24Z" fill="#F9B59D"/>
<path d="M1196.38 1251.36L1193.53 1251.86C1191.7 1248.15 1189.45 1242.15 1188.22 1238.75C1187.71 1240.11 1187.35 1241.63 1187.19 1243.37C1187.19 1243.37 1179.92 1229.08 1187.99 1220.79C1192.01 1216.65 1206.18 1214.07 1216.44 1220L1216.44 1219.99C1226.94 1225.5 1219.65 1237.29 1224.29 1237.34L1224.14 1237.23C1224.2 1237.49 1224.26 1237.76 1224.3 1238.02C1224.3 1238.02 1223.8 1237.26 1222.75 1236.2L1218.14 1232.81C1215.57 1231.42 1212.14 1230.25 1207.72 1230.04C1203.33 1229.83 1199.5 1230.14 1196.37 1231.17C1195.59 1233.79 1195.01 1238.97 1196.17 1249.14C1196.26 1249.98 1196.33 1250.71 1196.38 1251.36Z" fill="black"/>
<path d="M1183.32 1246.9C1177.81 1226.27 1187.99 1220.79 1187.99 1220.79L1185.66 1233.84L1189.1 1244.86L1183.32 1246.9Z" fill="black"/>
<path d="M1210.11 1245.37C1204.71 1242.54 1200.7 1248.73 1200.53 1249C1200.47 1249.1 1200.37 1249.17 1200.26 1249.19C1200.16 1249.21 1200.04 1249.19 1199.95 1249.13C1199.75 1249 1199.69 1248.74 1199.82 1248.54C1199.86 1248.47 1204.41 1241.42 1210.5 1244.61C1210.71 1244.72 1210.79 1244.98 1210.68 1245.19C1210.58 1245.4 1210.32 1245.48 1210.11 1245.37Z" fill="#21111D"/>
<path d="M1217.72 1244.85C1219.23 1242.68 1223.53 1244.81 1223.57 1244.83C1223.67 1244.88 1223.77 1244.89 1223.87 1244.86C1223.98 1244.83 1224.08 1244.75 1224.14 1244.64C1224.25 1244.43 1224.16 1244.17 1223.95 1244.06C1223.75 1243.96 1218.96 1241.58 1217.02 1244.36C1216.88 1244.55 1216.93 1244.82 1217.12 1244.95C1217.32 1245.09 1217.58 1245.05 1217.72 1244.85Z" fill="#21111D"/>
<path d="M1205.93 1250.24C1205.92 1249.54 1206.48 1248.95 1207.18 1248.94C1207.89 1248.93 1208.47 1249.49 1208.48 1250.2C1208.49 1250.91 1207.93 1251.49 1207.23 1251.5C1206.52 1251.52 1205.94 1250.95 1205.93 1250.24Z" fill="black"/>
<path d="M1219.46 1248.72C1219.45 1248.01 1220.01 1247.42 1220.71 1247.41C1221.42 1247.4 1222 1247.96 1222.01 1248.67C1222.02 1249.38 1221.46 1249.96 1220.76 1249.98C1220.06 1249.99 1219.47 1249.42 1219.46 1248.72Z" fill="black"/>
<path d="M1178.31 1251.19C1178.23 1246.94 1181.59 1243.43 1185.82 1243.35C1190.04 1243.27 1193.53 1246.66 1193.61 1250.91C1193.69 1255.16 1190.32 1258.67 1186.1 1258.75C1181.87 1258.83 1178.38 1255.44 1178.31 1251.19Z" fill="#F9B59D"/>
<path d="M1186.02 1248.09C1184.49 1247.28 1182.63 1247.92 1182.62 1247.93C1182.51 1247.97 1182.38 1247.91 1182.35 1247.8C1182.31 1247.69 1182.36 1247.57 1182.48 1247.53C1182.56 1247.5 1184.52 1246.82 1186.21 1247.71C1187.19 1248.23 1187.86 1249.16 1188.22 1250.48L1188.41 1251.22L1187.86 1250.69C1187.78 1250.61 1185.93 1248.87 1183.81 1250.25C1182.63 1251.01 1182.55 1252.37 1182.84 1253.3C1183.14 1254.27 1184.01 1255.38 1185.47 1255.35C1185.48 1255.35 1185.49 1255.35 1185.51 1255.35C1185.63 1255.35 1185.72 1255.44 1185.73 1255.56C1185.73 1255.68 1185.64 1255.77 1185.52 1255.78C1185.51 1255.78 1185.49 1255.78 1185.48 1255.78C1183.89 1255.81 1182.8 1254.62 1182.43 1253.43C1181.99 1252.02 1182.44 1250.63 1183.57 1249.89C1185.25 1248.8 1186.8 1249.45 1187.6 1249.96C1187.25 1249.09 1186.72 1248.46 1186.02 1248.09Z" fill="#F07162"/>
<path d="M1215.95 1246.55C1216.06 1246.53 1216.17 1246.61 1216.19 1246.73L1217.77 1257.15L1213.2 1258.76C1213.18 1258.77 1213.16 1258.77 1213.13 1258.77C1213.05 1258.77 1212.96 1258.72 1212.93 1258.63C1212.89 1258.52 1212.95 1258.4 1213.06 1258.36L1217.3 1256.86L1215.77 1246.8C1215.75 1246.68 1215.83 1246.57 1215.95 1246.55Z" fill="#F07162"/>
<path d="M1202.38 1230.07C1209.96 1228.89 1223.91 1232.56 1224.23 1233.93C1224.55 1235.29 1224.36 1241.53 1224.36 1241.53C1224.36 1241.53 1210.02 1239.35 1209.85 1239.35C1209.68 1239.36 1194.8 1231.25 1202.38 1230.07Z" fill="#F9B59D"/>
<path d="M1197.84 1231.75L1197.47 1234.92L1190.37 1225.06L1197.84 1231.75Z" fill="#FE9F73"/>
<path d="M1185.52 1238.35C1183.81 1233.74 1192.52 1233.07 1192.52 1233.07L1196.38 1251.36L1190.76 1252.34L1187.19 1243.37C1187.19 1243.37 1187.24 1242.97 1185.52 1238.35Z" fill="black"/>
<path d="M1194.41 1264.76C1200.97 1278.82 1216.46 1275.07 1216.46 1275.07L1217.21 1280.42C1196.88 1284.32 1194.41 1264.76 1194.41 1264.76Z" fill="#F07162"/>
<path d="M1216.23 1263.13C1216.17 1263.12 1210.1 1261.97 1208.23 1259.11L1207.69 1259.46C1209.72 1262.55 1215.86 1263.71 1216.12 1263.76L1216.23 1263.13Z" fill="#F07162"/>
<path d="M1188.2 1235.32L1181.17 1241.31C1178.42 1236.85 1180.63 1219.07 1186.78 1212.96C1192.93 1206.86 1207.36 1202.16 1217.63 1208.6C1227.89 1215.04 1229.05 1230.69 1229.05 1230.69L1226.41 1232.38L1200.22 1232.33L1188.2 1235.32Z" fill="#F7AB47"/>
<path d="M1204.75 1234.02C1188.37 1234.26 1181.17 1241.31 1181.17 1241.31C1181.17 1241.31 1181.45 1235.04 1190.4 1232.27C1198.55 1229.74 1213.75 1226.37 1229.05 1230.69L1233.12 1235.83C1233.8 1236.29 1233.36 1237.38 1232.56 1237.19C1225.63 1235.55 1216.71 1233.83 1204.75 1234.02Z" fill="#FFCB92"/>
<path d="M1197.36 1206.93C1197.36 1206.93 1198.75 1200.83 1206.36 1205.51C1213.97 1210.2 1212.62 1228.62 1212.62 1228.62L1207.13 1228.9C1207.13 1228.9 1206.16 1216.16 1203.64 1211.22C1201 1206.05 1197.36 1206.93 1197.36 1206.93Z" fill="#F9B767"/>
<path d="M1252.21 1834.69L1214.66 1835.21L1214.1 1798.04L1251.5 1793.16L1252.21 1834.69Z" fill="#FE9F73"/>
<path d="M1228.37 1822.71C1228.37 1822.71 1240.97 1831.64 1252.08 1820.83L1279.66 1833.06C1279.66 1833.06 1289.79 1836.44 1289.79 1841.65H1214.57V1826.31C1214.57 1826.31 1220.04 1818.95 1228.37 1822.71Z" fill="#4CB7D8"/>
<path d="M1214.85 1826.31H1214.3V1839.34H1214.85V1826.31Z" fill="black"/>
<path d="M1241.3 1825.82L1241.38 1826.36C1241.36 1826.37 1240.72 1826.46 1239.67 1826.46C1237.26 1826.46 1232.65 1825.99 1228.22 1822.93L1228.53 1822.48C1234.72 1826.74 1241.23 1825.82 1241.3 1825.82Z" fill="black"/>
<path d="M1218.06 1834.33L1217.75 1834.79L1221.28 1837.16L1221.58 1836.7L1218.06 1834.33Z" fill="black"/>
<path d="M1220.6 1833.73L1220.29 1834.18L1223.81 1836.56L1224.12 1836.1L1220.6 1833.73Z" fill="black"/>
<path d="M1213.97 1839.63H1290.19C1291.77 1839.63 1293.05 1840.91 1293.05 1842.5V1844.15C1293.05 1845.74 1291.77 1847.02 1290.19 1847.02H1213.97C1213.33 1847.02 1212.82 1846.5 1212.82 1845.87V1840.78C1212.82 1840.15 1213.33 1839.63 1213.97 1839.63Z" fill="#ED823A"/>
<path d="M1282.39 1833.87C1288.03 1836.28 1289.55 1839.38 1289.61 1839.51L1289.11 1839.75C1289.09 1839.72 1287.6 1836.7 1282.17 1834.38C1276.62 1832.01 1252.21 1821.19 1251.97 1821.08L1252.19 1820.57C1252.44 1820.68 1276.84 1831.51 1282.39 1833.87Z" fill="black"/>
<path d="M1214.67 1839.35H1289.36C1291.55 1839.35 1293.33 1841.14 1293.33 1843.33C1293.33 1844.5 1292.82 1845.6 1291.93 1846.36L1291.57 1845.94C1292.34 1845.28 1292.78 1844.33 1292.78 1843.33C1292.78 1841.44 1291.24 1839.91 1289.36 1839.91H1214.67C1213.8 1839.91 1213.09 1840.61 1213.09 1841.48V1845.17H1212.54V1841.48C1212.54 1840.31 1213.5 1839.35 1214.67 1839.35Z" fill="black"/>
<path d="M1181.56 1834.16L1144 1834.68L1143.45 1797.51L1180.85 1792.62L1181.56 1834.16Z" fill="#FE9F73"/>
<path d="M1268.4 1484.56L1265.17 1804.62C1236.86 1815.72 1211.88 1811.72 1211.88 1811.72C1194.98 1699.74 1187.26 1505.67 1187.26 1505.67L1265.19 1477.7L1268.4 1484.56Z" fill="#0A324C"/>
<path d="M1230.63 1464.6L1215.82 1538.12L1192.19 1810.05C1163.34 1819.66 1138.6 1814.37 1138.6 1814.37C1127.53 1701.66 1129.89 1507.46 1129.89 1507.46L1230.63 1464.6Z" fill="#0A324C"/>
<path d="M1262.78 1296.52L1327.03 1385.66L1391 1351.49C1391 1351.49 1408.09 1361.1 1414.56 1388.76C1414.56 1388.76 1325.58 1448.66 1313.55 1443.31C1305.71 1439.82 1268.85 1398.96 1259.01 1385.66C1267.4 1380.85 1255.19 1302.37 1262.78 1296.52Z" fill="#0A324C"/>
<path d="M1185.81 1317.11L1184.99 1318.42C1177.18 1313.56 1171.52 1306.03 1169.04 1297.21L1170.53 1296.79C1172.91 1305.23 1178.33 1312.45 1185.81 1317.11Z" fill="#21111D"/>
<path d="M1157.72 1822.17C1157.72 1822.17 1170.32 1831.1 1181.43 1820.29L1209.01 1832.52C1209.01 1832.52 1219.14 1835.9 1219.14 1841.11H1143.92V1825.77C1143.92 1825.77 1149.39 1818.41 1157.72 1822.17Z" fill="#4CB7D8"/>
<path d="M1144.2 1825.77H1143.64V1838.8H1144.2V1825.77Z" fill="black"/>
<path d="M1170.65 1825.28L1170.73 1825.82C1170.71 1825.83 1170.07 1825.92 1169.02 1825.92C1166.6 1825.92 1162 1825.45 1157.57 1822.39L1157.88 1821.94C1164.07 1826.2 1170.58 1825.29 1170.65 1825.28Z" fill="black"/>
<path d="M1147.41 1833.79L1147.1 1834.25L1150.62 1836.62L1150.93 1836.16L1147.41 1833.79Z" fill="black"/>
<path d="M1149.95 1833.19L1149.64 1833.64L1153.16 1836.02L1153.47 1835.56L1149.95 1833.19Z" fill="black"/>
<path d="M1143.32 1839.09H1219.54C1221.12 1839.09 1222.4 1840.37 1222.4 1841.96V1843.62C1222.4 1845.2 1221.12 1846.48 1219.54 1846.48H1143.32C1142.68 1846.48 1142.17 1845.97 1142.17 1845.33V1840.24C1142.17 1839.61 1142.68 1839.09 1143.32 1839.09Z" fill="#ED823A"/>
<path d="M1211.74 1833.33C1217.38 1835.74 1218.89 1838.84 1218.96 1838.97L1218.46 1839.21C1218.44 1839.18 1216.95 1836.16 1211.52 1833.84C1205.97 1831.47 1181.56 1820.65 1181.32 1820.54L1181.54 1820.04C1181.79 1820.14 1206.19 1830.97 1211.74 1833.33Z" fill="black"/>
<path d="M1144.02 1838.81H1218.71C1220.9 1838.81 1222.68 1840.6 1222.68 1842.79C1222.68 1843.96 1222.17 1845.06 1221.28 1845.82L1220.92 1845.4C1221.69 1844.74 1222.13 1843.79 1222.13 1842.79C1222.13 1840.9 1220.59 1839.37 1218.71 1839.37H1144.02C1143.15 1839.37 1142.44 1840.07 1142.44 1840.94V1844.63H1141.89V1840.94C1141.89 1839.77 1142.85 1838.81 1144.02 1838.81Z" fill="black"/>
<path d="M1100.64 1372.09C1110.57 1339.52 1128.65 1300.06 1134.03 1296.79C1141.06 1292.53 1199.7 1289.46 1199.7 1289.46C1199.7 1289.46 1241.56 1290.18 1256.34 1293.25C1258.74 1293.75 1260.96 1294.89 1262.78 1296.52L1272.05 1304.82L1309.53 1361.66C1304.62 1369.89 1288.14 1374.03 1282.1 1381.58C1274.57 1376.88 1269.21 1373.28 1269.21 1373.28L1269.27 1376.4L1268.4 1492.15C1174.53 1503.18 1129.76 1513.4 1129.76 1513.4L1127.59 1455L1200.41 1440.24L1140.53 1424.1C1140.53 1424.1 1142.29 1374.7 1140.53 1373.19C1139.45 1372.26 1117.51 1372.09 1100.64 1372.09Z" fill="#0A324C"/>
<path d="M1208.63 1564.19L1221.97 1550.76L1223.21 1551.99L1210.34 1564.96L1193.43 1809.99L1191.68 1809.87L1208.61 1564.51L1208.63 1564.19Z" fill="#21111D"/>
<path d="M1128.18 1454.95L1126.86 1455L1129.29 1521.37L1130.6 1521.33L1128.18 1454.95Z" fill="#21111D"/>
<path d="M1212.67 1810.9C1217.59 1811.31 1247.12 1813.28 1264.75 1803.85L1265.58 1805.39C1253.49 1811.86 1236.45 1813.15 1224.8 1813.15C1217.51 1813.15 1212.32 1812.64 1211.79 1812.59L1211.09 1812.51L1198.95 1704.69L1200.7 1704.49L1212.67 1810.9Z" fill="#21111D"/>
<path d="M1266.97 1318.39L1269.86 1373.29L1269.35 1452.93L1268.05 1452.92L1268.57 1373.32L1265.67 1318.46L1266.97 1318.39Z" fill="#1D1D1B"/>
<path d="M1219.41 1279.04C1219.41 1279.04 1223.46 1292.1 1223.69 1292.24C1223.69 1292.24 1224.72 1304.2 1207.18 1307.16C1189.64 1310.12 1179.88 1297.54 1179.88 1297.54L1184.64 1279.91C1196.97 1285.78 1219.41 1279.04 1219.41 1279.04Z" fill="#0A324C"/>
<path d="M1134.03 1296.8C1134.03 1296.8 1134.19 1297.1 1134.48 1297.67C1136.74 1302.11 1147.1 1322.9 1153.22 1342.41C1153.5 1343.3 1153.77 1344.18 1154.03 1345.07L1147.45 1379.42C1147.23 1379.43 1147 1379.43 1146.76 1379.42C1146.56 1379.42 1146.35 1379.41 1146.14 1379.4C1119.25 1378.61 1101.88 1381.37 1098.24 1382.03C1097.76 1382.11 1097.52 1382.16 1097.52 1382.16C1118.97 1310.02 1134.03 1296.8 1134.03 1296.8Z" fill="#0A324C"/>
<path d="M1148.38 1371.3L1140.96 1409.95L1220.55 1417.65L1216.79 1455.1L1127.59 1455C1127.59 1455 1093.27 1458.55 1093.2 1422.17C1093.13 1385.79 1103.12 1364.31 1103.12 1364.31L1148.38 1371.3Z" fill="#0A324C"/>
<path d="M1107.83 1348.98C1108.04 1349.05 1108.25 1349.13 1108.47 1349.21C1108.67 1349.28 1108.87 1349.36 1109.07 1349.43C1132.63 1358.14 1146.59 1360.55 1149.66 1361.01C1150.09 1361.08 1150.31 1361.1 1150.31 1361.1L1143.79 1395.15C1143.56 1395.21 1143.33 1395.26 1143.1 1395.31C1126.79 1398.95 1109.48 1395.01 1096.54 1390.32C1096.12 1390.18 1095.71 1390.02 1095.3 1389.87C1098.14 1373.94 1102.22 1364.73 1102.52 1364.07C1102.8 1363.24 1104.82 1357.18 1107.83 1348.98Z" fill="#FFCB92"/>
<path d="M1231.03 1483.64C1229.83 1483.55 1228.94 1482.35 1229.04 1480.96L1236.61 1376.19C1236.71 1374.79 1237.76 1373.73 1238.96 1373.82L1309.31 1378.9C1310.51 1378.99 1311.4 1380.19 1311.3 1381.58L1303.73 1486.36C1303.63 1487.75 1302.58 1488.81 1301.38 1488.72L1231.03 1483.64Z" fill="#DF502B"/>
<path d="M1252.44 1370.62L1293.3 1373.57C1293.6 1373.59 1293.82 1373.89 1293.79 1374.24L1293.54 1377.76L1251.61 1374.73L1251.86 1371.21C1251.89 1370.86 1252.15 1370.6 1252.44 1370.62Z" fill="#E2F2F1"/>
<path d="M1216.53 1451.21L1217.82 1451.35L1231.72 1452.87C1237.09 1453.46 1242.3 1455.01 1247.11 1457.47L1248.32 1458.08C1249.84 1458.86 1251.71 1458.2 1252.4 1456.61C1253.02 1455.16 1252.34 1453.47 1250.93 1452.75L1242.17 1448.28C1241.89 1448.14 1241.74 1447.85 1241.78 1447.54C1241.85 1447.09 1242.31 1446.81 1242.74 1446.96L1256.43 1451.79C1258 1452.34 1259.48 1451.45 1259.71 1449.8C1259.95 1448.15 1258.86 1446.35 1257.29 1445.8L1243.32 1440.88C1243 1440.77 1242.8 1440.44 1242.85 1440.1L1242.88 1439.86C1242.94 1439.46 1243.31 1439.19 1243.7 1439.25L1259.96 1441.58C1261.52 1441.8 1263.06 1440.82 1263.38 1439.27C1263.74 1437.58 1262.59 1435.96 1260.9 1435.72L1244.54 1433.37C1244.15 1433.32 1243.88 1432.95 1243.93 1432.56L1244.04 1431.79C1244.09 1431.43 1244.4 1431.17 1244.76 1431.17L1260.12 1431.36C1261.7 1431.38 1263.09 1430.2 1263.21 1428.63C1263.35 1426.9 1261.99 1425.45 1260.29 1425.43C1260.29 1425.43 1236.89 1423.89 1233.26 1423.35L1239.04 1417.02C1239.82 1416.43 1240.23 1415.54 1240.23 1414.63C1240.23 1414.01 1240.04 1413.39 1239.64 1412.86C1238.66 1411.55 1236.8 1411.28 1235.48 1412.27L1220.89 1420.75L1219.5 1421.56L1216.53 1451.21Z" fill="#F9B59D"/>
<path d="M1092.55 1422.17C1092.57 1433.42 1095.84 1442.06 1102.27 1447.84C1110.04 1454.84 1120.25 1455.75 1125.01 1455.75C1126.45 1455.75 1127.39 1455.67 1127.63 1455.64L1217.38 1455.75L1217.82 1451.35L1220.89 1420.75L1221.26 1417.06L1141.73 1409.37L1147.46 1379.42L1154.03 1345.07L1155.43 1337.8L1154.15 1337.56L1153.22 1342.4L1149.66 1361.01L1146.14 1379.4L1143.1 1395.31L1140.18 1410.53L1219.83 1418.23L1219.5 1421.56L1216.53 1451.21L1216.21 1454.45L1127.56 1454.35H1127.53C1127.38 1454.37 1112.97 1455.73 1103.12 1446.87C1097 1441.35 1093.87 1433.03 1093.85 1422.17C1093.82 1409.74 1095 1399.02 1096.54 1390.32C1097.07 1387.31 1097.65 1384.54 1098.24 1382.02C1100.85 1370.87 1103.66 1364.7 1103.71 1364.58L1103.74 1364.51C1103.8 1364.34 1105.89 1358.08 1109.07 1349.42C1114.76 1333.96 1123.93 1310.84 1131.2 1301.17L1131.26 1301.07C1131.27 1301.05 1132.27 1299.16 1134.48 1297.66C1135.53 1296.94 1136.86 1296.31 1138.47 1296.01C1143.81 1295.02 1171.09 1292.06 1171.36 1292.02L1171.22 1290.73C1170.1 1290.86 1143.62 1293.73 1138.24 1294.73C1132.83 1295.74 1130.43 1299.89 1130.13 1300.43C1122.68 1310.38 1113.51 1333.5 1107.83 1348.98C1104.83 1357.18 1102.8 1363.24 1102.52 1364.07C1102.22 1364.73 1098.14 1373.94 1095.3 1389.87C1093.72 1398.68 1092.53 1409.55 1092.55 1422.17Z" fill="#1D1D1B"/>
<path d="M1237.85 1423.3L1241.35 1413.08L1234.31 1407.96L1233.26 1423.35L1237.85 1423.3Z" fill="#DF502B"/>
<path d="M1126.32 1364.41C1126.32 1364.41 1130.2 1375.34 1129.18 1379.1C1128.24 1382.61 1124.63 1384.69 1121.12 1383.75C1117.62 1382.8 1115.54 1379.2 1116.48 1375.69C1117.6 1371.53 1126.32 1364.41 1126.32 1364.41Z" fill="#0A324C"/>
<path opacity="0.5" d="M1118.1 1379.03C1118.79 1380.4 1119.84 1381.26 1120.45 1380.96C1121.06 1380.65 1120.99 1379.29 1120.3 1377.92C1119.61 1376.55 1118.56 1375.68 1117.95 1375.99C1117.34 1376.29 1117.41 1377.65 1118.1 1379.03Z" fill="white"/>
<path d="M835.983 1236.9L835.845 1269.67C835.845 1269.67 836.239 1280.2 827.018 1281.48L828.679 1295.54C829.296 1300.77 826.152 1305.75 821.129 1307.32C818.673 1308.09 815.742 1308.64 812.421 1308.63C801.888 1308.58 796.217 1300.66 795.356 1296.71C794.495 1292.75 797.207 1273.89 797.207 1273.89L796.925 1264.62L798.275 1228.7L835.983 1236.9Z" fill="#F9B498"/>
<path d="M805.691 1272.44C805.691 1272.44 806.235 1290.07 828.244 1291.85L827.019 1281.48C827.019 1281.48 812.728 1284.29 805.691 1272.44Z" fill="#F07162"/>
<path d="M810.485 1253.98C810.376 1253.98 810.266 1253.94 810.181 1253.86C810.007 1253.69 810.002 1253.41 810.171 1253.24C810.232 1253.17 816.294 1247.03 821.791 1251.49C821.979 1251.65 822.008 1251.92 821.855 1252.11C821.702 1252.3 821.426 1252.33 821.238 1252.17C816.367 1248.22 811.027 1253.62 810.803 1253.85C810.716 1253.94 810.6 1253.98 810.485 1253.98Z" fill="black"/>
<path d="M795.379 1249.31L804.842 1251.32L806.547 1253.11C806.547 1253.11 805.794 1237.22 804.023 1234.09C802.252 1230.96 795.379 1249.31 795.379 1249.31Z" fill="black"/>
<path d="M828.585 1251.42C828.462 1251.42 828.34 1251.37 828.254 1251.27C828.096 1251.09 828.117 1250.81 828.301 1250.65C828.478 1250.5 832.68 1246.94 835.317 1249.22C835.5 1249.38 835.52 1249.65 835.362 1249.84C835.204 1250.02 834.927 1250.04 834.743 1249.88C832.677 1248.1 828.911 1251.29 828.873 1251.32C828.789 1251.39 828.687 1251.42 828.585 1251.42Z" fill="black"/>
<path d="M819.352 1255.79C819.349 1256.52 818.757 1257.11 818.03 1257.1C817.303 1257.1 816.716 1256.51 816.719 1255.78C816.722 1255.05 817.314 1254.47 818.041 1254.47C818.768 1254.47 819.355 1255.07 819.352 1255.79Z" fill="black"/>
<path d="M833.352 1254.53C833.349 1255.26 832.757 1255.85 832.03 1255.85C831.303 1255.84 830.716 1255.25 830.719 1254.52C830.722 1253.8 831.314 1253.21 832.041 1253.21C832.768 1253.22 833.355 1253.81 833.352 1254.53Z" fill="black"/>
<path d="M808.479 1255.29C808.461 1259.65 804.909 1263.17 800.546 1263.16C796.184 1263.14 792.662 1259.59 792.68 1255.22C792.698 1250.86 796.25 1247.34 800.613 1247.36C804.976 1247.38 808.498 1250.93 808.479 1255.29Z" fill="#F9B498"/>
<path d="M799.177 1259.63C797.536 1259.63 796.445 1258.39 796.089 1257.16C795.668 1255.7 796.164 1254.28 797.35 1253.55C799.104 1252.47 800.687 1253.18 801.497 1253.71C801.16 1252.82 800.628 1252.16 799.911 1251.76C798.358 1250.9 796.425 1251.52 796.406 1251.52C796.291 1251.56 796.167 1251.5 796.129 1251.38C796.091 1251.27 796.154 1251.14 796.269 1251.11C796.355 1251.08 798.399 1250.42 800.121 1251.38C801.115 1251.93 801.79 1252.9 802.124 1254.26L802.312 1255.03L801.755 1254.47C801.676 1254.39 799.806 1252.56 797.58 1253.93C796.348 1254.68 796.234 1256.07 796.51 1257.03C796.798 1258.03 797.667 1259.19 799.176 1259.2C799.191 1259.2 799.205 1259.2 799.221 1259.2C799.341 1259.2 799.438 1259.29 799.439 1259.41C799.44 1259.53 799.343 1259.63 799.222 1259.64C799.208 1259.63 799.193 1259.64 799.177 1259.63Z" fill="#F07162"/>
<path d="M823.957 1264.69C823.865 1264.69 823.779 1264.63 823.749 1264.54C823.711 1264.43 823.774 1264.3 823.89 1264.26L828.295 1262.83L826.949 1252.47C826.933 1252.35 827.018 1252.24 827.138 1252.22C827.259 1252.21 827.368 1252.29 827.384 1252.41L828.777 1263.13L824.026 1264.68C824.003 1264.69 823.98 1264.69 823.957 1264.69Z" fill="#F07162"/>
<path d="M820.531 1268.95C820.666 1268.93 829.221 1268.76 829.221 1268.76C829.221 1268.76 828.132 1272.3 824.953 1272.37C821.773 1272.43 820.531 1268.95 820.531 1268.95Z" fill="#FBFDFC"/>
<path d="M795.378 1249.31C795.378 1249.31 792.776 1233.92 797.509 1228.21C802.243 1222.49 829.313 1212.57 832.577 1215.45C835.841 1218.33 832.55 1221.8 832.55 1221.8C832.55 1221.8 838.201 1220.57 840.617 1230.2C843.034 1239.84 824.89 1241.63 810.985 1237.07C810.985 1237.07 801.766 1239.72 795.378 1249.31Z" fill="black"/>
<path d="M800.499 1241.13L794.711 1248.46C791.097 1244.59 789.778 1226.51 794.67 1219.24C799.562 1211.97 812.947 1204.46 824.4 1208.81C835.853 1213.17 840.094 1228.46 840.094 1228.46L837.81 1230.66L811.825 1235.79L800.499 1241.13Z" fill="#F7AB47"/>
<path d="M816.655 1236.56C800.456 1240.05 794.71 1248.46 794.71 1248.46C794.71 1248.46 793.744 1242.19 802.077 1237.67C809.663 1233.55 824.07 1227.2 840.093 1228.46L845.149 1232.76C845.914 1233.08 845.692 1234.24 844.868 1234.21C837.671 1233.96 828.476 1234.02 816.655 1236.56Z" fill="#FFCB92"/>
<path d="M803.973 1211.16C803.973 1211.16 804.139 1204.84 812.614 1207.98C821.089 1211.12 823.39 1229.66 823.39 1229.66L818 1231.02C818 1231.02 814.526 1218.57 811.047 1214.17C807.401 1209.57 803.973 1211.16 803.973 1211.16Z" fill="#F9B767"/>
<path d="M687.938 1402.53C688.312 1428.2 715.864 1473.29 728.718 1485.1L747.267 1463.59C742.108 1454.78 727.528 1408.85 731.233 1403.06C734.805 1397.47 743.426 1381.79 750.951 1369.79C743.212 1366.92 726.151 1358.57 714.337 1348.28C706.742 1362.52 687.83 1395.11 687.938 1402.53Z" fill="#F9B498"/>
<path d="M1062.4 1422.74L1043.15 1420.65C1042.69 1420.6 1042.35 1420.18 1042.4 1419.72L1042.5 1418.82C1042.55 1418.39 1042.9 1418.07 1043.32 1418.06L1061.31 1417.67C1063.16 1417.62 1064.75 1416.19 1064.83 1414.34C1064.91 1412.31 1063.27 1410.67 1061.28 1410.71C1061.28 1410.71 1033.81 1409.84 1029.53 1409.36L1036.05 1401.71C1037.55 1400.51 1037.79 1398.32 1036.59 1396.82C1035.38 1395.33 1033.19 1395.09 1031.7 1396.29L1012.74 1408.19C1011.76 1408.98 1011.48 1411.47 1011.74 1413.52C1007.97 1433.69 1007.56 1436.83 1007.05 1442.36L1028.92 1444C1035.23 1444.47 1041.4 1446.08 1047.13 1448.76L1048.57 1449.44C1050.38 1450.28 1052.54 1449.44 1053.28 1447.55C1053.96 1445.82 1053.08 1443.87 1051.41 1443.09L1040.97 1438.21C1040.64 1438.05 1040.45 1437.71 1040.49 1437.35C1040.55 1436.82 1041.07 1436.48 1041.58 1436.64L1057.81 1441.74C1059.67 1442.32 1061.37 1441.22 1061.58 1439.28C1061.79 1437.34 1060.44 1435.28 1058.58 1434.69L1042.03 1429.49C1041.64 1429.37 1041.4 1428.99 1041.44 1428.59L1041.47 1428.31C1041.52 1427.84 1041.94 1427.51 1042.4 1427.56L1061.54 1429.64C1063.38 1429.84 1065.14 1428.63 1065.46 1426.8C1065.8 1424.8 1064.39 1422.95 1062.4 1422.74Z" fill="#F9B498"/>
<path d="M889.932 1340.14L852.461 1367.73C852.461 1367.73 874.897 1416.26 884.929 1425.79C894.961 1435.32 1011.61 1446.94 1011.61 1446.94L1017.77 1399.85L920.919 1385.12L889.932 1340.14Z" fill="#0A324C"/>
<path d="M759.605 1801.57L760.082 1832.96L793.367 1832.51L792.759 1797.43L759.605 1801.57Z" fill="#FE9F73"/>
<path d="M834.945 1801.57L835.422 1832.96L868.707 1832.51L868.099 1797.43L834.945 1801.57Z" fill="#FE9F73"/>
<path d="M825.848 1836.95H821.257L799.939 1823.93L788.284 1836.95H759.537C758.819 1836.95 758.238 1837.55 758.238 1838.29V1842.75C758.238 1843.26 758.636 1843.66 759.127 1843.66H825.969C827.988 1843.66 829.58 1841.79 829.178 1839.64C828.881 1838.05 827.43 1836.95 825.848 1836.95Z" fill="#ED823A"/>
<path d="M817.39 1831.01L792.983 1819.91C783.154 1829.73 772.005 1821.61 772.005 1821.61C764.634 1818.2 759.94 1823.38 759.94 1823.38L759.793 1836.99H825.895C824.082 1833.31 817.39 1831.01 817.39 1831.01Z" fill="#4CB7D8"/>
<path d="M760.04 1824.88H759.551V1836.93H760.04V1824.88Z" fill="black"/>
<path d="M772.144 1821.41L771.867 1821.82C775.792 1824.59 779.864 1825.02 781.998 1825.02C782.932 1825.02 783.495 1824.94 783.513 1824.93L783.441 1824.44C783.384 1824.44 777.623 1825.27 772.144 1821.41Z" fill="black"/>
<path d="M762.617 1832.57L765.735 1834.73L766.008 1834.31L762.89 1832.16L762.617 1832.57Z" fill="black"/>
<path d="M764.852 1831.96L767.969 1834.12L768.243 1833.7L765.125 1831.55L764.852 1831.96Z" fill="black"/>
<path d="M825.972 1836.72H759.881C758.842 1836.72 757.996 1837.59 757.996 1838.66V1842H758.485V1838.66C758.485 1837.87 759.111 1837.23 759.88 1837.23H825.971C827.64 1837.23 828.998 1838.62 828.998 1840.33C828.998 1841.24 828.609 1842.11 827.929 1842.7L828.245 1843.08C829.034 1842.39 829.487 1841.39 829.487 1840.33C829.488 1838.34 827.91 1836.72 825.972 1836.72Z" fill="black"/>
<path d="M819.802 1831.75C814.893 1829.6 793.3 1819.78 793.082 1819.68L792.883 1820.14C793.101 1820.24 814.698 1830.06 819.61 1832.21C824.417 1834.31 825.737 1837.05 825.749 1837.08L826.192 1836.87C826.137 1836.75 824.798 1833.93 819.802 1831.75Z" fill="black"/>
<path d="M901.547 1836.95H896.956L875.638 1823.93L863.983 1836.95H835.237C834.519 1836.95 833.938 1837.55 833.938 1838.29V1842.75C833.938 1843.26 834.335 1843.66 834.826 1843.66H901.669C903.688 1843.66 905.28 1841.79 904.878 1839.64C904.58 1838.05 903.129 1836.95 901.547 1836.95Z" fill="#ED823A"/>
<path d="M893.086 1831.01L868.679 1819.91C858.85 1829.73 847.701 1821.61 847.701 1821.61C840.329 1818.2 835.488 1824.89 835.488 1824.89V1836.99H901.59C899.779 1833.31 893.086 1831.01 893.086 1831.01Z" fill="#4CB7D8"/>
<path d="M835.735 1824.88H835.246V1836.93H835.735V1824.88Z" fill="black"/>
<path d="M847.839 1821.41L847.562 1821.82C851.487 1824.59 855.558 1825.02 857.693 1825.02C858.627 1825.02 859.19 1824.94 859.208 1824.93L859.135 1824.44C859.079 1824.44 853.318 1825.27 847.839 1821.41Z" fill="black"/>
<path d="M838.312 1832.57L841.43 1834.73L841.703 1834.31L838.586 1832.16L838.312 1832.57Z" fill="black"/>
<path d="M840.547 1831.96L843.664 1834.12L843.937 1833.7L840.82 1831.55L840.547 1831.96Z" fill="black"/>
<path d="M901.667 1836.72H835.576C834.536 1836.72 833.691 1837.59 833.691 1838.66V1842H834.181V1838.66C834.181 1837.87 834.807 1837.23 835.576 1837.23H901.667C903.336 1837.23 904.694 1838.62 904.694 1840.33C904.694 1841.24 904.304 1842.11 903.625 1842.7L903.941 1843.08C904.73 1842.39 905.183 1841.39 905.183 1840.33C905.183 1838.34 903.606 1836.72 901.667 1836.72Z" fill="black"/>
<path d="M895.501 1831.75C890.592 1829.6 868.998 1819.78 868.781 1819.68L868.582 1820.14C868.8 1820.24 890.397 1830.06 895.309 1832.21C900.116 1834.31 901.435 1837.05 901.448 1837.08L901.891 1836.87C901.836 1836.75 900.497 1833.93 895.501 1831.75Z" fill="black"/>
<path d="M875.94 1473.22L875.436 1447.78L809.887 1478.27C809.887 1478.27 817.607 1704.72 832.807 1824.89C832.807 1824.89 852.61 1831.58 878.067 1819.68L876.286 1494.23L875.94 1473.22Z" fill="#0A324C"/>
<path d="M758.239 1821.94C758.239 1821.94 777.107 1834 803.046 1823.69L833.727 1513.19L847.045 1434.29L756.451 1480.28C756.451 1480.28 748.28 1701 758.239 1821.94Z" fill="#0A324C"/>
<path d="M760.989 1304.75C760.67 1304.86 753.122 1307.35 748.341 1313.73C748.183 1313.94 748.226 1314.24 748.436 1314.39C748.522 1314.46 748.622 1314.49 748.721 1314.49C748.866 1314.49 749.009 1314.42 749.102 1314.3C753.698 1308.17 761.207 1305.68 761.282 1305.66C761.532 1305.58 761.669 1305.31 761.588 1305.06C761.508 1304.81 761.238 1304.67 760.989 1304.75Z" fill="#21111D"/>
<path d="M761.888 1309.16C761.569 1309.26 754.021 1311.76 749.24 1318.13C749.082 1318.34 749.125 1318.64 749.335 1318.8C749.421 1318.86 749.521 1318.89 749.62 1318.89C749.765 1318.89 749.908 1318.83 750.001 1318.7C754.597 1312.58 762.106 1310.09 762.181 1310.06C762.431 1309.98 762.568 1309.71 762.487 1309.46C762.405 1309.21 762.137 1309.08 761.888 1309.16Z" fill="#21111D"/>
<path d="M869.346 1303.01C860.906 1297.15 808.176 1295.47 808.176 1295.47C808.167 1295.47 808.167 1295.47 808.163 1295.47C807.603 1295.48 796.734 1295.33 785.552 1295.67L773.888 1295.77H773.461L773.31 1295.78C764.513 1295.96 739.66 1300.53 711.405 1344.97H711.401C706.397 1352.84 701.285 1361.96 696.135 1372.53C693.409 1378.12 690.671 1384.12 687.938 1390.56C689.031 1391.47 722.476 1400.64 732.306 1405.08C733.559 1403.07 735.062 1400.97 736.711 1398.8L736.788 1398.7C738.007 1397.1 739.307 1395.47 740.65 1393.81L740.684 1393.76C743.948 1389.71 747.448 1385.47 750.604 1381.19L750.648 1381.13C751.996 1379.3 753.278 1377.45 754.453 1375.61L754.721 1477.12L755.047 1526.3C755.047 1526.3 790.506 1533.83 807.992 1525.8C807.992 1525.8 808.243 1518.16 808.604 1505.67H840.016C840.472 1512.62 840.932 1517.99 841.393 1521.26C841.393 1521.26 854.836 1514.46 876.284 1506.95C876.284 1506.95 875.802 1473.36 874.992 1435.35C874.587 1416.55 874.782 1434.16 874.588 1416.55L884.927 1425.79L920.916 1385.12C899.955 1351.72 888.251 1331.81 881.19 1319.94C874.135 1308.08 871.719 1304.24 869.346 1303.01Z" fill="#0A324C"/>
<path d="M753.766 1375.56L753.473 1473.34L754.857 1473.35L755.15 1375.56L753.766 1375.56Z" fill="black"/>
<path d="M831.162 1523.02L831.137 1523.26L802.332 1823.86L803.708 1824L832.488 1523.65L847.887 1507.92L846.899 1506.95L831.162 1523.02Z" fill="black"/>
<path d="M833.397 1824.13L818.993 1662.32L818.023 1664.66L832.112 1825.33L832.639 1825.42C832.749 1825.44 837.821 1826.27 845.342 1826.27C854.384 1826.27 866.967 1825.07 878.739 1819.84L878.177 1818.57C858.748 1827.21 837.028 1824.65 833.397 1824.13Z" fill="black"/>
<path d="M797.25 1315.85L790.535 1321.68L791.442 1322.73L798.157 1316.9L797.25 1315.85Z" fill="black"/>
<path d="M797.25 1320.24L790.535 1326.07L791.442 1327.11L798.156 1321.28L797.25 1320.24Z" fill="black"/>
<path d="M705.959 1366.1L704.625 1366.47L706.982 1375.04L708.316 1374.68L705.959 1366.1Z" fill="black"/>
<path d="M709.819 1368.08L708.484 1368.45L710.841 1377.02L712.176 1376.66L709.819 1368.08Z" fill="black"/>
<path d="M867.143 1301.91L865.742 1301.43C866.394 1304.98 870.825 1330.45 872.143 1359.65C873.586 1391.62 875.348 1469.23 875.425 1487.3C875.423 1488.3 875.261 1588.28 875.208 1603.18C875.156 1618.08 874.832 1677.25 874.829 1677.85L876.213 1677.85C876.216 1677.26 876.54 1618.09 876.592 1603.19C876.644 1588.28 876.807 1488.3 876.808 1487.3C876.732 1469.21 874.968 1391.57 873.525 1359.59C872.104 1328.1 867.143 1301.91 867.143 1301.91Z" fill="black"/>
<path d="M759.859 1458.93C755.349 1461.42 750.301 1462.96 750.301 1462.96L757.999 1468.68C757.999 1468.68 762.967 1463.5 763.762 1461.95C764.558 1460.4 764.369 1456.43 759.859 1458.93Z" fill="#F07162"/>
<path d="M784.758 1475.46C781.299 1471.58 768.977 1465.55 765.134 1465.03C763.04 1464.75 754.528 1463.55 747.209 1462.52C747.137 1462.4 746.264 1461.64 746.19 1461.5L728.719 1485.1L737.48 1487.79C760.038 1492.36 772.432 1496.42 772.432 1496.42L772.429 1496.42C776.254 1498.59 779.927 1500.6 781.602 1501.51C782.509 1502 783.604 1502.08 784.538 1501.64C785.815 1501.04 786.769 1499.52 783.996 1495.63C783.996 1495.63 791.024 1495.53 785.174 1488.89C785.174 1488.89 792.389 1490.18 786.554 1482.25C786.554 1482.25 791.035 1482.5 784.758 1475.46Z" fill="#F9B498"/>
<path d="M776.709 1489.57C776.665 1489.54 776.619 1489.52 776.573 1489.51C776.381 1489.47 776.176 1489.56 776.073 1489.74C775.946 1489.96 776.024 1490.25 776.247 1490.37C779.383 1492.16 783.643 1495.94 783.685 1495.98C783.877 1496.15 784.172 1496.13 784.343 1495.94C784.514 1495.75 784.497 1495.45 784.305 1495.28C784.128 1495.12 779.93 1491.4 776.709 1489.57Z" fill="#F07162"/>
<path d="M777.858 1483.76C777.831 1483.75 777.804 1483.74 777.776 1483.73C777.56 1483.69 777.337 1483.8 777.25 1484.01C777.152 1484.25 777.266 1484.52 777.505 1484.62C781.568 1486.29 784.83 1489.2 784.863 1489.23C785.055 1489.41 785.35 1489.39 785.521 1489.2C785.693 1489.01 785.678 1488.71 785.487 1488.54C785.35 1488.42 782.077 1485.49 777.858 1483.76Z" fill="#F07162"/>
<path d="M780.254 1477.38C780.223 1477.37 780.191 1477.36 780.159 1477.35C779.949 1477.31 779.729 1477.42 779.638 1477.62C779.534 1477.85 779.64 1478.13 779.875 1478.23C783.341 1479.77 786.198 1482.56 786.226 1482.58C786.409 1482.76 786.705 1482.76 786.885 1482.58C787.065 1482.39 787.062 1482.1 786.879 1481.92C786.759 1481.8 783.874 1478.99 780.254 1477.38Z" fill="#F07162"/>
<path d="M802.885 1823.16C783.179 1832.11 761.786 1823 758.946 1821.71C750.542 1774.91 755.951 1548.87 756.006 1546.59C756.015 1546.2 755.709 1545.88 755.323 1545.87C755.317 1545.87 755.311 1545.87 755.306 1545.87C754.926 1545.87 754.614 1546.17 754.605 1546.55C754.549 1548.84 749.109 1776.19 757.633 1822.32L757.697 1822.67L758.013 1822.82C758.177 1822.9 769.695 1828.45 784.003 1828.45C790.199 1828.45 796.92 1827.41 803.466 1824.43C803.818 1824.27 803.974 1823.86 803.814 1823.51C803.653 1823.15 803.235 1823 802.885 1823.16Z" fill="black"/>
<path d="M687.939 1390.56C687.939 1390.56 683.057 1397.17 686.374 1408.9C689.691 1420.64 702.704 1467.71 724.138 1483.72C724.138 1483.72 744.282 1473.46 748.244 1459.43C748.244 1459.43 732.303 1421.92 732.303 1405.08C732.303 1388.23 687.939 1390.56 687.939 1390.56Z" fill="#0A324C"/>
<path d="M794.547 1285.11C794.547 1285.11 790.52 1298.09 790.297 1298.23C790.297 1298.23 789.271 1310.11 806.706 1313.05C824.141 1315.99 833.836 1303.49 833.836 1303.49L829.109 1285.96C816.85 1291.8 794.547 1285.11 794.547 1285.11Z" fill="#0A324C"/>
<path d="M711.406 1344.97H711.402C706.398 1352.84 701.287 1361.96 696.137 1372.53C712.853 1391.71 736.712 1398.8 736.712 1398.8L736.789 1398.7C738.008 1397.11 739.308 1395.47 740.651 1393.81L740.685 1393.76C743.949 1389.71 747.45 1385.48 750.606 1381.19L750.649 1381.13C726.765 1365.6 711.406 1344.97 711.406 1344.97Z" fill="#FFCB92"/>
<path d="M727.932 1366.16C727.932 1366.16 717.228 1370.62 715.114 1373.9C713.145 1376.95 714.023 1381.02 717.075 1382.99C720.127 1384.96 724.198 1384.08 726.167 1381.03C728.504 1377.41 727.932 1366.16 727.932 1366.16Z" fill="#0A324C"/>
<path opacity="0.5" d="M722.606 1382.07C721.126 1382.48 719.779 1382.28 719.598 1381.62C719.417 1380.97 720.47 1380.1 721.95 1379.69C723.43 1379.29 724.777 1379.49 724.958 1380.14C725.139 1380.8 724.086 1381.66 722.606 1382.07Z" fill="white"/>
<path d="M1751.86 1743.89L1779.85 1739.29C1779.85 1739.29 1788.18 1731.6 1807.1 1710.62C1826.03 1689.65 1836.94 1648.93 1836.94 1648.93L1795.75 1612.46C1788.11 1655.31 1751.86 1743.89 1751.86 1743.89Z" fill="#072738"/>
<path d="M1755.51 1711.97H1694.91C1692.53 1711.97 1690.61 1713.9 1690.61 1716.27V1750.23H1699.21V1720.57H1751.21V1750.23H1759.81V1716.27C1759.81 1713.9 1757.89 1711.97 1755.51 1711.97Z" fill="#FDEACF"/>
<path d="M1824.4 1742.77H1626.02V1850.36H1824.4V1742.77Z" fill="#FCD288"/>
<path d="M1830.15 1733.11H1620.27V1763.7H1830.15V1733.11Z" fill="#4CB7D8"/>
<path d="M1784.6 1748.18H1774.93V1773.66H1784.6V1748.18Z" fill="#ED823A"/>
<path d="M1671.29 1748.18H1661.63V1773.66H1671.29V1748.18Z" fill="#ED823A"/>
<path d="M1790.59 1835.14H1654.16V1838.82H1790.59V1835.14Z" fill="#F7C26D"/>
<path d="M1790.59 1821.67H1654.16V1825.35H1790.59V1821.67Z" fill="#F7C26D"/>
<path d="M1790.59 1808.2H1654.16V1811.88H1790.59V1808.2Z" fill="#F7C26D"/>
<path d="M1778.59 1748.83H1783.95V1773.01H1775.58V1759.46H1774.29V1774.3H1785.24V1747.54H1778.59V1748.83Z" fill="black"/>
<path d="M1666.46 1748.83H1670.65V1773.01H1662.27V1757.55H1660.98V1774.3H1671.94V1747.54H1666.46V1748.83Z" fill="black"/>
<path d="M1829.51 1763.06H1784.6V1764.35H1830.8V1733.11H1829.51V1763.06Z" fill="black"/>
<path d="M1774.93 1763.06H1671.44V1764.35H1774.93V1763.06Z" fill="black"/>
<path d="M1661.63 1763.06H1620.27V1764.35H1661.63V1763.06Z" fill="black"/>
<path d="M1807.69 1742.07L1807.12 1743.23L1814.79 1746.97L1815.36 1745.81L1807.69 1742.07Z" fill="black"/>
<path d="M1808.6 1747.63L1808.03 1748.8L1815.7 1752.53L1816.27 1751.37L1808.6 1747.63Z" fill="black"/>
<path d="M1619.63 1746.5H1620.92V1733.75H1798.21V1732.46H1619.63V1746.5Z" fill="black"/>
<path d="M1823.76 1849.72H1626.67V1799.42H1625.38V1851.01H1825.05V1763.7H1823.76V1849.72Z" fill="black"/>
<path d="M1722.46 1775.98L1722.02 1777.19L1746.62 1785.97L1747.05 1784.76L1722.46 1775.98Z" fill="black"/>
<path d="M1717.55 1784.65L1717.11 1785.87L1741.71 1794.65L1742.14 1793.44L1717.55 1784.65Z" fill="black"/>
<path d="M1790.6 1811.24H1654.16V1812.53H1790.6V1811.24Z" fill="black"/>
<path d="M1790.6 1824.7H1654.16V1825.99H1790.6V1824.7Z" fill="black"/>
<path d="M1790.6 1838.17H1654.16V1839.46H1790.6V1838.17Z" fill="black"/>
<path d="M1721.06 1721.22H1750.57V1733.11H1751.86V1719.93H1721.06V1721.22Z" fill="black"/>
<path d="M1750.34 1711.33H1699.54V1712.62H1750.34V1711.33Z" fill="black"/>
<path d="M1902 1605.49C1816.02 1547.57 1796.2 1598.61 1795.75 1612.46C1795.39 1623.3 1824.47 1652.07 1838.16 1664.85C1851.86 1677.63 1886.44 1719.56 1898.77 1735.99C1898.77 1735.99 1941.66 1743.19 1984.11 1684.76C1984.11 1684.76 1978.55 1668.44 1964.47 1653.39C1949.24 1637.1 1924.25 1620.47 1902 1605.49Z" fill="#0A324C"/>
<path d="M1983.22 1834.07C1980.57 1834.07 1983.22 1850.81 1983.22 1850.81H2007.15L2009.99 1845.69L1998.38 1834.07C1998.38 1834.07 1985.87 1834.07 1983.22 1834.07Z" fill="#F9B498"/>
<path d="M1819.23 1832.82H1818.77V1844.31H1819.23V1832.82Z" fill="black"/>
<path d="M1813.07 1841.82L1813.33 1842.21L1816.31 1840.16L1816.05 1839.76L1813.07 1841.82Z" fill="black"/>
<path d="M2044.98 1841.95L1986.23 1817.1C1985.79 1816.92 1985.29 1817.13 1985.1 1817.57L1983.44 1821.5C1983.17 1822.15 1983.46 1822.89 1984.09 1823.15L2009.36 1833.84L2014.76 1849.62L2038.34 1846.1L2042.37 1847.81C2043.77 1848.4 2045.45 1847.97 2046.3 1846.68C2047.45 1844.95 2046.75 1842.7 2044.98 1841.95Z" fill="#ED823A"/>
<path d="M1979.82 1833.85C1979.82 1833.85 1981.59 1841.53 1989.34 1841.27C1989.34 1841.27 2002.16 1838.29 2007.15 1850.57L2032.73 1849.88C2032.73 1849.88 2039.46 1850.35 2042.43 1847.79L1984.33 1823.21L1979.82 1833.85Z" fill="#4CB7D8"/>
<path d="M2046.34 1843.53C2046.72 1844.3 2046.74 1845.21 2046.4 1846.01C2045.76 1847.51 2044.05 1848.23 2042.58 1847.61L1984.49 1823.04C1983.82 1822.75 1983.5 1821.96 1983.8 1821.26L1985.04 1818.32L1984.61 1818.14L1983.37 1821.08C1982.97 1822.02 1983.39 1823.09 1984.31 1823.48L2042.4 1848.06C2044.1 1848.78 2046.09 1847.94 2046.83 1846.19C2047.22 1845.26 2047.2 1844.21 2046.76 1843.31L2046.34 1843.53Z" fill="black"/>
<path d="M1922.8 1799.06C1922.8 1799.06 1941.51 1782.86 1959.52 1761C1968.8 1747.77 1972.39 1735.68 1973.58 1726.59C1974.17 1718.76 1973.29 1712.47 1972.76 1709.62C1972.56 1708.55 1972.41 1707.96 1972.41 1707.96L1933.56 1700.42L1906.39 1727.91C1906.39 1727.91 1841.83 1795.42 1837.12 1811.64C1832.4 1827.86 1817.57 1850.74 1817.57 1850.74H1984.67V1819.81C1966.95 1811.04 1927.13 1800.23 1923.13 1799.15C1922.92 1799.09 1922.8 1799.06 1922.8 1799.06Z" fill="#072738"/>
<path d="M1972.76 1709.62C1972.75 1709.62 1972.73 1709.62 1972.72 1709.63C1972.49 1709.69 1972.36 1709.92 1972.42 1710.15C1972.5 1710.44 1980 1740.07 1948.48 1773.06C1921.12 1801.68 1916.04 1803.56 1915.83 1803.62C1915.61 1803.69 1915.48 1803.93 1915.55 1804.15C1915.6 1804.33 1915.77 1804.46 1915.95 1804.46L1916.06 1804.44C1916.17 1804.41 1917.61 1803.95 1923.13 1799.15C1927.99 1794.93 1936.02 1787.32 1949.09 1773.64C1953.19 1769.35 1956.63 1765.12 1959.52 1761C1968.8 1747.77 1972.39 1735.68 1973.58 1726.59C1974.9 1716.47 1973.27 1710.06 1973.24 1709.93C1973.18 1709.71 1972.97 1709.59 1972.76 1709.62Z" fill="#20111D"/>
<path d="M1985.08 1819.53L1984.84 1819.42C1984.49 1819.27 1949.78 1804.25 1922.89 1798.65L1922.48 1798.56L1922.39 1798.98C1922.38 1798.99 1922 1800.79 1920.36 1803.83C1920.24 1804.03 1920.32 1804.29 1920.53 1804.4C1920.73 1804.51 1920.99 1804.44 1921.1 1804.23C1922.36 1801.89 1922.91 1800.28 1923.11 1799.56C1948.66 1804.95 1981.08 1818.73 1984.25 1820.09C1984.31 1822.82 1984.77 1845.1 1984.24 1850.7C1984.22 1850.94 1984.4 1851.14 1984.63 1851.16L1984.67 1851.17C1984.88 1851.17 1985.07 1851 1985.09 1850.78C1985.65 1844.79 1985.12 1820.82 1985.09 1819.8L1985.08 1819.53Z" fill="#20111D"/>
<path d="M1821.89 1838.9L1859.93 1839.08L1860.25 1806.22L1822.34 1802.17L1821.89 1838.9Z" fill="#F9B498"/>
<path d="M1860.29 1843.21H1828.01L1814.93 1828.59L1791 1843.21H1785.84C1784.07 1843.21 1782.44 1844.44 1782.1 1846.23C1781.65 1848.64 1783.44 1850.74 1785.71 1850.74H1860.75C1861.3 1850.74 1861.75 1850.29 1861.75 1849.72V1844.7C1861.75 1843.88 1861.09 1843.21 1860.29 1843.21Z" fill="#ED823A"/>
<path d="M1846.29 1825.99C1846.29 1825.99 1833.77 1835.1 1822.74 1824.07L1795.34 1836.54C1795.34 1836.54 1787.83 1839.12 1785.79 1843.25H1860V1829.66C1860 1829.66 1854.57 1822.16 1846.29 1825.99Z" fill="#4CB7D8"/>
<path d="M1859.91 1842.95H1785.71C1783.53 1842.95 1781.76 1844.77 1781.76 1847C1781.76 1848.19 1782.27 1849.32 1783.16 1850.09L1783.51 1849.66C1782.75 1849 1782.31 1848.03 1782.31 1847C1782.31 1845.08 1783.83 1843.51 1785.71 1843.51H1859.91C1860.77 1843.51 1861.47 1844.24 1861.47 1845.12V1848.88H1862.02V1845.12C1862.02 1843.93 1861.07 1842.95 1859.91 1842.95Z" fill="black"/>
<path d="M1792.63 1837.37C1787.02 1839.82 1785.52 1842.98 1785.46 1843.11L1785.96 1843.35C1785.97 1843.32 1787.45 1840.25 1792.85 1837.88C1798.36 1835.47 1822.61 1824.44 1822.85 1824.33L1822.63 1823.81C1822.39 1823.93 1798.15 1834.96 1792.63 1837.37Z" fill="#49263E"/>
<path d="M1980.68 1681.53L1840.48 1657.1C1825.92 1656.79 1813.49 1667.56 1811.75 1682.01C1810.67 1690.94 1811.53 1709.59 1811.7 1721.5C1812.07 1749.42 1815.33 1827.75 1815.33 1827.75L1862.7 1832.82L1866.42 1730.83C1868.1 1731.29 1931.32 1761.74 1973.44 1734.09C1986.09 1725.79 1984.98 1695.58 1984.22 1685.44C1984.07 1683.48 1982.61 1681.87 1980.68 1681.53Z" fill="#0A324C"/>
<path d="M1858.48 1722.21L1865.92 1731L1862.21 1832.79L1863.18 1832.84L1866.91 1730.66L1859.22 1721.58L1858.48 1722.21Z" fill="#1D1D1B"/>
<path d="M1927.2 1745.14C1926.98 1745.14 1926.77 1745.15 1926.55 1745.15C1905.04 1745.15 1866.98 1730.53 1866.59 1730.38L1866.24 1731.28C1866.63 1731.43 1904.86 1746.11 1926.56 1746.11C1926.78 1746.11 1927 1746.11 1927.21 1746.11C1953.6 1745.74 1973.43 1738.35 1980.25 1726.35L1979.41 1725.87C1972.76 1737.57 1953.24 1744.78 1927.2 1745.14Z" fill="#1D1D1B"/>
<path d="M1781.85 1726.49C1781.85 1726.49 1772.08 1732.05 1771.46 1732.6C1770.85 1733.15 1768.52 1737.28 1768.34 1739.3C1768.17 1741.32 1769.96 1741.84 1769.96 1741.84C1768.97 1746.04 1772.28 1745.45 1772.28 1745.45C1772.32 1748.14 1775.33 1747.64 1775.33 1747.64C1775.48 1748.62 1775.99 1749.12 1776.57 1749.36C1777.58 1749.78 1778.74 1749.38 1779.36 1748.48C1780.1 1747.41 1781.34 1745.79 1782.28 1745.49C1783.29 1745.15 1786.74 1745.25 1790.01 1744.92C1791.03 1744.68 1792 1744.52 1792.87 1744.48C1792.91 1744.48 1792.97 1744.47 1793.02 1744.47C1793.03 1744.47 1793.04 1744.46 1793.05 1744.46C1793.25 1744.43 1793.49 1744.37 1793.76 1744.27C1793.76 1744.28 1793.76 1744.28 1793.77 1744.27C1796.66 1743.31 1803.51 1739.22 1807.26 1736.63L1795.63 1721.58C1794.98 1721.98 1781.85 1726.49 1781.85 1726.49Z" fill="#F9B498"/>
<path d="M1776.51 1733.45C1776.41 1733.51 1774.02 1734.93 1773.27 1735.77C1772.52 1736.6 1769.84 1741.51 1769.73 1741.72C1769.66 1741.85 1769.7 1742.01 1769.83 1742.07C1769.96 1742.14 1770.12 1742.09 1770.19 1741.96C1771.14 1740.22 1773.09 1736.74 1773.66 1736.12C1774.36 1735.34 1776.75 1733.91 1776.77 1733.89C1776.83 1733.86 1776.87 1733.8 1776.89 1733.74C1776.91 1733.68 1776.9 1733.6 1776.87 1733.54C1776.79 1733.41 1776.63 1733.37 1776.51 1733.45Z" fill="#F07162"/>
<path d="M1778.92 1737.93C1778.83 1737.98 1776.92 1739.07 1775.91 1740.04C1774.91 1741 1772.18 1745.14 1772.06 1745.31C1771.98 1745.43 1772.01 1745.6 1772.13 1745.67C1772.25 1745.75 1772.42 1745.72 1772.5 1745.6C1772.52 1745.55 1775.31 1741.34 1776.27 1740.41C1777.23 1739.49 1779.15 1738.4 1779.17 1738.39C1779.23 1738.35 1779.27 1738.3 1779.29 1738.23C1779.31 1738.17 1779.31 1738.09 1779.27 1738.03C1779.2 1737.9 1779.04 1737.86 1778.92 1737.93Z" fill="#F07162"/>
<path d="M1780.99 1741.07C1780.93 1741.1 1779.6 1741.79 1778.54 1742.75C1777.48 1743.7 1775.21 1747.35 1775.11 1747.51C1775.03 1747.63 1775.07 1747.79 1775.19 1747.87C1775.32 1747.94 1775.48 1747.9 1775.56 1747.78C1775.58 1747.74 1777.89 1744.04 1778.89 1743.13C1779.89 1742.23 1781.21 1741.54 1781.22 1741.54C1781.29 1741.5 1781.33 1741.44 1781.36 1741.38C1781.37 1741.31 1781.37 1741.25 1781.34 1741.18C1781.27 1741.06 1781.12 1741.01 1780.99 1741.07Z" fill="#F07162"/>
<path d="M1842.47 1599.99L1858.78 1666.2L1787.8 1720.78L1806.57 1740.67C1806.57 1740.67 1897.37 1701.53 1901.23 1677.12C1905.1 1652.71 1893.15 1605.82 1893.15 1605.82L1842.47 1599.99Z" fill="#0A324C"/>
<path d="M1808.87 1569.55L1803.62 1563.6L1781.81 1541.96L1764.15 1569.96L1782.43 1589.33C1782.43 1589.33 1788.34 1596.14 1794.8 1591.58L1801.98 1601.32C1804.65 1604.94 1809.51 1606.23 1813.54 1604.3C1815.51 1603.35 1817.66 1602 1819.71 1600.06C1826.22 1593.92 1825.11 1585.68 1823.33 1582.72C1821.56 1579.75 1808.87 1569.55 1808.87 1569.55Z" fill="#F9B59D"/>
<path d="M1788.76 1564.18C1788.69 1564.17 1781.34 1563.85 1780.53 1569.83C1780.51 1570.03 1780.65 1570.22 1780.86 1570.25C1781.06 1570.28 1781.25 1570.14 1781.28 1569.93C1781.99 1564.64 1788.45 1564.91 1788.73 1564.92C1788.83 1564.93 1788.93 1564.89 1789 1564.82C1789.07 1564.76 1789.11 1564.67 1789.12 1564.57C1789.13 1564.36 1788.97 1564.19 1788.76 1564.18Z" fill="black"/>
<path d="M1776 1573.08C1775.81 1573.09 1771.12 1573.31 1770.81 1576.26C1770.79 1576.47 1770.94 1576.65 1771.15 1576.67C1771.35 1576.7 1771.54 1576.55 1771.56 1576.34C1771.8 1574.03 1776 1573.83 1776.04 1573.83C1776.13 1573.83 1776.21 1573.79 1776.28 1573.73C1776.35 1573.66 1776.4 1573.56 1776.39 1573.44C1776.39 1573.24 1776.21 1573.08 1776 1573.08Z" fill="black"/>
<path d="M1784.6 1569.51C1784.15 1569.94 1784.13 1570.65 1784.56 1571.1C1784.98 1571.55 1785.69 1571.57 1786.14 1571.15C1786.59 1570.73 1786.61 1570.02 1786.19 1569.56C1785.76 1569.11 1785.05 1569.09 1784.6 1569.51Z" fill="black"/>
<path d="M1775.64 1576.82C1775.19 1577.25 1775.17 1577.96 1775.6 1578.41C1776.03 1578.86 1776.74 1578.88 1777.19 1578.46C1777.64 1578.04 1777.66 1577.33 1777.23 1576.87C1776.8 1576.42 1776.09 1576.4 1775.64 1576.82Z" fill="black"/>
<path d="M1783.24 1541.79C1782.33 1539.82 1774.28 1540.26 1768.43 1541.66C1762.57 1543.06 1764.26 1549.67 1759.63 1551.29C1751.15 1554.25 1749.31 1562.04 1749.77 1564.57C1750.71 1569.71 1749.3 1577.15 1762.36 1576.87C1775.42 1576.58 1784.76 1554.5 1784.76 1554.5L1784.66 1545.14C1784.66 1545.14 1784.15 1543.75 1783.24 1541.79Z" fill="#FFDEA9"/>
<path d="M1792.66 1539.49C1785.19 1535.07 1779.22 1541.28 1779.22 1541.28L1781.53 1542.4L1786.13 1553.21L1807.42 1571.17C1816.78 1564.06 1804.06 1553.02 1802.42 1551.16C1800.77 1549.29 1800.13 1543.9 1792.66 1539.49Z" fill="#FFDEA9"/>
<path d="M1791.26 1554.96C1788.56 1557.5 1788.45 1561.76 1791.01 1564.48C1793.57 1567.19 1797.83 1567.33 1800.52 1564.78C1803.22 1562.24 1803.33 1557.98 1800.77 1555.27C1798.21 1552.56 1793.95 1552.42 1791.26 1554.96Z" fill="#F9B59D"/>
<path d="M1796.67 1557.69C1794.96 1558.03 1794.39 1559.39 1794.2 1560.19C1793.88 1559.44 1793.83 1558.72 1794.04 1558.05C1794.5 1556.61 1796.06 1555.88 1796.08 1555.87C1796.17 1555.83 1796.21 1555.72 1796.17 1555.62C1796.12 1555.53 1796.01 1555.49 1795.92 1555.53C1795.85 1555.56 1794.2 1556.34 1793.69 1557.94C1793.39 1558.86 1793.54 1559.85 1794.13 1560.9L1794.46 1561.49L1794.48 1560.82C1794.48 1560.72 1794.57 1558.49 1796.75 1558.05C1797.96 1557.81 1798.84 1558.61 1799.23 1559.37C1799.63 1560.16 1799.77 1561.39 1798.84 1562.27C1798.83 1562.28 1798.82 1562.29 1798.81 1562.3C1798.74 1562.37 1798.73 1562.48 1798.8 1562.56C1798.87 1562.63 1798.99 1562.64 1799.07 1562.57C1799.08 1562.56 1799.09 1562.55 1799.1 1562.54C1800.11 1561.59 1800.06 1560.18 1799.56 1559.2C1798.97 1558.05 1797.84 1557.45 1796.67 1557.69Z" fill="#F07162"/>
<path d="M1794.8 1591.58L1800.1 1598.77C1812.71 1584.89 1802.75 1573.57 1802.75 1573.57C1805.31 1585.05 1794.8 1591.58 1794.8 1591.58Z" fill="#F07162"/>
<path d="M1786.69 1579.02L1783.12 1580.68L1777.91 1573.44C1777.84 1573.35 1777.73 1573.33 1777.64 1573.39C1777.56 1573.45 1777.54 1573.57 1777.6 1573.65L1783 1581.15L1786.85 1579.36C1786.87 1579.35 1786.88 1579.34 1786.9 1579.33C1786.96 1579.28 1786.97 1579.19 1786.94 1579.11C1786.89 1579.02 1786.78 1578.98 1786.69 1579.02Z" fill="#F07162"/>
<path d="M1786.01 1584.92C1786.01 1584.92 1788.75 1586.5 1790.76 1584.7C1792.77 1582.89 1791.51 1580 1791.51 1580C1791.41 1580.06 1786.01 1584.92 1786.01 1584.92Z" fill="#FBFDFC"/>
<path d="M1902.14 1669.89L1902.03 1670.82L1952.85 1677.17L1952.97 1676.24L1902.14 1669.89Z" fill="#1D1D1B"/>
<path d="M1831.17 1657.97C1822.73 1662.08 1811.46 1669.22 1811.11 1683.6L1812.05 1683.62C1812.39 1669.75 1823.36 1662.82 1831.59 1658.81C1838.85 1655.27 1857.02 1660.74 1857.21 1660.8L1857.48 1659.9C1856.72 1659.66 1838.77 1654.27 1831.17 1657.97Z" fill="#1D1D1B"/>
<path d="M1943.34 1667.27L1933.76 1674.02L1934.3 1674.78L1943.88 1668.04L1943.34 1667.27Z" fill="#1D1D1B"/>
<path d="M1798.27 1619.09L1797.53 1619.67C1797.77 1619.97 1821.18 1649.76 1831.06 1658.74L1831.7 1658.04C1821.88 1649.11 1798.51 1619.39 1798.27 1619.09Z" fill="#1D1D1B"/>
<path d="M1824.7 1579.45C1824.49 1579.5 1814.64 1574.34 1814.64 1574.34C1814.64 1574.34 1807.87 1591.38 1797.4 1595.11L1802.62 1607.74C1802.62 1607.74 1815.47 1609.33 1823.82 1597.52C1832.18 1585.72 1824.7 1579.45 1824.7 1579.45Z" fill="#0A324C"/>
<path d="M1824.76 1578.96L1814.85 1573.92L1814.43 1574.76L1824.64 1579.95L1824.81 1579.91C1824.99 1579.87 1842.23 1575.81 1865.69 1585.99L1866.06 1585.13C1843.57 1575.36 1826.66 1578.55 1824.76 1578.96Z" fill="#1D1D1B"/>
<path d="M1816.68 1596.19L1817.44 1596.74C1817.73 1596.34 1824.58 1586.81 1825.17 1579.49L1824.23 1579.41C1823.67 1586.47 1816.75 1596.09 1816.68 1596.19Z" fill="#1D1D1B"/>
<path d="M1850.02 1630.62L1853.89 1646.32C1853.89 1646.32 1877.38 1641.97 1900.23 1642.7L1897.92 1626.98C1897.92 1626.98 1872.89 1623.11 1850.02 1630.62Z" fill="#FFCB92"/>
<path d="M1892.69 1605.93C1892.81 1606.4 1904.58 1653.01 1900.77 1677.05C1897.1 1700.23 1812.45 1737.59 1806.68 1740.11L1788.5 1720.84L1859.31 1666.38L1842.92 1599.88L1842.01 1600.1L1858.25 1666.01L1787.1 1720.73L1806.45 1741.23L1806.75 1741.1C1810.47 1739.5 1897.84 1701.58 1901.7 1677.19C1905.54 1652.96 1893.73 1606.17 1893.61 1605.7L1892.69 1605.93Z" fill="#1D1D1B"/>
<path d="M1876.31 1627.7C1876.31 1627.7 1881.9 1633.07 1882.43 1635.62C1882.92 1638 1881.39 1640.33 1879.01 1640.82C1876.63 1641.31 1874.3 1639.77 1873.81 1637.39C1873.23 1634.57 1876.31 1627.7 1876.31 1627.7Z" fill="#0A324C"/>
<path opacity="0.5" d="M1875.78 1638.9C1876.61 1639.52 1877.49 1639.72 1877.77 1639.35C1878.04 1638.99 1877.59 1638.2 1876.77 1637.58C1875.94 1636.97 1875.05 1636.77 1874.78 1637.13C1874.51 1637.5 1874.96 1638.29 1875.78 1638.9Z" fill="white"/>
</svg>
