<svg width="500" height="500" viewBox="0 0 500 500" fill="none" xmlns="http://www.w3.org/2000/svg">
<path d="M307.298 81.1411C300.466 114.405 347.659 188.68 411.08 156.34C474.501 124 317.651 30.7311 307.298 81.1411Z" fill="#EBD4AE"/>
<path d="M179.078 417.75C160.158 444.544 320.599 464.492 298.078 431.909C277 401.414 202.5 384.581 179.078 417.75Z" fill="#EBD4AE"/>
<path d="M52.5 216.73C52.5 309.764 75.451 355.481 138.339 378.03C182.036 393.698 222.751 373.111 282.479 398.125C328.18 417.265 397.743 385.882 419.788 323.999C435.232 280.645 437.048 197.556 363.788 178.865C275.501 156.34 296.001 51.3922 153.32 84.3692C91.288 98.7052 52.5 154.588 52.5 216.73Z" fill="#EBD4AE"/>
<path d="M248.414 371.045V359.415C218.294 359.415 172.414 354.955 172.414 298.945C172.414 298.945 178.794 349.415 248.414 349.415V337.795L265.034 354.415L248.414 371.045Z" fill="#CC4E49"/>
<path d="M265.032 354.674C264.966 354.674 264.899 354.649 264.849 354.598L248.671 338.42V349.415C248.671 349.558 248.555 349.674 248.412 349.674C212.346 349.674 193.534 335.9 184.103 324.344C173.877 311.814 172.17 299.105 172.154 298.978C172.136 298.836 172.237 298.707 172.378 298.689C172.522 298.676 172.65 298.772 172.668 298.914C172.684 299.039 174.378 311.623 184.522 324.039C193.861 335.471 212.474 349.092 248.153 349.157V337.796C248.153 337.691 248.216 337.597 248.313 337.557C248.408 337.518 248.521 337.539 248.594 337.614L265.213 354.234C265.315 354.335 265.315 354.499 265.213 354.599C265.165 354.648 265.098 354.674 265.032 354.674Z" fill="#1F160F"/>
<path d="M250.132 124.472V136.102C280.252 136.102 326.132 140.562 326.132 196.572C326.132 196.572 319.752 146.102 250.132 146.102V157.722L233.512 141.102L250.132 124.472Z" fill="#CC4E49"/>
<path d="M326.132 196.83C326.003 196.83 325.892 196.734 325.875 196.604C325.859 196.478 324.164 183.895 314.022 171.479C304.683 160.047 286.07 146.426 250.391 146.361V157.722C250.391 157.827 250.328 157.921 250.231 157.961C250.137 158.001 250.022 157.979 249.95 157.905L233.33 141.285C233.228 141.184 233.228 141.02 233.33 140.919C233.43 140.819 233.596 140.819 233.695 140.919L249.874 157.098V146.102C249.874 145.959 249.99 145.843 250.133 145.843C286.198 145.843 305.01 159.617 314.441 171.173C324.668 183.703 326.374 196.412 326.39 196.539C326.408 196.681 326.307 196.81 326.165 196.828C326.154 196.829 326.143 196.83 326.132 196.83Z" fill="#1F160F"/>
<path d="M360.301 401.414H310.301V437.414H360.301V401.414Z" fill="#FABC5F"/>
<path d="M312.901 409.414C309.808 409.414 307.301 406.907 307.301 403.814V401.414H318.501V403.814C318.501 406.907 315.993 409.414 312.901 409.414Z" fill="white"/>
<path d="M324.1 409.414C321.007 409.414 318.5 406.907 318.5 403.814V401.414H329.7V403.814C329.7 406.907 327.192 409.414 324.1 409.414Z" fill="#CC4E49"/>
<path d="M335.299 409.414C332.206 409.414 329.699 406.907 329.699 403.814V401.414H340.899V403.814C340.899 406.907 338.391 409.414 335.299 409.414Z" fill="white"/>
<path d="M346.498 409.414C343.405 409.414 340.898 406.907 340.898 403.814V401.414H352.098V403.814C352.098 406.907 349.59 409.414 346.498 409.414Z" fill="#CC4E49"/>
<path d="M357.698 409.414C354.605 409.414 352.098 406.907 352.098 403.814V401.414H363.298V403.814C363.298 406.907 360.79 409.414 357.698 409.414Z" fill="white"/>
<path d="M357.301 389.414H313.301L307.301 401.414H363.301L357.301 389.414Z" fill="white"/>
<path d="M331.7 389.414H322.5L318.5 401.414H329.7L331.7 389.414Z" fill="#CC4E49"/>
<path d="M338.898 389.414H348.098L352.098 401.414H340.898L338.898 389.414Z" fill="#CC4E49"/>
<path d="M356.301 385.414H314.301C313.749 385.414 313.301 385.862 313.301 386.414V389.414H357.301V386.414C357.301 385.862 356.853 385.414 356.301 385.414Z" fill="#FABC5F"/>
<path d="M327.188 419.414H318.188V437.414H327.188V419.414Z" fill="white"/>
<path d="M356 419.414H333V428.414H356V419.414Z" fill="white"/>
<path d="M363.298 401.673H307.298C307.155 401.673 307.039 401.557 307.039 401.414C307.039 401.271 307.155 401.155 307.298 401.155H363.298C363.441 401.155 363.557 401.271 363.557 401.414C363.557 401.556 363.441 401.673 363.298 401.673Z" fill="#1F160F"/>
<path d="M179.656 366.09H148.332V397.414H179.656V366.09Z" fill="#FABC5F"/>
<path d="M148.334 366.09H132.672V397.414H148.334V366.09Z" fill="#E59E47"/>
<path d="M148.591 366.09H148.074V397.414H148.591V366.09Z" fill="#1F160F"/>
<path d="M166.844 366.091V377.481L165.42 376.057L163.996 377.481L162.572 376.057L161.148 377.481V366.091H166.844Z" fill="#F5E5C9"/>
<path d="M160.179 330.495H128.855V361.819H160.179V330.495Z" fill="#FABC5F"/>
<path d="M128.857 330.495H113.195V361.819H128.857V330.495Z" fill="#E59E47"/>
<path d="M129.116 330.495H128.598V361.819H129.116V330.495Z" fill="#1F160F"/>
<path d="M147.367 330.495V341.885L145.943 340.462L144.519 341.885L143.095 340.462L141.672 341.885V330.495H147.367Z" fill="#F5E5C9"/>
<path d="M140.894 366.09H109.57V397.414H140.894V366.09Z" fill="#FABC5F"/>
<path d="M109.572 366.09H93.9102V397.414H109.572V366.09Z" fill="#E59E47"/>
<path d="M109.83 366.09H109.312V397.414H109.83V366.09Z" fill="#1F160F"/>
<path d="M128.082 366.091V377.481L126.659 376.057L125.235 377.481L123.811 376.057L122.387 377.481V366.091H128.082Z" fill="#F5E5C9"/>
<path d="M369.294 150.475C354.742 142.275 339.448 135.466 323.617 130.138C325.956 123.188 328.295 116.237 330.634 109.287C347.776 115.056 364.336 122.429 380.094 131.308C376.494 137.697 372.894 144.086 369.294 150.475Z" fill="#1F160F"/>
<path d="M369.286 150.473C353.734 144.378 337.642 139.764 321.223 136.691C322.572 129.483 323.921 122.275 325.27 115.066C343.048 118.393 360.473 123.39 377.313 129.989C374.637 136.818 371.961 143.645 369.286 150.473Z" fill="#0C723C"/>
<path d="M374.133 135.188C372.929 138.296 371.724 141.404 370.519 144.512C369.2 144 367.802 144.072 366.625 144.605C365.441 145.125 364.481 146.106 364.007 147.401C352.046 143.023 339.787 139.508 327.324 136.882C327.608 135.532 327.314 134.191 326.585 133.123C325.87 132.047 324.722 131.246 323.332 130.98C323.958 127.706 324.583 124.432 325.208 121.158C326.649 121.433 328.057 121.145 329.182 120.446C330.314 119.759 331.161 118.662 331.446 117.311C344.844 120.134 358.023 123.912 370.881 128.619C370.407 129.915 370.544 131.295 371.14 132.478C371.723 133.667 372.766 134.658 374.133 135.188Z" fill="#1C8C4F"/>
<path d="M355.599 133.979C356.78 130.3 354.532 126.29 350.54 125.146C346.549 124.001 342.518 126.209 341.569 129.956C340.62 133.705 342.924 137.524 346.681 138.604C350.44 139.68 354.418 137.662 355.599 133.979Z" fill="#0C723C"/>
<path d="M365.653 137.364C366.215 135.806 365.336 134.062 363.681 133.49C362.027 132.918 360.259 133.748 359.739 135.321C359.218 136.895 360.11 138.604 361.722 139.161C363.333 139.717 365.09 138.922 365.653 137.364Z" fill="#0C723C"/>
<path d="M331.254 127.5C331.603 125.881 333.274 124.868 334.98 125.26C336.685 125.651 337.746 127.292 337.353 128.902C336.961 130.513 335.299 131.489 333.636 131.108C331.973 130.725 330.905 129.12 331.254 127.5Z" fill="#0C723C"/>
<path d="M351.216 133.333C351.127 133.039 350.969 132.776 350.747 132.548C350.523 132.32 350.265 132.112 349.973 131.924C349.747 131.779 349.512 131.647 349.277 131.516C349.479 130.816 349.681 130.117 349.883 129.417C350.109 129.505 350.335 129.607 350.562 129.742C350.9 129.943 351.212 130.191 351.498 130.487C351.752 130.181 352.006 129.874 352.26 129.568C351.984 129.259 351.637 128.983 351.213 128.738C350.891 128.552 350.557 128.398 350.211 128.277C350.322 127.891 350.434 127.505 350.546 127.119C350.243 127.032 349.94 126.945 349.637 126.858C349.525 127.25 349.413 127.642 349.302 128.034C348.835 127.945 348.417 127.922 348.049 127.972C347.532 128.042 347.117 128.212 346.801 128.482C346.485 128.752 346.273 129.086 346.164 129.484C346.057 129.875 346.05 130.219 346.145 130.516C346.24 130.812 346.401 131.073 346.628 131.298C346.855 131.523 347.117 131.73 347.412 131.918C347.632 132.059 347.856 132.189 348.082 132.313C347.885 133.004 347.687 133.696 347.49 134.387C347.146 134.259 346.821 134.089 346.514 133.878C346.111 133.599 345.789 133.303 345.549 132.989C345.289 133.296 345.029 133.605 344.77 133.913C345.023 134.26 345.394 134.59 345.883 134.903C346.279 135.156 346.707 135.36 347.167 135.518C347.057 135.905 346.946 136.292 346.836 136.679C347.128 136.762 347.421 136.846 347.712 136.931C347.825 136.54 347.938 136.149 348.051 135.757C348.509 135.846 348.923 135.87 349.288 135.823C349.797 135.757 350.209 135.593 350.526 135.328C350.843 135.064 351.059 134.737 351.176 134.348C351.292 133.966 351.305 133.628 351.216 133.333ZM348.248 130.923C348.005 130.772 347.818 130.603 347.693 130.421C347.567 130.239 347.535 130.036 347.598 129.813C347.649 129.632 347.752 129.482 347.908 129.364C348.063 129.246 348.279 129.176 348.554 129.157C348.682 129.147 348.824 129.154 348.977 129.173C348.799 129.795 348.622 130.417 348.445 131.04C348.379 131.002 348.309 130.962 348.248 130.923ZM349.454 134.466C349.296 134.574 349.085 134.635 348.816 134.648C348.687 134.654 348.54 134.644 348.38 134.621C348.557 134.007 348.734 133.394 348.912 132.78C348.984 132.824 349.059 132.868 349.127 132.912C349.367 133.068 349.552 133.239 349.678 133.423C349.805 133.607 349.835 133.811 349.77 134.033C349.716 134.213 349.61 134.357 349.454 134.466Z" fill="#F5E5C9"/>
<path d="M388.789 174.929C405.91 174.929 419.789 161.05 419.789 143.929C419.789 126.808 405.91 112.929 388.789 112.929C371.668 112.929 357.789 126.808 357.789 143.929C357.789 161.05 371.668 174.929 388.789 174.929Z" fill="#E59E47"/>
<path d="M394.789 174.929C411.91 174.929 425.789 161.05 425.789 143.929C425.789 126.808 411.91 112.929 394.789 112.929C377.668 112.929 363.789 126.808 363.789 143.929C363.789 161.05 377.668 174.929 394.789 174.929Z" fill="#FABC5F"/>
<path d="M422.011 129.108C421.763 128.653 421.502 128.207 421.232 127.766L396.91 141.809L410.952 117.487C410.511 117.217 410.065 116.956 409.61 116.708L395.566 141.033V112.949C395.307 112.943 395.05 112.929 394.789 112.929C394.529 112.929 394.272 112.942 394.013 112.949V141.033L379.969 116.708C379.515 116.956 379.068 117.217 378.627 117.487L392.67 141.81L368.347 127.767C368.077 128.207 367.816 128.654 367.568 129.109L391.893 143.153H363.809C363.802 143.412 363.789 143.669 363.789 143.929C363.789 144.189 363.802 144.447 363.809 144.705H391.893L367.568 158.749C367.816 159.204 368.077 159.65 368.347 160.091L392.67 146.048L378.627 170.371C379.067 170.641 379.514 170.902 379.969 171.15L394.013 146.825V174.909C394.272 174.915 394.529 174.929 394.789 174.929C395.049 174.929 395.307 174.916 395.566 174.909V146.825L409.61 171.15C410.065 170.902 410.511 170.641 410.952 170.371L396.91 146.049L421.232 160.091C421.502 159.651 421.762 159.204 422.011 158.749L397.686 144.705H425.77C425.776 144.446 425.79 144.189 425.79 143.929C425.79 143.669 425.777 143.411 425.77 143.153H397.686L422.011 129.108Z" fill="#E59E47"/>
<path d="M394.79 175.187C377.554 175.187 363.531 161.164 363.531 143.928C363.531 126.692 377.553 112.669 394.79 112.669C394.933 112.669 395.049 112.785 395.049 112.928C395.049 113.071 394.933 113.187 394.79 113.187C377.839 113.187 364.049 126.977 364.049 143.928C364.049 160.879 377.839 174.669 394.79 174.669C394.933 174.669 395.049 174.785 395.049 174.928C395.049 175.071 394.932 175.187 394.79 175.187Z" fill="#1F160F"/>
<path d="M394.789 168.929C408.596 168.929 419.789 157.736 419.789 143.929C419.789 130.122 408.596 118.929 394.789 118.929C380.982 118.929 369.789 130.122 369.789 143.929C369.789 157.736 380.982 168.929 394.789 168.929Z" fill="#E59E47"/>
<path d="M394.79 169.188C394.647 169.188 394.531 169.072 394.531 168.929C394.531 168.786 394.647 168.67 394.79 168.67C408.433 168.67 419.531 157.571 419.531 143.929C419.531 130.287 408.432 119.188 394.79 119.188C381.147 119.188 370.049 130.287 370.049 143.929C370.049 144.072 369.933 144.188 369.79 144.188C369.647 144.188 369.531 144.072 369.531 143.929C369.531 130.001 380.862 118.67 394.79 118.67C408.718 118.67 420.049 130.001 420.049 143.929C420.049 157.857 408.717 169.188 394.79 169.188Z" fill="#1F160F"/>
<path d="M402.498 145.607C402.049 144.898 401.453 144.328 400.714 143.897C399.974 143.467 399.163 143.118 398.283 142.847C397.601 142.638 396.908 142.468 396.214 142.3V136.269C396.848 136.329 397.493 136.426 398.163 136.607C399.163 136.877 400.133 137.293 401.073 137.852L402.303 134.822C401.383 134.222 400.303 133.762 399.063 133.442C398.119 133.199 397.169 133.049 396.213 132.991V129.663H393.753V133.04C392.52 133.157 391.45 133.411 390.558 133.818C389.308 134.388 388.377 135.149 387.768 136.098C387.158 137.048 386.853 138.093 386.853 139.233C386.853 140.353 387.078 141.273 387.528 141.994C387.978 142.714 388.573 143.289 389.313 143.719C390.052 144.15 390.868 144.504 391.758 144.783C392.423 144.993 393.088 145.169 393.753 145.327V151.283C392.775 151.203 391.815 150.997 390.872 150.663C389.632 150.223 388.593 149.673 387.753 149.013L386.402 152.043C387.302 152.783 388.497 153.388 389.987 153.857C391.193 154.237 392.449 154.456 393.753 154.528V157.862H396.213V154.489C397.462 154.374 398.546 154.117 399.452 153.707C400.713 153.137 401.647 152.377 402.258 151.427C402.867 150.477 403.173 149.443 403.173 148.322C403.174 147.223 402.948 146.317 402.498 145.607ZM393.169 141.513C392.439 141.293 391.849 140.988 391.398 140.598C390.948 140.208 390.723 139.694 390.723 139.053C390.723 138.533 390.877 138.058 391.188 137.628C391.498 137.198 391.993 136.853 392.673 136.593C392.99 136.472 393.353 136.382 393.753 136.317V141.676C393.559 141.622 393.353 141.568 393.169 141.513ZM398.854 149.987C398.534 150.397 398.034 150.722 397.354 150.963C397.025 151.08 396.643 151.166 396.214 151.226V145.934C396.43 145.995 396.655 146.054 396.859 146.118C397.589 146.348 398.184 146.657 398.644 147.048C399.104 147.438 399.334 147.953 399.334 148.593C399.334 149.113 399.173 149.578 398.854 149.987Z" fill="#F5E5C9"/>
<path d="M218.078 71.4561V107.456H160.078V77.4561C160.078 76.3511 160.973 75.4561 162.078 75.4561H188.078L191.484 70.3471C191.855 69.7911 192.479 69.4561 193.148 69.4561H216.078C217.183 69.4561 218.078 70.3521 218.078 71.4561Z" fill="#E59E47"/>
<path d="M193.664 96.1191H181.664V101.119H193.664V96.1191Z" fill="white"/>
<path d="M208.008 96.1191H196.008V101.119H208.008V96.1191Z" fill="white"/>
<path d="M171.055 75.3921H167.055L167.597 55.3921H170.513L171.055 75.3921Z" fill="#1F160F"/>
<path d="M181.961 75.3921H177.961L178.502 55.3921H181.419L181.961 75.3921Z" fill="#1F160F"/>
<path d="M208.785 69.4561H202.785L203.491 43.4561H208.08L208.785 69.4561Z" fill="white"/>
<path d="M202.91 64.852H208.66L208.579 61.8521H202.992L202.91 64.852Z" fill="#CC4E49"/>
<path d="M203.195 54.3921H208.377L208.296 51.3921H203.277L203.195 54.3921Z" fill="#CC4E49"/>
<path d="M208.285 43.4561H203.285V44.4561H208.285V43.4561Z" fill="#1F160F"/>
<path d="M175.723 93.4561H168.723V107.456H175.723V93.4561Z" fill="white"/>
<path d="M168.422 81.1411H166.422V83.1411H168.422V81.1411Z" fill="white"/>
<path d="M174.609 81.1411H172.609V83.1411H174.609V81.1411Z" fill="white"/>
<path d="M180.797 81.1411H178.797V83.1411H180.797V81.1411Z" fill="white"/>
<path d="M186.984 81.1411H184.984V83.1411H186.984V81.1411Z" fill="white"/>
<path d="M193.172 81.1411H191.172V83.1411H193.172V81.1411Z" fill="white"/>
<path d="M199.359 81.1411H197.359V83.1411H199.359V81.1411Z" fill="white"/>
<path d="M205.547 81.1411H203.547V83.1411H205.547V81.1411Z" fill="white"/>
<path d="M211.734 81.1411H209.734V83.1411H211.734V81.1411Z" fill="white"/>
<path d="M217.512 281.096L47.5117 288.488V281.096H217.512Z" fill="#1F160F"/>
<path d="M217.512 141.096H47.5117V281.096H217.512V141.096Z" fill="white"/>
<mask id="mask0_631_1713" style="mask-type:luminance" maskUnits="userSpaceOnUse" x="47" y="141" width="171" height="141">
<path d="M217.512 281.096H47.5117V141.096H217.512V281.096Z" fill="white"/>
</mask>
<g mask="url(#mask0_631_1713)">
<path d="M187.832 141.1H153.832V195.1H187.832V141.1Z" fill="#F5E5C9"/>
<path d="M225.832 141.1H191.832V195.1H225.832V141.1Z" fill="#F5E5C9"/>
<path d="M187.832 199.1H153.832V253.1H187.832V199.1Z" fill="#F5E5C9"/>
<path d="M225.832 199.1H191.832V253.1H225.832V199.1Z" fill="#F5E5C9"/>
</g>
<mask id="mask1_631_1713" style="mask-type:luminance" maskUnits="userSpaceOnUse" x="47" y="141" width="171" height="141">
<path d="M217.512 281.096H47.5117V141.096H217.512V281.096Z" fill="white"/>
</mask>
<g mask="url(#mask1_631_1713)">
<path d="M123.729 225.115C123.019 216.727 116.965 209.927 110.208 209.927H53.3828L62.0268 284.87H128.789L123.729 225.115Z" fill="#F5E5C9"/>
<path d="M71.9626 284.871H47.4916L42.4316 225.115C41.7216 216.727 46.6236 209.927 53.3816 209.927C60.1386 209.927 66.1926 216.727 66.9036 225.115L71.9626 284.871Z" fill="#EBD4AE"/>
</g>
<path d="M47.5129 275.134C47.3699 275.134 47.2539 275.018 47.2539 274.875V141.096C47.2539 140.953 47.3699 140.837 47.5129 140.837H217.513C217.655 140.837 217.772 140.953 217.772 141.096V219.249C217.772 219.392 217.656 219.508 217.513 219.508C217.37 219.508 217.254 219.392 217.254 219.249V141.354H47.7719V274.873C47.7719 275.017 47.6559 275.134 47.5129 275.134Z" fill="#1F160F"/>
<path d="M133.48 185.722L114.852 186.103V167.691H133.48V185.722Z" fill="#EBA38D"/>
<path d="M133.481 180.324V167.691H116.94C116.94 167.691 116.353 181.73 133.481 180.324Z" fill="#1F160F"/>
<path d="M142.355 138.849H143.467C143.467 138.849 141.003 131.594 134.284 133.155C132.515 129.328 126.823 129.82 126.823 129.82L128.226 131.348C110.669 127.897 106.508 143.577 106.508 143.577L108.538 142.934C106.842 148.412 107.376 155.349 111.091 162.83L139.606 163.394C141.852 159.47 141.926 154.338 142.755 151.049C144.11 146.712 143.887 142.24 142.355 138.849Z" fill="#1F160F"/>
<path d="M141.416 159.073C141.174 172.918 138.914 178.054 129.239 177.885C119.573 177.716 112.464 172.417 112.705 158.572C112.947 144.737 121.957 140.237 127.383 140.332C132.82 140.426 141.658 145.238 141.416 159.073Z" fill="#EBA38D"/>
<path d="M106.774 157.633C107.373 153.136 110.513 151.978 113.746 155.443L113.571 165.494C109.469 168.775 106.175 162.13 106.774 157.633Z" fill="#EBA38D"/>
<path d="M108.322 158.029C108.298 158.029 108.272 158.026 108.247 158.018C108.11 157.977 108.033 157.833 108.074 157.696C108.399 156.616 109.045 155.948 109.894 155.814C110.824 155.666 111.87 156.207 112.553 157.192C112.634 157.31 112.605 157.471 112.488 157.552C112.372 157.632 112.21 157.604 112.128 157.486C111.559 156.663 110.713 156.209 109.975 156.324C109.324 156.427 108.838 156.952 108.57 157.844C108.536 157.956 108.433 158.029 108.322 158.029Z" fill="#1F160F"/>
<path d="M120.847 146.775C130.128 150.937 134.394 143.929 140.159 146.297C142.993 147.461 140.76 137.46 128.606 137.248C113.411 136.983 112.953 152.263 113.043 154.761C113.143 157.553 114.648 161.942 115.178 160.048C117.742 150.897 119.956 153.971 120.847 146.775Z" fill="#1F160F"/>
<path d="M122.344 159.3H128.666C129.218 159.3 129.666 158.852 129.666 158.3V155.726C129.666 155.174 129.218 154.726 128.666 154.726H122.344C121.792 154.726 121.344 155.174 121.344 155.726V158.3C121.344 158.853 121.792 159.3 122.344 159.3Z" fill="white"/>
<path d="M133.156 159.3H138.72C139.272 159.3 139.72 158.852 139.72 158.3V155.726C139.72 155.174 139.272 154.726 138.72 154.726H133.156C132.604 154.726 132.156 155.174 132.156 155.726V158.3C132.156 158.853 132.604 159.3 133.156 159.3Z" fill="white"/>
<path d="M132.517 156.599H128.892C128.749 156.599 128.633 156.483 128.633 156.34C128.633 156.197 128.749 156.081 128.892 156.081H132.517C132.66 156.081 132.776 156.197 132.776 156.34C132.776 156.483 132.66 156.599 132.517 156.599Z" fill="white"/>
<path d="M121.882 156.599C121.856 156.599 121.829 156.595 121.802 156.586L113.248 153.81L112.431 154.117C112.298 154.167 112.148 154.099 112.098 153.966C112.048 153.832 112.116 153.683 112.249 153.633L113.151 153.294C113.206 153.273 113.266 153.273 113.322 153.29L121.963 156.094C122.099 156.138 122.173 156.284 122.129 156.42C122.092 156.53 121.991 156.599 121.882 156.599Z" fill="white"/>
<path d="M139.462 156.599C139.335 156.599 139.224 156.505 139.206 156.376C139.186 156.234 139.285 156.104 139.426 156.084L141.582 155.781C141.723 155.769 141.855 155.86 141.874 156.001C141.894 156.143 141.795 156.273 141.654 156.293L139.498 156.596C139.486 156.598 139.474 156.599 139.462 156.599Z" fill="white"/>
<path d="M130.275 165.467C130.023 165.467 129.781 165.417 129.558 165.316C129.428 165.257 129.37 165.104 129.429 164.973C129.488 164.842 129.642 164.785 129.772 164.844C130.414 165.135 131.099 164.754 131.364 164.576C131.842 164.256 132.089 163.869 132.083 163.712C132.078 163.557 131.925 163.153 131.764 162.725C131.362 161.661 130.756 160.053 130.785 158.404C130.787 158.26 130.876 158.14 131.048 158.15C131.191 158.152 131.305 158.271 131.302 158.413C131.275 159.964 131.861 161.516 132.248 162.543C132.455 163.092 132.592 163.454 132.601 163.694C132.617 164.151 132.136 164.682 131.652 165.006C131.196 165.311 130.721 165.467 130.275 165.467Z" fill="#1F160F"/>
<path d="M136.465 157.271C136.45 158.128 135.975 158.815 135.403 158.805C134.832 158.795 134.38 158.092 134.395 157.235C134.41 156.378 134.885 155.691 135.457 155.701C136.028 155.711 136.48 156.414 136.465 157.271Z" fill="#1F160F"/>
<path d="M138.061 154.651C137.94 154.651 137.818 154.623 137.704 154.564C136.669 154.027 135.734 153.785 134.011 154.14C133.593 154.223 133.18 153.957 133.094 153.536C133.008 153.116 133.278 152.705 133.698 152.619C135.567 152.234 136.891 152.393 138.419 153.186C138.8 153.384 138.948 153.852 138.751 154.232C138.612 154.498 138.341 154.651 138.061 154.651Z" fill="#1F160F"/>
<path d="M124.692 157.023C124.677 157.88 125.128 158.583 125.699 158.593C126.271 158.603 126.746 157.916 126.761 157.059C126.776 156.202 126.325 155.499 125.753 155.489C125.182 155.479 124.707 156.166 124.692 157.023Z" fill="#1F160F"/>
<path d="M123.101 154.312C122.839 154.312 122.583 154.179 122.437 153.938C122.215 153.571 122.332 153.094 122.698 152.872C124.239 151.937 125.668 151.74 127.974 152.144C128.396 152.218 128.678 152.621 128.604 153.043C128.529 153.465 128.127 153.746 127.705 153.673C125.53 153.289 124.551 153.563 123.503 154.199C123.378 154.276 123.238 154.312 123.101 154.312Z" fill="#1F160F"/>
<path d="M131.164 169.068C128.69 169.143 126.617 168.367 125.4 167.12C125.4 167.12 125.022 169.201 126.562 169.965C128.593 170.973 131.164 169.068 131.164 169.068Z" fill="white"/>
<path d="M170.752 234.74C164.502 235.9 157.361 228.153 149.981 213.623C149.981 213.623 151.182 233.289 152.512 281.096H88.6031L89.9311 243.305C89.9311 243.305 85.0521 235.108 85.2521 229.858C86.2321 204.918 89.6921 195.7 93.2521 191.58C99.7121 184.11 117.962 183.09 125.712 183.34C136.682 183.68 144.942 184.63 149.422 185.91C154.692 187.41 165.192 199.19 173.272 215.34C173.272 215.34 181.422 232.73 170.752 234.74Z" fill="#1C8C4F"/>
<path d="M133.48 183.681C133.48 188.067 131.643 193.317 126.285 193.317C120.927 193.317 114.852 188.824 114.852 183.398C114.852 183.398 120.796 183.004 124.94 183.004C129.083 183.004 133.48 183.681 133.48 183.681Z" fill="#EBA38D"/>
<path d="M149.989 213.883C149.849 213.883 149.735 213.772 149.73 213.632C149.559 207.962 148.74 197.225 148.731 197.117C148.72 196.975 148.827 196.85 148.969 196.84C149.11 196.827 149.236 196.935 149.247 197.078C149.255 197.186 150.076 207.934 150.248 213.617C150.252 213.76 150.14 213.879 149.997 213.884C149.994 213.883 149.991 213.883 149.989 213.883Z" fill="#1F160F"/>
<path d="M117.74 197.28C125.271 192.142 129.475 194.239 134.578 196.884C134.578 196.884 136.417 189.523 136.288 183.918L133.481 181.626C133.481 184.814 130.509 192.689 126.503 192.689C116.628 192.689 114.853 181.626 114.853 181.626L111.305 184.187C111.753 189.75 117.74 197.28 117.74 197.28Z" fill="white"/>
<path d="M105.095 231.509C105.081 231.509 105.068 231.508 105.054 231.506C104.913 231.483 104.817 231.351 104.839 231.21C107.16 216.579 108.879 207.111 108.896 207.017C108.921 206.876 109.056 206.782 109.197 206.809C109.338 206.834 109.431 206.969 109.405 207.11C109.388 207.204 107.67 216.667 105.35 231.291C105.33 231.418 105.22 231.509 105.095 231.509Z" fill="#1F160F"/>
<path d="M126.501 207.915C126.498 207.915 126.495 207.915 126.492 207.915C126.349 207.91 126.237 207.79 126.242 207.647C126.245 207.575 126.489 200.371 126.242 194.638C126.236 194.495 126.346 194.374 126.489 194.368C126.639 194.343 126.752 194.473 126.759 194.615C127.007 200.368 126.762 207.592 126.76 207.664C126.755 207.805 126.64 207.915 126.501 207.915Z" fill="#1F160F"/>
<path d="M171.827 221.5H127.82V283.969H171.827V221.5Z" fill="#E59E47"/>
<path d="M226.828 221.5H171.828V283.969H226.828V221.5Z" fill="#FABC5F"/>
<path d="M172.084 221.5H171.566V283.969H172.084V221.5Z" fill="#1F160F"/>
<path d="M199.082 271.922H179.082V277.922H199.082V271.922Z" fill="#F5E5C9"/>
<path d="M187.082 263.915H179.082V269.915H187.082V263.915Z" fill="#F5E5C9"/>
<path d="M199.082 263.915H191.082V269.915H199.082V263.915Z" fill="#F5E5C9"/>
<path d="M154.824 221.5V235.5L153.164 233.5L151.494 235.5L149.834 233.5L148.164 235.5L146.494 233.5L144.824 235.5V221.5H154.824Z" fill="#F5E5C9"/>
<path d="M126.94 267.1C133.449 268.971 136.74 269.819 141.753 270.449C145.367 270.904 153.179 271.765 153.443 270.047C153.659 268.641 145.532 267.844 145.532 267.844C145.532 267.844 154.07 267.201 155.932 266.766C157.737 266.344 157.596 264.127 155.885 264.375C154.542 264.57 145.532 264.75 145.532 264.75C145.532 264.75 156.413 263.444 157.377 263.301C158.979 263.063 158.621 260.602 157.08 260.737C152.486 261.141 144.564 261.469 144.564 261.469C144.564 261.469 155.411 259.89 155.884 259.805C157.361 259.539 157.36 257.314 155.372 257.511C149.041 258.141 140.31 258.24 140.31 258.24C140.31 258.24 140.401 257.29 140.678 256.872C140.955 256.454 142.091 254.975 144.164 255.235C150.517 256.032 149.251 253.313 149.251 253.313C149.251 253.313 145.239 251.959 143.509 251.52C141.932 251.12 137.626 251.52 135.634 252.329C134.218 252.904 128.551 255.646 128.101 255.375C113.814 246.751 104.202 236.913 104.202 236.913L104.179 231.243C94.361 232.033 85.252 229.86 85.252 229.86C85.252 229.86 84.799 239.595 85.689 241.752C86.581 243.906 111.815 262.752 126.94 267.1Z" fill="#EBA38D"/>
<path d="M149.559 271.329C147.793 271.329 145.283 271.154 141.719 270.706C136.612 270.063 133.272 269.189 126.867 267.349C126.729 267.309 126.65 267.165 126.69 267.029C126.73 266.892 126.87 266.812 127.01 266.851C133.388 268.684 136.713 269.554 141.783 270.192C152.136 271.496 153.128 270.38 153.185 270.007C153.187 269.992 153.193 269.952 153.136 269.878C152.501 269.061 148.224 268.367 145.505 268.101C145.372 268.087 145.27 267.974 145.272 267.84C145.273 267.706 145.377 267.595 145.511 267.585C145.596 267.578 154.05 266.939 155.871 266.513C156.698 266.32 157.045 265.696 156.953 265.207C156.889 264.865 156.593 264.532 155.921 264.63C154.578 264.825 145.904 265 145.536 265.008C145.534 265.008 145.531 265.008 145.531 265.008C145.395 265.008 145.282 264.904 145.273 264.767C145.264 264.63 145.363 264.509 145.501 264.493C145.61 264.48 156.389 263.186 157.339 263.045C157.981 262.949 158.21 262.414 158.153 261.927C158.095 261.439 157.735 260.937 157.104 260.995C152.557 261.394 144.655 261.723 144.576 261.727C144.447 261.724 144.321 261.629 144.307 261.493C144.294 261.355 144.392 261.232 144.528 261.213C144.636 261.197 155.376 259.634 155.839 259.55C156.459 259.439 156.729 258.922 156.669 258.492C156.613 258.086 156.249 257.683 155.399 257.768C149.129 258.391 140.402 258.497 140.314 258.498C140.22 258.484 140.17 258.469 140.121 258.414C140.071 258.36 140.047 258.288 140.054 258.215C140.064 258.111 140.159 257.187 140.463 256.729C140.78 256.247 141.978 254.698 144.197 254.977C147.61 255.404 148.625 254.776 148.926 254.362C149.161 254.04 149.101 253.684 149.052 253.518C148.378 253.291 144.982 252.159 143.447 251.77C141.984 251.397 137.748 251.749 135.733 252.567C135.352 252.722 134.66 253.036 133.845 253.405C129.532 255.357 128.324 255.81 127.969 255.595C127.847 255.521 127.807 255.362 127.881 255.24C127.955 255.118 128.114 255.078 128.236 255.152C128.241 255.153 128.246 255.153 128.252 255.153C128.728 255.153 131.912 253.712 133.631 252.933C134.454 252.561 135.153 252.245 135.538 252.088C137.521 251.281 141.875 250.838 143.574 251.268C145.294 251.704 149.295 253.053 149.335 253.067C149.402 253.089 149.457 253.138 149.487 253.203C149.502 253.235 149.842 253.985 149.345 254.668C148.69 255.566 146.937 255.844 144.133 255.491C142.22 255.25 141.171 256.596 140.895 257.014C140.751 257.231 140.657 257.662 140.607 257.977C142.192 257.953 149.755 257.809 155.348 257.252C156.487 257.145 157.089 257.757 157.181 258.42C157.274 259.088 156.868 259.89 155.931 260.059C155.685 260.104 152.727 260.539 149.893 260.953C152.28 260.825 155.01 260.659 157.058 260.479C157.997 260.408 158.578 261.114 158.666 261.866C158.75 262.578 158.395 263.411 157.415 263.556C156.918 263.63 153.863 264.003 150.977 264.353C153.142 264.288 155.259 264.204 155.847 264.119C156.806 263.977 157.35 264.516 157.462 265.111C157.599 265.837 157.13 266.751 155.99 267.017C154.76 267.305 150.746 267.674 148.066 267.9C150.183 268.216 152.93 268.768 153.546 269.561C153.706 269.768 153.717 269.96 153.698 270.085C153.606 270.677 152.971 271.329 149.559 271.329Z" fill="#1F160F"/>
<path d="M129.309 198.724C129.861 198.724 130.309 198.276 130.309 197.724C130.309 197.172 129.861 196.724 129.309 196.724C128.756 196.724 128.309 197.172 128.309 197.724C128.309 198.276 128.756 198.724 129.309 198.724Z" fill="#1F160F"/>
<path d="M129.309 204.224C129.861 204.224 130.309 203.776 130.309 203.224C130.309 202.672 129.861 202.224 129.309 202.224C128.756 202.224 128.309 202.672 128.309 203.224C128.309 203.776 128.756 204.224 129.309 204.224Z" fill="#1F160F"/>
<path d="M281.035 354.427L451.035 361.819V354.427H281.035Z" fill="#1F160F"/>
<path d="M451.031 214.427H281.031V354.427H451.031V214.427Z" fill="white"/>
<path d="M324.098 239.939H281.031V354.427H324.098V239.939Z" fill="#F5E5C9"/>
<path d="M318.498 320.438C318.498 318.471 316.903 316.876 314.937 316.876C312.97 316.876 311.375 318.471 311.375 320.438C311.375 322.405 312.97 324 314.937 324C316.903 323.999 318.498 322.405 318.498 320.438Z" fill="#EBD4AE"/>
<path d="M400.877 296.813C400.672 304.36 403.627 310.501 403.627 310.501C403.596 291.47 414.049 287.72 414.049 287.72H406.44L400.877 296.813Z" fill="#EBD4AE"/>
<path d="M407.379 318C407.379 318 425.066 325.125 425.066 354.427H451.034V301.266C451.034 241.509 418.691 237.367 418.691 237.367C433.707 248.063 439.316 278.28 439.316 309.765C439.316 309.765 428.252 282.103 414.129 283.185C402.051 284.11 400.879 296.813 400.879 296.813C418.754 273.438 434.004 313.75 434.004 337C434.004 337 420.004 312.75 407.379 318Z" fill="#F5E5C9"/>
<path d="M329.126 354.685H281.032C280.889 354.685 280.773 354.569 280.773 354.426V214.426C280.773 214.283 280.889 214.167 281.032 214.167H451.032C451.175 214.167 451.291 214.283 451.291 214.426V351.507C451.291 351.65 451.175 351.766 451.032 351.766C450.889 351.766 450.773 351.65 450.773 351.507V214.686H281.291V354.168H329.127C329.27 354.168 329.386 354.284 329.386 354.427C329.385 354.569 329.269 354.685 329.126 354.685Z" fill="#1F160F"/>
<path d="M370.699 204.985C379.303 202.454 382.944 210.214 385.84 226.056C387.67 236.068 389.524 244.479 397.944 246.913C402.846 248.33 415.129 254.296 409.743 268.29C404.815 281.096 380.346 283.78 360.861 276.843C331.236 266.295 345.944 234.829 345.944 234.829C343.698 230.905 344.06 225.631 342.795 222.484C338.82 212.597 353.211 192.938 370.699 204.985Z" fill="#1F160F"/>
<path d="M352.07 257.156L370.698 257.537V239.125H352.07V257.156Z" fill="#EBA38D"/>
<path d="M352.07 252.797V239.125H369.752C369.752 239.125 369.198 254.204 352.07 252.797Z" fill="#1F160F"/>
<path d="M344.134 230.507C344.376 244.352 346.636 249.488 356.311 249.319C365.977 249.151 373.086 243.851 372.845 230.006C372.604 216.171 363.593 211.671 358.167 211.766C352.73 211.86 343.892 216.672 344.134 230.507Z" fill="#EBA38D"/>
<path d="M378.777 229.068C378.178 224.571 375.038 223.413 371.805 226.878L371.98 236.929C376.082 240.209 379.375 233.564 378.777 229.068Z" fill="#EBA38D"/>
<path d="M377.229 229.463C377.118 229.463 377.015 229.391 376.981 229.279C376.712 228.387 376.227 227.862 375.576 227.759C374.837 227.64 373.993 228.099 373.424 228.921C373.341 229.038 373.181 229.067 373.064 228.986C372.947 228.905 372.917 228.743 372.999 228.626C373.683 227.641 374.725 227.1 375.658 227.248C376.507 227.382 377.153 228.051 377.478 229.13C377.519 229.267 377.441 229.411 377.304 229.452C377.279 229.459 377.253 229.463 377.229 229.463Z" fill="#1F160F"/>
<path d="M364.254 217.25C355.629 221.813 349.089 224.97 344.13 219.422C342.089 217.138 344.793 208.894 356.947 208.682C372.142 208.417 372.6 223.697 372.51 226.196C372.41 228.988 370.77 238.696 370.7 236.731C370.27 224.564 365.58 223.787 364.254 217.25Z" fill="#1F160F"/>
<path d="M353.746 240.317C356.22 240.392 358.293 239.616 359.51 238.369C359.51 238.369 359.888 240.45 358.348 241.214C356.317 242.222 353.746 240.317 353.746 240.317Z" fill="white"/>
<path d="M355.278 236.901C354.832 236.901 354.357 236.745 353.902 236.44C353.419 236.116 352.938 235.585 352.954 235.129C352.963 234.888 353.1 234.525 353.307 233.976C353.695 232.949 354.28 231.397 354.252 229.847C354.249 229.704 354.363 229.586 354.506 229.584C354.508 229.584 354.511 229.584 354.511 229.584C354.652 229.584 354.767 229.697 354.77 229.838C354.798 231.487 354.192 233.095 353.791 234.159C353.63 234.587 353.477 234.992 353.472 235.147C353.466 235.303 353.713 235.69 354.191 236.009C354.455 236.187 355.143 236.568 355.785 236.279C355.912 236.221 356.067 236.277 356.126 236.408C356.186 236.538 356.128 236.691 355.997 236.75C355.772 236.851 355.53 236.901 355.278 236.901Z" fill="#1F160F"/>
<path d="M349.09 228.705C349.105 229.562 349.58 230.249 350.152 230.239C350.723 230.229 351.175 229.526 351.16 228.669C351.145 227.812 350.669 227.125 350.098 227.135C349.526 227.145 349.075 227.848 349.09 228.705Z" fill="#1F160F"/>
<path d="M347.496 226.085C347.215 226.085 346.944 225.933 346.807 225.666C346.609 225.286 346.757 224.817 347.138 224.62C348.666 223.827 349.992 223.668 351.859 224.053C352.279 224.139 352.549 224.55 352.462 224.97C352.376 225.389 351.965 225.659 351.546 225.574C349.823 225.219 348.888 225.461 347.853 225.998C347.738 226.057 347.616 226.085 347.496 226.085Z" fill="#1F160F"/>
<path d="M360.863 228.457C360.878 229.314 360.427 230.017 359.855 230.027C359.283 230.037 358.808 229.35 358.793 228.493C358.778 227.636 359.229 226.933 359.801 226.923C360.373 226.913 360.848 227.6 360.863 228.457Z" fill="#1F160F"/>
<path d="M362.45 225.747C362.313 225.747 362.174 225.71 362.048 225.634C361.003 224.999 360.025 224.725 357.847 225.108C357.433 225.181 357.023 224.901 356.949 224.478C356.875 224.056 357.157 223.653 357.58 223.579C359.887 223.177 361.315 223.372 362.855 224.308C363.221 224.531 363.337 225.008 363.115 225.374C362.968 225.614 362.712 225.747 362.45 225.747Z" fill="#1F160F"/>
<path d="M317.284 262.35V279C317.284 279 300.974 278.843 297.294 276.97C289.004 272.75 266.624 248.52 265.614 247.95C259.384 244.41 254.814 237.26 254.474 236.82C254.124 236.38 249.504 232.05 248.044 231.03C246.584 230 247.754 228.7 248.934 229.37C250.044 230 255.734 234.28 256.294 234.66C256.564 234.84 256.754 234.5 256.614 234.32C256.484 234.14 249.084 225.97 248.334 224.77C247.584 223.58 249.044 222.22 249.994 223.01C250.494 223.43 258.364 231.86 258.804 232.15C259.084 232.35 259.244 232.06 259.104 231.89C258.964 231.71 252.064 222.25 250.764 220.18C249.464 218.12 251.074 216.81 252.494 218.3C253.774 219.64 260.884 229.91 261.204 230.15C261.534 230.4 261.734 230.15 261.574 229.89C261.404 229.62 255.524 219.73 255.014 218.66C254.454 217.49 255.804 216.49 256.804 217.4C257.804 218.31 265.624 230.31 268.524 231.81C268.524 231.81 269.334 230.35 268.094 227.5C267.874 227 266.174 224.56 265.584 223.84C264.994 223.13 264.614 220.78 266.234 220.13C266.234 220.13 270.434 224.24 270.994 224.99C271.554 225.74 272.514 228.69 273.034 230.73C273.444 232.31 273.494 236.04 274.554 238.21C274.554 238.21 286.566 253.437 305.914 262.35C308.496 263.539 317.284 262.35 317.284 262.35Z" fill="#EBA38D"/>
<path d="M264.359 241.724C264.241 241.724 264.134 241.643 264.107 241.523C264.069 241.357 263.193 237.428 264.566 234.342C264.625 234.211 264.779 234.155 264.908 234.211C265.038 234.269 265.097 234.422 265.039 234.552C263.737 237.478 264.602 241.369 264.611 241.408C264.643 241.548 264.556 241.686 264.417 241.718C264.397 241.723 264.377 241.724 264.359 241.724Z" fill="#1F160F"/>
<path d="M255.899 236.144C255.839 236.144 255.78 236.123 255.731 236.081C255.623 235.988 255.61 235.825 255.703 235.717C255.727 235.688 258.264 232.728 262.239 229.069C262.342 228.972 262.508 228.979 262.604 229.084C262.701 229.189 262.694 229.353 262.588 229.45C258.639 233.087 256.12 236.024 256.095 236.054C256.044 236.113 255.972 236.144 255.899 236.144Z" fill="#1F160F"/>
<path d="M266.947 247.698C266.854 247.698 266.765 247.648 266.718 247.561C266.651 247.434 266.698 247.278 266.825 247.21C268.813 246.151 271.582 243.418 271.609 243.391C271.711 243.29 271.874 243.291 271.975 243.392C272.076 243.494 272.075 243.658 271.974 243.758C271.858 243.872 269.123 246.572 267.069 247.667C267.03 247.688 266.988 247.698 266.947 247.698Z" fill="#1F160F"/>
<path d="M393.546 354.427C393.159 336.522 384.003 322.155 388.699 287.75C388.699 287.75 395.024 269.456 386.961 261.594C382.122 256.875 367.586 256.77 359.832 256.77C352.361 256.77 344.93 259.108 340.31 259.688C333.439 259.688 315.084 261.55 315.084 261.55C314.627 267.75 315.388 282.563 315.388 282.563L338.108 283.888C331.689 297.657 338.197 299.079 338.794 307.779C339.907 324.001 339.11 339.05 338.635 354.428H393.546V354.427Z" fill="#FABC5F"/>
<path d="M338.11 283.887C331.691 297.656 338.199 299.078 338.796 307.778C339.909 324 339.112 339.049 338.637 354.427H393.546C393.249 340.66 387.772 328.974 387.389 308.673C375.376 302.15 364.228 279.765 364.28 269.53C364.28 269.53 357.096 272.875 350.471 267.813C350.471 267.813 344.94 278.25 338.11 283.887Z" fill="#1C8C4F"/>
<path d="M352.071 257.115C350.638 262.063 352.236 265.434 357.429 266.751C362.815 268.116 370.699 262.222 370.699 256.797C370.699 256.797 364.755 256.439 360.611 256.438C356.468 256.438 352.071 257.115 352.071 257.115Z" fill="#EBA38D"/>
<path d="M338.11 284.146C338.07 284.146 338.03 284.137 337.993 284.118C337.865 284.053 337.815 283.897 337.88 283.77C338.848 281.867 339.675 279.558 340.34 276.909C340.374 276.769 340.516 276.688 340.653 276.72C340.792 276.755 340.877 276.896 340.842 277.034C340.168 279.723 339.326 282.067 338.341 284.005C338.294 284.095 338.204 284.146 338.11 284.146Z" fill="#1F160F"/>
<path d="M364.282 269.789C364.181 269.789 364.086 269.729 364.044 269.631C363.988 269.499 364.05 269.348 364.182 269.292C364.254 269.262 371.434 266.139 373.488 257.477C373.521 257.338 373.662 257.25 373.8 257.285C373.939 257.318 374.025 257.458 373.992 257.596C371.876 266.521 364.458 269.737 364.384 269.768C364.349 269.782 364.315 269.789 364.282 269.789Z" fill="#1F160F"/>
<path d="M350.474 268.071C350.391 268.071 350.31 268.031 350.26 267.958C346.562 262.523 348.44 258.47 348.521 258.3C348.583 258.172 348.735 258.118 348.866 258.179C348.995 258.24 349.05 258.396 348.988 258.524C348.97 258.563 347.167 262.492 350.688 267.668C350.768 267.786 350.738 267.947 350.62 268.027C350.575 268.056 350.525 268.071 350.474 268.071Z" fill="#1F160F"/>
<path d="M368.416 339.715C360.117 339.715 349.593 338.179 343.685 331.372C343.591 331.264 343.603 331.101 343.71 331.007C343.817 330.913 343.983 330.925 344.075 331.032C354.593 343.151 380.206 338.22 380.462 338.167C380.61 338.144 380.739 338.23 380.767 338.37C380.794 338.511 380.704 338.646 380.564 338.675C380.446 338.698 375.168 339.715 368.416 339.715Z" fill="#1F160F"/>
<path d="M371.042 306.58C371.042 306.58 366.532 310.69 362.792 313.7C362.582 313.86 362.382 314.02 362.182 314.18C361.252 314.39 359.622 314.59 357.492 314.75C347.402 315.52 326.122 315.49 314.612 311.72C308.182 309.62 304.982 308.47 300.482 306.18C297.232 304.52 290.282 300.85 291.032 299.28C291.622 298.02 298.432 301.69 298.792 301.89C298.402 301.57 292.072 296.53 290.812 295.16C289.562 293.8 290.922 292.05 292.192 293.21C293.162 294.1 300.102 299.02 300.532 299.33C300.042 298.9 292.262 292.13 291.562 291.49C290.372 290.39 292.052 288.55 293.252 289.53C296.712 292.36 302.792 296.88 303.172 297.16C302.692 296.71 295.092 289.76 294.762 289.43C293.692 288.38 294.942 286.54 296.472 287.82C301.362 291.9 308.532 296.88 308.532 296.88C308.532 296.88 308.982 296.05 308.992 295.54C308.992 295.04 308.892 293.18 307.022 292.23C301.322 289.32 303.892 287.78 303.892 287.78C303.892 287.78 307.972 288.92 309.652 289.53C311.182 290.08 314.522 292.83 315.712 294.62C316.562 295.89 319.712 301.34 320.242 301.37C336.902 302.26 351.702 300.58 351.702 300.58L355.272 295.7C363.442 303.59 371.042 306.58 371.042 306.58Z" fill="#EBA38D"/>
<path d="M373.48 269.742L355.27 295.701C357.788 301.749 371.575 308.13 371.575 308.13C371.575 308.13 379.907 299.23 384.624 290.521L373.48 269.742Z" fill="#FABC5F"/>
<path d="M371.571 308.389C371.508 308.389 371.444 308.366 371.394 308.319C371.29 308.221 371.285 308.058 371.382 307.954C371.465 307.865 379.745 298.977 384.392 290.398C384.46 290.271 384.617 290.224 384.743 290.294C384.869 290.362 384.916 290.52 384.847 290.645C380.168 299.284 371.843 308.219 371.759 308.308C371.708 308.362 371.64 308.389 371.571 308.389Z" fill="#1F160F"/>
<path d="M355.266 295.96C355.214 295.96 355.162 295.944 355.118 295.913C355.001 295.831 354.972 295.67 355.054 295.553L373.264 269.594C373.347 269.476 373.508 269.449 373.624 269.53C373.741 269.612 373.77 269.773 373.688 269.89L355.478 295.849C355.427 295.922 355.347 295.96 355.266 295.96Z" fill="#1F160F"/>
<path d="M53.0469 331.268C53.0469 329.21 54.7159 327.541 56.7739 327.541C58.8319 327.541 60.5009 329.21 60.5009 331.268C60.5009 333.326 58.8319 334.995 56.7739 334.995C54.7159 334.995 53.0469 333.326 53.0469 331.268Z" fill="#D3B78D"/>
<path d="M235.16 419.414C235.16 417.356 236.828 415.687 238.887 415.687C240.945 415.687 242.614 417.355 242.614 419.414C242.614 421.472 240.945 423.141 238.887 423.141C236.828 423.141 235.16 421.473 235.16 419.414Z" fill="#D3B78D"/>
<path d="M72.7529 325.37C74.1093 325.37 75.2089 324.27 75.2089 322.914C75.2089 321.558 74.1093 320.458 72.7529 320.458C71.3965 320.458 70.2969 321.558 70.2969 322.914C70.2969 324.27 71.3965 325.37 72.7529 325.37Z" fill="#D3B78D"/>
<path d="M338.402 87.218C338.402 85.16 340.07 83.491 342.129 83.491C344.187 83.491 345.856 85.16 345.856 87.218C345.856 89.276 344.187 90.945 342.129 90.945C340.07 90.944 338.402 89.276 338.402 87.218Z" fill="#D3B78D"/>
<path d="M110.016 91.35C110.016 89.292 111.685 87.623 113.743 87.623C115.801 87.623 117.47 89.292 117.47 91.35C117.47 93.408 115.801 95.077 113.743 95.077C111.685 95.077 110.016 93.409 110.016 91.35Z" fill="#D3B78D"/>
<path d="M278.828 93.8061C278.828 92.4501 279.928 91.3501 281.284 91.3501C282.64 91.3501 283.74 92.4491 283.74 93.8061C283.74 95.1631 282.64 96.2621 281.284 96.2621C279.928 96.2621 278.828 95.1631 278.828 93.8061Z" fill="#D3B78D"/>
<path d="M407.577 389.87C408.933 389.87 410.033 388.77 410.033 387.414C410.033 386.058 408.933 384.958 407.577 384.958C406.221 384.958 405.121 386.058 405.121 387.414C405.121 388.77 406.221 389.87 407.577 389.87Z" fill="#D3B78D"/>
<path d="M91.4521 78.713C92.8085 78.713 93.9081 77.6134 93.9081 76.257C93.9081 74.9006 92.8085 73.801 91.4521 73.801C90.0957 73.801 88.9961 74.9006 88.9961 76.257C88.9961 77.6134 90.0957 78.713 91.4521 78.713Z" fill="#D3B78D"/>
<path d="M209.733 308.088C211.09 308.088 212.189 306.988 212.189 305.632C212.189 304.276 211.09 303.176 209.733 303.176C208.377 303.176 207.277 304.276 207.277 305.632C207.277 306.988 208.377 308.088 209.733 308.088Z" fill="#D3B78D"/>
</svg>
